{"glyphs":{"0":{"ha":633,"x_min":73,"x_max":650,"o":"m 73 323 q 135 692 73 516 q 280 942 196 868 q 424 998 344 998 q 586 911 522 998 q 650 656 650 824 q 590 288 650 463 q 445 38 529 112 q 300 -17 382 -17 q 138 69 203 -17 q 73 323 73 155 m 230 284 q 251 172 230 204 q 306 139 273 139 q 382 186 348 139 q 461 427 428 249 q 495 702 495 605 q 473 809 495 777 q 418 842 452 842 q 346 796 378 842 q 258 530 294 724 q 230 284 230 378 z "},"1":{"ha":633,"x_min":135,"x_max":581,"o":"m 135 571 l 165 745 q 484 1000 372 854 l 581 1000 l 410 0 l 249 0 l 368 689 q 253 618 319 650 q 135 571 188 585 z "},"2":{"ha":633,"x_min":69,"x_max":650,"o":"m 301 684 l 144 713 q 235 927 165 855 q 406 998 304 998 q 583 926 516 998 q 650 731 650 853 q 601 546 650 636 q 452 351 564 479 q 312 178 349 236 l 595 178 l 564 0 l 69 0 q 140 211 81 111 q 323 446 179 279 q 458 616 429 568 q 496 732 496 680 q 471 815 496 785 q 410 846 446 846 q 301 684 327 846 z "},"3":{"ha":633,"x_min":58,"x_max":638,"o":"m 58 260 l 211 282 q 245 172 220 203 q 312 142 271 142 q 401 185 364 142 q 437 300 437 229 q 408 399 437 365 q 330 433 378 433 q 305 431 319 433 l 333 593 l 349 591 q 446 630 412 591 q 479 739 479 668 q 456 815 479 788 q 398 842 433 842 q 293 706 323 842 l 147 741 q 233 920 177 859 q 410 998 307 998 q 575 928 511 998 q 638 739 638 858 q 600 597 638 659 q 498 508 562 536 q 573 426 547 477 q 600 311 600 374 q 527 97 600 193 q 310 -17 441 -17 q 142 53 210 -17 q 58 260 74 123 z "},"4":{"ha":633,"x_min":31,"x_max":637,"o":"m 352 203 l 31 203 l 59 366 l 500 994 l 637 994 l 531 368 l 629 368 l 601 203 l 503 203 l 467 0 l 317 0 l 352 203 m 380 368 l 433 678 l 218 368 l 380 368 z "},"5":{"ha":633,"x_min":73,"x_max":659,"o":"m 73 285 l 228 302 l 227 281 q 253 177 227 212 q 317 143 279 143 q 421 209 374 143 q 468 392 468 275 q 441 497 468 463 q 374 532 415 532 q 312 514 342 532 q 256 460 283 496 l 124 473 l 248 981 l 659 981 l 628 803 l 357 803 l 320 650 q 367 669 343 663 q 413 675 390 675 q 565 600 504 675 q 627 393 627 525 q 580 180 627 279 q 462 32 534 81 q 312 -17 390 -17 q 142 64 210 -17 q 73 285 73 144 z "},"6":{"ha":633,"x_min":92,"x_max":655,"o":"m 655 751 l 506 736 q 483 820 501 796 q 433 843 464 843 q 348 788 385 843 q 288 622 312 732 q 397 663 340 663 q 552 586 490 663 q 614 370 614 509 q 534 98 614 214 q 330 -18 454 -18 q 209 22 263 -18 q 124 142 155 62 q 92 361 92 222 q 193 820 92 642 q 445 998 294 998 q 589 938 534 998 q 655 751 644 878 m 246 292 q 272 176 246 213 q 335 139 297 139 q 415 193 382 139 q 460 382 460 264 q 435 497 460 460 q 374 534 410 534 q 316 510 345 534 q 266 426 286 485 q 246 292 246 367 z "},"7":{"ha":633,"x_min":118,"x_max":686,"o":"m 118 801 l 149 981 l 686 981 l 663 842 q 574 730 621 801 q 459 522 507 627 q 356 252 393 374 q 292 0 304 81 l 140 0 q 203 256 153 99 q 317 548 252 414 q 467 801 382 682 l 118 801 z "},"8":{"ha":633,"x_min":75,"x_max":646,"o":"m 245 547 q 180 627 202 582 q 159 727 159 671 q 194 866 159 801 q 286 964 229 930 q 414 998 343 998 q 582 932 518 998 q 646 755 646 866 q 611 624 646 680 q 508 532 577 568 q 583 442 558 495 q 608 320 608 389 q 538 101 608 197 q 315 -18 453 -18 q 143 58 210 -18 q 75 258 75 133 q 122 438 75 360 q 245 547 168 516 m 305 714 q 329 638 305 666 q 389 610 353 610 q 464 648 431 610 q 497 742 497 687 q 473 821 497 791 q 412 850 449 850 q 337 811 370 850 q 305 714 305 773 m 234 254 q 260 166 234 197 q 325 135 286 135 q 418 198 383 135 q 453 346 453 262 q 427 429 453 398 q 361 460 400 460 q 273 405 312 460 q 234 254 234 349 z "},"9":{"ha":633,"x_min":73,"x_max":635,"o":"m 73 229 l 222 244 q 245 162 227 185 q 296 138 264 138 q 380 194 344 138 q 440 359 416 249 q 331 318 388 318 q 176 395 238 318 q 114 610 114 472 q 193 882 114 765 q 400 998 273 998 q 519 959 467 998 q 604 839 572 920 q 635 621 635 758 q 534 161 635 338 q 283 -17 433 -17 q 136 47 193 -17 q 73 229 79 111 m 482 689 q 457 805 482 768 q 393 842 431 842 q 313 788 347 842 q 269 597 269 717 q 293 483 269 520 q 354 446 318 446 q 413 471 383 446 q 462 555 442 496 q 482 689 482 614 z "}," ":{"ha":317,"x_min":0,"x_max":0,"o":""},"!":{"ha":379,"x_min":70,"x_max":402,"o":"m 232 253 l 144 253 l 194 760 l 234 994 l 402 994 l 359 743 l 232 253 m 102 188 l 260 188 l 227 0 l 70 0 l 102 188 z "},"\"":{"ha":541,"x_min":169,"x_max":622,"o":"m 169 641 l 172 826 l 201 994 l 371 994 l 342 826 l 284 641 l 169 641 m 420 641 l 422 826 l 452 994 l 622 994 l 593 826 l 535 641 l 420 641 z "},"#":{"ha":633,"x_min":10,"x_max":621,"o":"m 85 248 l 10 248 l 10 397 l 111 397 l 144 597 l 10 597 l 10 747 l 169 747 l 212 1011 l 337 1011 l 294 747 l 416 747 l 459 1011 l 588 1011 l 543 747 l 621 747 l 621 597 l 519 597 l 485 397 l 621 397 l 621 248 l 460 248 l 416 -17 l 292 -17 l 335 248 l 212 248 l 168 -17 l 42 -17 l 85 248 m 269 597 l 236 397 l 359 397 l 392 597 l 269 597 z "},"$":{"ha":633,"x_min":50,"x_max":656,"o":"m 239 -7 q 110 93 161 16 q 50 289 58 170 l 191 298 q 265 146 201 181 l 316 446 q 190 563 233 490 q 146 724 146 636 q 179 869 146 802 q 271 974 213 937 q 384 1012 330 1012 l 413 1011 l 423 1069 l 503 1069 l 491 1000 q 604 917 560 978 q 656 756 648 857 l 519 747 q 465 852 510 823 l 419 583 q 559 464 514 536 q 604 295 604 392 q 522 70 604 157 q 316 -18 439 -18 l 296 -138 l 216 -138 l 239 -7 m 347 623 l 389 869 q 311 834 344 869 q 279 745 279 798 q 347 623 279 669 m 389 404 l 342 132 q 438 178 402 138 q 473 279 473 218 q 457 345 473 317 q 389 404 440 372 z "},"%":{"ha":1013,"x_min":103,"x_max":984,"o":"m 103 686 q 162 915 103 819 q 320 1011 220 1011 q 432 958 389 1011 q 475 806 475 905 q 442 634 475 713 q 362 523 410 556 q 257 489 315 489 q 146 541 190 489 q 103 686 103 592 m 220 670 q 233 619 220 635 q 267 604 245 604 q 330 669 305 604 q 360 833 360 748 q 347 880 360 863 q 314 896 334 896 q 277 879 294 896 q 240 793 260 861 q 220 670 220 725 m 269 -43 l 141 -43 l 821 1011 l 949 1011 l 269 -43 m 612 155 q 671 385 612 289 q 830 481 730 481 q 941 428 899 481 q 984 276 984 375 q 951 105 984 183 q 872 -7 919 26 q 766 -41 825 -41 q 656 11 699 -41 q 612 155 612 62 m 730 140 q 742 90 730 105 q 776 74 755 74 q 839 139 814 74 q 869 303 869 218 q 857 350 869 334 q 823 366 844 366 q 787 349 804 366 q 749 263 769 332 q 730 140 730 195 z "},"&":{"ha":822,"x_min":94,"x_max":804,"o":"m 688 433 l 804 349 q 714 197 767 259 q 795 104 745 157 l 694 -23 q 597 73 646 10 q 493 7 554 32 q 366 -17 433 -17 q 170 62 245 -17 q 94 265 94 140 q 116 389 94 330 q 178 494 138 448 q 304 597 217 541 q 268 764 268 694 q 333 943 268 875 q 496 1011 398 1011 q 632 957 578 1011 q 686 822 686 903 q 639 679 686 752 q 496 545 592 605 q 578 391 529 479 q 621 322 604 345 q 688 433 648 355 m 439 678 q 550 821 550 747 q 534 867 550 850 q 492 884 518 884 q 438 857 460 884 q 415 783 415 829 q 439 678 415 740 m 362 460 q 252 283 252 393 q 286 180 252 218 q 372 141 319 141 q 508 197 439 141 q 362 460 422 324 z "},"'":{"ha":271,"x_min":172,"x_max":374,"o":"m 172 641 l 175 826 l 204 994 l 374 994 l 345 826 l 288 641 l 172 641 z "},"(":{"ha":379,"x_min":75,"x_max":495,"o":"m 273 -292 l 164 -292 q 75 213 75 -37 q 114 500 75 357 q 229 786 153 644 q 374 1011 273 870 l 495 1011 q 286 602 347 798 q 218 129 218 380 q 273 -292 218 -67 z "},")":{"ha":379,"x_min":-90,"x_max":332,"o":"m 134 1011 l 242 1011 q 332 507 332 751 q 292 219 332 362 q 178 -67 253 75 q 32 -292 133 -151 l -90 -292 q 120 118 60 -77 q 189 595 189 340 q 134 1011 189 781 z "},"*":{"ha":443,"x_min":109,"x_max":511,"o":"m 232 531 l 145 606 l 250 741 l 109 781 l 142 901 l 272 823 l 257 1002 l 358 1002 l 342 823 l 481 897 l 511 777 l 370 741 l 468 606 l 385 531 l 309 688 l 232 531 z "},"+":{"ha":665,"x_min":47,"x_max":617,"o":"m 260 143 l 260 401 l 47 401 l 47 580 l 260 580 l 260 838 l 403 838 l 403 580 l 617 580 l 617 401 l 403 401 l 403 143 l 260 143 z "},",":{"ha":317,"x_min":12,"x_max":241,"o":"m 81 188 l 241 188 l 215 33 q 141 -159 192 -104 q 12 -216 90 -214 l 27 -125 q 89 -87 66 -115 q 122 0 111 -59 l 48 0 l 81 188 z "},"-":{"ha":379,"x_min":44,"x_max":386,"o":"m 77 452 l 386 452 l 354 264 l 44 264 l 77 452 z "},".":{"ha":317,"x_min":50,"x_max":240,"o":"m 83 188 l 240 188 l 208 0 l 50 0 l 83 188 z "},"/":{"ha":317,"x_min":-50,"x_max":466,"o":"m -50 -17 l 354 1011 l 466 1011 l 62 -17 l -50 -17 z "},":":{"ha":379,"x_min":80,"x_max":361,"o":"m 203 720 l 361 720 l 329 532 l 171 532 l 203 720 m 113 188 l 270 188 l 237 0 l 80 0 l 113 188 z "},";":{"ha":379,"x_min":46,"x_max":364,"o":"m 206 720 l 364 720 l 332 532 l 174 532 l 206 720 m 115 188 l 276 188 l 250 33 q 176 -159 227 -104 q 46 -216 125 -214 l 62 -125 q 123 -87 101 -115 q 157 0 146 -59 l 83 0 l 115 188 z "},"<":{"ha":665,"x_min":53,"x_max":612,"o":"m 612 113 l 53 410 l 53 574 l 612 869 l 612 675 l 222 494 l 612 305 l 612 113 z "},"=":{"ha":665,"x_min":47,"x_max":617,"o":"m 47 553 l 47 728 l 617 728 l 617 553 l 47 553 m 47 252 l 47 428 l 617 428 l 617 252 l 47 252 z "},">":{"ha":665,"x_min":52,"x_max":612,"o":"m 52 113 l 52 304 l 443 492 l 52 677 l 52 867 l 612 572 l 612 410 l 52 113 z "},"?":{"ha":696,"x_min":140,"x_max":703,"o":"m 389 248 l 245 248 q 292 407 257 340 q 433 585 328 473 q 537 707 519 675 q 555 770 555 739 q 526 841 555 814 q 444 868 497 868 q 343 828 382 868 q 286 694 303 787 l 140 726 q 251 937 169 863 q 447 1011 334 1011 q 632 941 561 1011 q 703 762 703 871 q 671 636 703 696 q 516 452 640 577 q 416 338 435 370 q 389 248 397 305 m 229 188 l 387 188 l 354 0 l 197 0 l 229 188 z "},"@":{"ha":1111,"x_min":34,"x_max":1106,"o":"m 988 13 l 1106 13 q 922 -213 1047 -133 q 616 -292 798 -292 q 304 -220 432 -292 q 105 -7 176 -147 q 34 330 34 133 q 112 692 34 531 q 316 932 190 852 q 604 1012 443 1012 q 848 948 741 1012 q 1016 763 955 884 q 1078 489 1078 643 q 985 168 1078 312 q 709 0 877 0 q 641 18 665 0 q 608 77 617 37 q 457 0 543 0 q 305 76 368 0 q 243 283 243 152 q 291 524 243 412 q 404 685 339 635 q 545 735 469 735 q 631 712 594 735 q 691 643 667 689 l 705 718 l 851 718 l 768 232 q 760 171 760 185 q 766 147 760 155 q 781 138 772 138 q 849 176 807 138 q 941 314 905 227 q 977 495 977 401 q 928 702 977 609 q 798 841 879 794 q 602 887 717 887 q 362 822 465 887 q 198 624 260 758 q 135 318 135 490 q 194 58 135 171 q 355 -111 253 -54 q 606 -168 458 -168 q 834 -122 739 -168 q 988 13 930 -77 m 387 292 q 416 164 387 204 q 489 124 446 124 q 559 153 527 124 q 630 277 600 189 q 661 455 661 366 q 631 572 661 532 q 558 613 601 613 q 447 536 490 613 q 387 292 387 427 z "},"A":{"ha":822,"x_min":-13,"x_max":766,"o":"m 581 220 l 257 220 l 159 0 l -13 0 l 448 994 l 634 994 l 766 0 l 608 0 l 581 220 m 559 385 l 513 785 l 333 385 l 559 385 z "},"B":{"ha":822,"x_min":45,"x_max":808,"o":"m 45 0 l 216 994 l 495 994 q 654 980 607 994 q 768 899 728 958 q 808 753 808 840 q 770 607 808 666 q 654 517 731 548 q 750 444 714 497 q 787 321 787 391 q 743 146 787 224 q 629 34 699 68 q 430 0 559 0 l 45 0 m 315 593 l 443 593 q 564 606 527 593 q 621 653 600 620 q 642 729 642 686 q 627 788 642 764 q 587 820 611 812 q 485 828 564 828 l 355 828 l 315 593 m 241 160 l 402 160 q 532 174 497 160 q 591 223 568 187 q 615 305 615 260 q 584 389 615 359 q 486 420 553 420 l 285 420 l 241 160 z "},"C":{"ha":822,"x_min":108,"x_max":849,"o":"m 637 358 l 806 328 q 656 68 755 155 q 426 -18 557 -18 q 194 90 279 -18 q 108 411 108 197 q 170 735 108 595 q 329 943 233 875 q 538 1011 426 1011 q 750 928 665 1011 q 849 689 834 844 l 688 670 q 635 798 674 760 q 535 835 597 835 q 414 789 472 835 q 314 637 355 744 q 273 402 273 530 q 321 218 273 282 q 436 154 368 154 q 555 204 500 154 q 637 358 610 255 z "},"D":{"ha":822,"x_min":50,"x_max":825,"o":"m 50 0 l 220 994 l 439 994 q 595 985 554 994 q 714 918 663 968 q 795 784 766 867 q 825 583 825 700 q 795 354 825 459 q 709 171 764 250 q 595 57 654 93 q 471 9 536 22 q 337 0 429 0 l 50 0 m 245 160 l 330 160 q 460 173 422 160 q 551 240 509 189 q 625 380 594 290 q 656 588 656 470 q 631 741 656 686 q 563 817 606 797 q 456 830 532 830 l 359 830 l 245 160 z "},"E":{"ha":760,"x_min":47,"x_max":821,"o":"m 47 0 l 217 994 l 821 994 l 793 828 l 357 828 l 318 602 l 740 602 l 711 436 l 290 436 l 243 166 l 711 166 l 684 0 l 47 0 z "},"F":{"ha":696,"x_min":44,"x_max":785,"o":"m 44 0 l 214 994 l 785 994 l 757 828 l 354 828 l 313 589 l 707 589 l 679 423 l 284 423 l 212 0 l 44 0 z "},"G":{"ha":886,"x_min":101,"x_max":895,"o":"m 501 531 l 865 531 l 792 104 q 630 17 724 50 q 443 -17 536 -17 q 199 79 281 -17 q 101 399 101 195 q 169 725 101 576 q 335 943 236 874 q 555 1011 433 1011 q 778 934 690 1011 q 895 698 866 857 l 739 676 q 555 846 698 846 q 413 799 478 846 q 306 646 348 751 q 263 399 263 540 q 311 213 263 272 q 448 154 358 154 q 545 169 498 154 q 655 217 610 189 l 681 365 l 473 365 l 501 531 z "},"H":{"ha":822,"x_min":49,"x_max":870,"o":"m 608 444 l 293 444 l 216 0 l 49 0 l 219 994 l 387 994 l 321 610 l 637 610 l 703 994 l 870 994 l 700 0 l 532 0 l 608 444 z "},"I":{"ha":317,"x_min":40,"x_max":378,"o":"m 40 0 l 210 994 l 378 994 l 208 0 l 40 0 z "},"J":{"ha":633,"x_min":33,"x_max":684,"o":"m 519 994 l 684 994 l 581 392 q 468 62 538 140 q 268 -17 397 -17 q 94 46 155 -17 q 33 227 33 109 q 36 281 33 251 l 191 301 q 188 253 188 272 q 211 178 188 202 q 279 154 235 154 q 368 199 342 154 q 416 399 389 233 l 519 994 z "},"K":{"ha":822,"x_min":45,"x_max":913,"o":"m 45 0 l 215 994 l 382 994 l 311 572 l 688 994 l 913 994 l 546 604 l 814 0 l 625 0 l 424 473 l 266 304 l 214 0 l 45 0 z "},"L":{"ha":696,"x_min":52,"x_max":663,"o":"m 52 0 l 222 994 l 390 994 l 248 166 l 663 166 l 634 0 l 52 0 z "},"M":{"ha":949,"x_min":46,"x_max":1000,"o":"m 515 0 l 356 0 l 327 831 l 197 0 l 46 0 l 216 994 l 456 994 l 481 298 l 759 994 l 1000 994 l 830 0 l 677 0 l 838 825 l 515 0 z "},"N":{"ha":822,"x_min":51,"x_max":869,"o":"m 699 0 l 542 0 l 321 668 l 208 0 l 51 0 l 221 994 l 378 994 l 598 329 l 712 994 l 869 994 l 699 0 z "},"O":{"ha":886,"x_min":100,"x_max":893,"o":"m 100 390 q 143 655 100 519 q 306 921 198 830 q 555 1011 414 1011 q 798 899 703 1011 q 893 594 893 787 q 825 271 893 419 q 656 53 757 123 q 433 -18 555 -18 q 202 84 288 -18 q 100 390 100 204 m 266 394 q 320 219 266 284 q 451 153 374 153 q 574 202 513 153 q 681 362 635 251 q 726 589 726 474 q 670 779 726 710 q 542 840 621 840 q 416 791 478 840 q 310 632 353 741 q 266 394 266 522 z "},"P":{"ha":760,"x_min":47,"x_max":800,"o":"m 214 0 l 47 0 l 217 994 l 549 994 q 690 968 641 994 q 770 885 740 941 q 800 746 800 828 q 764 564 800 647 q 674 441 728 481 q 546 387 620 401 q 387 379 506 379 l 279 379 l 214 0 m 308 544 l 359 544 q 529 561 484 544 q 603 623 574 578 q 632 728 632 668 q 590 817 632 792 q 477 831 566 831 l 357 831 l 308 544 z "},"Q":{"ha":886,"x_min":100,"x_max":894,"o":"m 600 20 q 520 -8 562 1 q 433 -18 478 -18 q 202 85 289 -18 q 100 393 100 205 q 143 654 100 518 q 307 920 199 829 q 556 1011 414 1011 q 799 899 703 1011 q 894 594 894 787 q 843 313 894 446 q 711 99 791 180 q 823 -5 762 37 l 744 -132 q 600 20 666 -86 m 614 241 q 694 398 662 299 q 726 589 726 496 q 674 775 726 710 q 543 840 622 840 q 417 792 479 840 q 311 634 355 743 q 267 405 267 525 q 320 220 267 286 q 454 154 374 154 q 508 159 491 154 q 514 168 514 161 q 490 201 514 175 q 423 251 458 235 l 484 365 q 614 241 559 318 z "},"R":{"ha":822,"x_min":50,"x_max":844,"o":"m 218 0 l 50 0 l 220 994 l 583 994 q 733 968 684 994 q 813 882 783 941 q 844 733 844 823 q 780 521 844 601 q 593 422 715 441 q 660 317 627 385 q 779 0 714 201 l 599 0 q 526 229 588 42 q 466 363 493 324 q 426 401 446 391 q 357 412 406 412 l 288 412 l 218 0 m 314 561 l 403 561 q 573 577 529 561 q 647 635 618 593 q 677 730 677 678 q 640 812 677 786 q 545 828 618 828 l 360 828 l 314 561 z "},"S":{"ha":760,"x_min":70,"x_max":770,"o":"m 72 322 l 231 332 q 250 221 235 252 q 299 172 264 190 q 393 154 334 154 q 510 188 471 154 q 549 277 549 222 q 526 343 549 315 q 410 420 504 370 q 253 518 292 483 q 192 604 214 553 q 171 720 171 654 q 249 932 171 852 q 462 1011 327 1011 q 680 932 598 1011 q 770 711 762 854 l 609 702 q 461 849 597 849 q 362 821 394 849 q 331 744 331 793 q 361 671 331 699 q 479 595 390 643 q 635 499 596 534 q 694 415 673 465 q 715 302 715 366 q 626 72 715 161 q 391 -17 537 -17 q 204 30 281 -17 q 98 155 126 77 q 72 322 70 233 z "},"T":{"ha":696,"x_min":137,"x_max":808,"o":"m 401 0 l 234 0 l 376 828 l 137 828 l 165 994 l 808 994 l 779 828 l 544 828 l 401 0 z "},"U":{"ha":822,"x_min":104,"x_max":871,"o":"m 217 994 l 385 994 l 292 454 l 270 324 q 267 290 267 305 q 304 191 267 227 q 405 154 341 154 q 500 179 461 154 q 563 256 540 204 q 610 450 586 308 l 703 994 l 871 994 l 778 450 q 718 206 749 284 q 593 38 671 94 q 397 -17 514 -17 q 182 65 260 -17 q 104 288 104 146 q 127 471 104 333 l 217 994 z "},"V":{"ha":760,"x_min":130,"x_max":904,"o":"m 455 0 l 275 0 l 130 994 l 297 994 l 401 242 l 738 994 l 904 994 l 455 0 z "},"W":{"ha":1075,"x_min":134,"x_max":1216,"o":"m 822 0 l 652 0 l 634 727 l 337 0 l 164 0 l 134 994 l 298 994 l 304 298 l 585 994 l 767 994 l 785 306 l 1054 994 l 1216 994 l 822 0 z "},"X":{"ha":760,"x_min":-34,"x_max":892,"o":"m 183 0 l -34 0 l 326 503 l 123 994 l 299 994 l 378 808 q 439 652 420 707 q 554 817 507 753 l 682 994 l 892 994 l 520 471 l 721 0 l 532 0 l 471 150 q 407 320 422 270 q 295 155 386 281 l 183 0 z "},"Y":{"ha":760,"x_min":131,"x_max":894,"o":"m 457 0 l 289 0 l 356 387 l 131 994 l 309 994 l 410 713 q 458 568 446 613 q 507 662 480 613 l 584 793 l 699 994 l 894 994 l 520 368 l 457 0 z "},"Z":{"ha":696,"x_min":28,"x_max":761,"o":"m 28 0 l 56 157 l 524 828 l 144 828 l 173 994 l 761 994 l 736 838 l 262 163 l 349 165 l 376 165 l 496 166 l 689 166 l 661 0 l 28 0 z "},"[":{"ha":379,"x_min":11,"x_max":500,"o":"m 308 -129 l 283 -274 l 11 -274 l 228 994 l 500 994 l 474 843 l 353 843 l 186 -129 l 308 -129 z "},"\\":{"ha":317,"x_min":89,"x_max":327,"o":"m 215 -17 l 89 1011 l 200 1011 l 327 -17 l 215 -17 z "},"]":{"ha":379,"x_min":-64,"x_max":427,"o":"m 129 849 l 153 994 l 427 994 l 210 -274 l -64 -274 l -38 -122 l 85 -122 l 252 849 l 129 849 z "},"^":{"ha":665,"x_min":64,"x_max":602,"o":"m 64 469 l 273 1011 l 397 1011 l 602 469 l 443 469 l 333 801 l 224 469 l 64 469 z "},"_":{"ha":633,"x_min":-8,"x_max":642,"o":"m -8 -104 l 642 -104 l 642 -174 l -8 -174 l -8 -104 z "},"`":{"ha":379,"x_min":153,"x_max":378,"o":"m 153 1017 l 307 1017 l 378 814 l 269 814 l 153 1017 z "},"a":{"ha":633,"x_min":52,"x_max":608,"o":"m 271 516 l 115 532 q 212 684 143 632 q 385 736 280 736 q 550 683 492 736 q 608 542 608 630 q 603 475 608 511 q 570 283 599 440 q 547 102 547 153 q 559 0 547 55 l 405 0 q 393 81 395 39 q 312 9 358 34 q 221 -16 267 -16 q 100 41 149 -16 q 52 193 52 98 q 107 361 52 302 q 292 432 162 420 q 444 460 406 444 q 454 526 454 501 q 432 578 454 558 q 372 598 410 598 q 271 516 290 598 m 423 336 q 385 327 408 331 q 237 283 273 311 q 201 210 201 256 q 222 151 201 174 q 275 129 243 129 q 338 148 308 129 q 387 200 369 166 q 418 310 406 233 l 423 336 z "},"b":{"ha":696,"x_min":41,"x_max":685,"o":"m 41 0 l 211 994 l 371 994 l 314 662 q 398 721 361 705 q 478 736 435 736 q 628 661 571 736 q 685 438 685 586 q 641 195 685 303 q 529 35 596 87 q 393 -16 462 -16 q 206 119 266 -16 l 186 0 l 41 0 m 256 294 q 290 175 256 220 q 369 130 324 130 q 440 160 405 130 q 503 269 475 191 q 530 433 530 347 q 497 555 530 513 q 418 598 464 598 q 302 509 349 598 q 256 294 256 419 z "},"c":{"ha":633,"x_min":68,"x_max":643,"o":"m 446 271 l 601 241 q 487 48 562 112 q 314 -16 411 -16 q 136 64 204 -16 q 68 291 68 144 q 114 527 68 423 q 238 683 160 630 q 406 736 317 736 q 570 673 506 736 q 643 496 635 609 l 491 476 q 396 593 480 593 q 320 562 357 593 q 255 448 283 530 q 227 269 227 366 q 253 170 227 204 q 315 136 279 136 q 390 169 354 136 q 446 271 425 201 z "},"d":{"ha":696,"x_min":68,"x_max":762,"o":"m 591 0 l 440 0 l 454 78 q 367 5 409 26 q 274 -16 324 -16 q 125 59 183 -16 q 68 286 68 134 q 150 600 68 464 q 360 736 232 736 q 538 622 479 736 l 602 994 l 762 994 l 591 0 m 223 293 q 255 172 223 214 q 334 129 288 129 q 408 158 372 129 q 470 262 444 188 q 497 416 497 337 q 463 546 497 498 q 383 593 428 593 q 313 563 349 593 q 250 455 277 532 q 223 293 223 378 z "},"e":{"ha":633,"x_min":66,"x_max":631,"o":"m 621 300 l 220 300 l 220 281 q 254 165 220 209 q 335 122 288 122 q 459 222 414 122 l 602 193 q 490 36 560 88 q 334 -16 420 -16 q 142 74 218 -16 q 66 317 66 163 q 153 610 66 484 q 395 736 239 736 q 566 657 500 736 q 631 427 631 577 q 621 300 631 355 m 486 418 l 486 437 q 456 559 486 519 q 378 598 426 598 q 289 553 329 598 q 236 418 250 507 l 486 418 z "},"f":{"ha":379,"x_min":61,"x_max":536,"o":"m 457 720 l 433 578 l 320 578 l 220 0 l 61 0 l 160 578 l 71 578 l 96 720 l 184 720 l 197 794 q 234 932 214 895 q 292 990 254 970 q 380 1011 329 1011 q 536 979 454 1011 l 505 840 q 412 863 448 863 q 374 846 389 863 q 353 771 363 833 l 344 720 l 457 720 z "},"g":{"ha":696,"x_min":35,"x_max":709,"o":"m 37 -38 l 205 -68 q 227 -132 205 -111 q 292 -153 248 -153 q 361 -137 334 -153 q 403 -87 388 -120 q 433 47 418 -54 l 438 81 q 268 -3 356 -3 q 125 71 182 -3 q 69 290 69 144 q 111 533 69 429 q 218 686 152 636 q 353 736 284 736 q 459 700 410 736 q 537 593 509 663 l 559 720 l 709 720 l 606 120 q 553 -122 576 -56 q 459 -253 521 -213 q 289 -292 397 -292 q 106 -245 162 -292 q 35 -68 35 -187 l 37 -38 m 225 310 q 260 179 225 228 q 331 142 286 142 q 404 172 368 142 q 467 273 440 203 q 493 425 493 343 q 459 552 493 505 q 380 598 425 598 q 314 569 347 598 q 253 463 281 541 q 225 310 225 385 z "},"h":{"ha":696,"x_min":47,"x_max":673,"o":"m 207 0 l 47 0 l 218 994 l 378 994 l 317 640 q 420 715 374 694 q 517 736 467 736 q 630 688 587 736 q 673 553 673 639 q 657 421 673 511 l 585 0 l 425 0 l 499 429 q 511 519 511 499 q 492 577 511 556 q 442 598 473 598 q 366 565 402 598 q 292 453 317 519 q 256 286 279 417 l 207 0 z "},"i":{"ha":317,"x_min":46,"x_max":376,"o":"m 216 994 l 376 994 l 346 818 l 186 818 l 216 994 m 170 720 l 329 720 l 205 0 l 46 0 l 170 720 z "},"j":{"ha":317,"x_min":-124,"x_max":378,"o":"m 218 994 l 378 994 l 347 818 l 187 818 l 218 994 m 170 720 l 331 720 l 226 111 q 150 -205 181 -150 q -7 -292 102 -292 q -124 -271 -70 -292 l -99 -110 q -35 -121 -61 -121 q 19 -88 0 -121 q 68 123 38 -55 l 170 720 z "},"k":{"ha":633,"x_min":43,"x_max":700,"o":"m 43 0 l 214 994 l 374 994 l 285 477 l 492 720 l 700 720 l 463 458 l 589 0 l 429 0 l 348 333 l 240 216 l 203 0 l 43 0 z "},"l":{"ha":317,"x_min":45,"x_max":375,"o":"m 45 0 l 215 994 l 375 994 l 204 0 l 45 0 z "},"m":{"ha":1013,"x_min":41,"x_max":989,"o":"m 164 720 l 315 720 l 299 633 q 484 736 387 736 q 633 610 612 736 q 722 701 665 665 q 839 736 780 736 q 949 692 908 736 q 989 568 989 648 q 974 440 989 531 l 899 0 l 739 0 l 814 440 q 828 534 828 523 q 812 582 828 565 q 770 598 797 598 q 666 526 712 598 q 605 328 629 470 l 549 0 l 389 0 l 464 435 q 477 532 477 511 q 460 581 477 563 q 418 598 444 598 q 346 565 383 598 q 288 469 309 532 q 257 331 275 432 l 200 0 l 41 0 l 164 720 z "},"n":{"ha":696,"x_min":47,"x_max":673,"o":"m 171 720 l 322 720 l 307 627 q 415 712 366 688 q 516 736 464 736 q 630 687 587 736 q 673 551 673 637 q 655 408 673 514 l 585 0 l 425 0 l 496 408 q 511 518 511 500 q 493 577 511 557 q 444 598 474 598 q 378 572 412 598 q 305 485 329 536 q 258 296 281 435 l 207 0 l 47 0 l 171 720 z "},"o":{"ha":696,"x_min":69,"x_max":682,"o":"m 69 299 q 149 600 69 476 q 406 736 238 736 q 607 651 532 736 q 682 413 682 566 q 589 109 682 234 q 345 -16 496 -16 q 146 68 222 -16 q 69 299 69 153 m 524 438 q 491 550 524 509 q 406 591 457 591 q 324 561 362 591 q 258 457 286 531 q 229 304 229 383 q 264 178 229 223 q 351 134 299 134 q 461 203 416 134 q 524 438 524 298 z "},"p":{"ha":696,"x_min":-6,"x_max":690,"o":"m 164 720 l 315 720 l 302 646 q 395 717 353 697 q 484 736 437 736 q 633 659 576 736 q 690 427 690 582 q 589 94 690 229 q 395 -16 507 -16 q 218 99 278 -16 l 153 -275 l -6 -275 l 164 720 m 260 307 q 294 176 260 222 q 373 130 328 130 q 444 160 409 130 q 506 269 478 189 q 534 432 534 348 q 502 555 534 513 q 422 598 470 598 q 350 569 385 598 q 288 464 315 540 q 260 307 260 388 z "},"q":{"ha":696,"x_min":68,"x_max":711,"o":"m 565 720 l 711 720 l 542 -275 l 382 -275 l 439 61 q 358 1 396 18 q 275 -16 320 -16 q 130 53 184 -16 q 68 283 68 134 q 113 526 68 416 q 223 686 157 636 q 361 736 288 736 q 545 607 488 736 l 565 720 m 222 286 q 254 170 222 212 q 332 128 287 128 q 406 157 370 128 q 468 261 441 186 q 495 421 495 336 q 461 548 495 503 q 383 593 427 593 q 313 562 349 593 q 249 452 277 531 q 222 286 222 373 z "},"r":{"ha":443,"x_min":37,"x_max":540,"o":"m 160 720 l 309 720 l 286 581 q 466 736 368 736 q 540 716 500 736 l 479 557 q 433 566 457 566 q 363 541 396 566 q 288 440 314 503 q 235 226 261 378 l 196 0 l 37 0 l 160 720 z "},"s":{"ha":633,"x_min":25,"x_max":628,"o":"m 25 201 l 180 231 q 231 146 200 170 q 314 122 262 122 q 394 146 363 122 q 425 201 425 170 q 412 238 425 223 q 347 273 398 252 q 169 363 203 330 q 114 503 114 417 q 186 671 114 605 q 382 736 258 736 q 628 549 594 736 l 481 517 q 357 603 455 603 q 288 584 311 603 q 264 536 264 565 q 282 494 264 511 q 376 453 296 481 q 530 374 490 412 q 587 237 587 317 q 513 56 587 127 q 317 -16 439 -16 q 25 201 77 -16 z "},"t":{"ha":379,"x_min":85,"x_max":445,"o":"m 85 576 l 110 720 l 188 720 l 208 836 l 390 970 l 347 720 l 445 720 l 420 576 l 323 576 l 271 274 q 257 180 257 193 q 269 144 257 156 q 311 133 281 133 q 363 138 321 133 l 338 -7 q 255 -16 297 -16 q 133 22 174 -16 q 93 133 93 60 q 113 286 93 167 l 163 576 l 85 576 z "},"u":{"ha":696,"x_min":80,"x_max":705,"o":"m 168 720 l 328 720 l 254 294 q 241 198 241 217 q 261 144 241 165 q 308 122 280 122 q 372 145 340 122 q 444 228 417 177 q 487 377 470 279 l 545 720 l 705 720 l 582 0 l 433 0 l 449 98 q 237 -16 351 -16 q 122 34 165 -16 q 80 171 80 83 q 99 319 80 208 l 168 720 z "},"v":{"ha":633,"x_min":85,"x_max":704,"o":"m 341 0 l 204 0 l 85 720 l 242 720 l 284 406 q 304 237 300 284 l 340 317 l 385 416 l 532 720 l 704 720 l 341 0 z "},"w":{"ha":886,"x_min":82,"x_max":958,"o":"m 663 0 l 513 0 l 484 458 l 304 0 l 156 0 l 82 720 l 224 720 l 265 237 l 449 720 l 594 720 l 614 237 l 798 720 l 958 720 l 663 0 z "},"x":{"ha":633,"x_min":-25,"x_max":697,"o":"m 317 202 l 170 0 l -25 0 l 248 369 l 98 720 l 267 720 l 353 515 l 503 720 l 697 720 l 423 347 l 572 0 l 403 0 l 317 202 z "},"y":{"ha":633,"x_min":7,"x_max":707,"o":"m 96 720 l 254 720 l 294 361 q 311 168 309 224 q 397 401 342 279 l 538 720 l 707 720 l 342 -71 q 263 -219 291 -182 q 200 -275 235 -257 q 121 -292 165 -292 q 7 -271 71 -292 l 22 -125 q 77 -136 50 -136 q 199 0 151 -136 l 96 720 z "},"z":{"ha":570,"x_min":19,"x_max":591,"o":"m 19 0 l 42 132 l 366 568 l 102 568 l 127 720 l 591 720 l 571 604 l 245 157 l 529 157 l 502 0 l 19 0 z "},"{":{"ha":443,"x_min":62,"x_max":572,"o":"m 62 278 l 91 441 q 168 464 140 444 q 217 533 195 484 q 258 696 239 581 q 299 868 279 816 q 349 949 319 920 q 422 995 378 979 q 543 1011 466 1011 l 572 1011 l 543 849 q 461 840 481 849 q 430 811 441 831 q 404 709 422 797 q 359 517 372 553 q 313 427 339 461 q 239 359 287 392 q 304 206 304 308 q 286 50 304 155 q 270 -78 270 -52 q 291 -119 270 -104 q 370 -130 308 -130 l 342 -292 l 313 -292 q 196 -276 233 -292 q 139 -227 160 -260 q 119 -140 119 -193 q 139 24 119 -82 q 157 171 157 119 q 134 250 157 218 q 62 278 115 275 z "},"|":{"ha":319,"x_min":98,"x_max":222,"o":"m 98 -292 l 98 1011 l 222 1011 l 222 -292 l 98 -292 z "},"}":{"ha":443,"x_min":-98,"x_max":412,"o":"m 383 278 q 307 255 334 275 q 257 186 279 235 q 216 24 236 138 q 175 -149 196 -96 q 125 -230 155 -201 q 53 -276 96 -259 q -68 -292 9 -292 l -98 -292 l -68 -130 q 8 -121 -12 -130 q 41 -96 28 -113 q 62 -31 54 -78 q 131 241 98 168 q 235 359 165 315 q 184 427 199 392 q 170 518 170 463 q 174 576 170 543 q 199 751 188 686 q 204 799 204 779 q 186 838 204 826 q 103 849 169 849 l 132 1011 l 161 1011 q 277 996 241 1011 q 333 944 312 981 q 355 855 355 907 q 334 696 355 810 q 316 555 316 591 q 341 467 316 497 q 412 441 360 444 l 383 278 z "},"~":{"ha":665,"x_min":37,"x_max":628,"o":"m 37 352 l 37 528 q 201 621 108 621 q 266 613 237 621 q 363 571 296 604 q 476 529 449 529 q 549 553 508 529 q 628 627 591 577 l 628 444 q 542 374 597 404 q 462 354 507 354 q 408 362 434 354 q 323 401 381 370 q 189 446 238 446 q 37 352 111 446 z "},"Ä":{"ha":822,"x_min":-13,"x_max":781,"o":"m 581 220 l 257 220 l 159 0 l -13 0 l 448 994 l 634 994 l 766 0 l 608 0 l 581 220 m 559 385 l 513 785 l 333 385 l 559 385 m 410 1248 l 546 1248 l 517 1082 l 381 1082 l 410 1248 m 644 1248 l 781 1248 l 752 1082 l 615 1082 l 644 1248 z "},"Å":{"ha":822,"x_min":-13,"x_max":766,"o":"m 581 220 l 257 220 l 159 0 l -13 0 l 448 994 l 634 994 l 766 0 l 608 0 l 581 220 m 559 385 l 513 785 l 333 385 l 559 385 m 456 1168 q 489 1262 456 1225 q 564 1299 521 1299 q 639 1262 606 1299 q 671 1168 671 1225 q 639 1075 671 1112 q 564 1038 606 1038 q 489 1075 521 1038 q 456 1168 456 1112 m 517 1168 q 531 1128 517 1144 q 564 1112 545 1112 q 597 1128 583 1112 q 611 1168 611 1144 q 597 1210 611 1194 q 564 1226 583 1226 q 531 1210 545 1226 q 517 1168 517 1193 z "},"Ç":{"ha":822,"x_min":108,"x_max":849,"o":"m 637 358 l 806 328 q 656 68 755 155 q 426 -18 557 -18 q 194 90 279 -18 q 108 411 108 197 q 170 735 108 595 q 329 943 233 875 q 538 1011 426 1011 q 750 928 665 1011 q 849 689 834 844 l 688 670 q 635 798 674 760 q 535 835 597 835 q 414 789 472 835 q 314 637 355 744 q 273 402 273 530 q 321 218 273 282 q 436 154 368 154 q 555 204 500 154 q 637 358 610 255 m 250 -281 l 276 -203 l 310 -203 q 410 -182 359 -203 q 445 -134 445 -168 q 429 -100 445 -113 q 380 -87 413 -87 q 330 -93 362 -87 l 349 -26 q 422 -14 389 -14 q 513 -44 479 -14 q 546 -125 546 -75 q 482 -237 546 -189 q 303 -284 418 -284 q 250 -281 269 -284 z "},"É":{"ha":760,"x_min":47,"x_max":821,"o":"m 47 0 l 217 994 l 821 994 l 793 828 l 357 828 l 318 602 l 740 602 l 711 436 l 290 436 l 243 166 l 711 166 l 684 0 l 47 0 m 581 1267 l 751 1267 l 570 1063 l 465 1063 l 581 1267 z "},"Ñ":{"ha":822,"x_min":51,"x_max":869,"o":"m 699 0 l 542 0 l 321 668 l 208 0 l 51 0 l 221 994 l 378 994 l 598 329 l 712 994 l 869 994 l 699 0 m 461 1075 l 391 1075 q 436 1204 408 1171 q 499 1238 464 1238 q 604 1205 530 1238 q 664 1186 648 1186 q 685 1196 676 1186 q 702 1239 694 1206 l 773 1239 q 731 1116 763 1156 q 661 1076 700 1076 q 582 1103 635 1076 q 511 1131 526 1131 q 461 1075 475 1131 z "},"Ö":{"ha":886,"x_min":100,"x_max":893,"o":"m 100 390 q 143 655 100 519 q 306 921 198 830 q 555 1011 414 1011 q 798 899 703 1011 q 893 594 893 787 q 825 271 893 419 q 656 53 757 123 q 433 -18 555 -18 q 202 84 288 -18 q 100 390 100 204 m 266 394 q 320 219 266 284 q 451 153 374 153 q 574 202 513 153 q 681 362 635 251 q 726 589 726 474 q 670 779 726 710 q 542 840 621 840 q 416 791 478 840 q 310 632 353 741 q 266 394 266 522 m 446 1248 l 582 1248 l 553 1082 l 417 1082 l 446 1248 m 680 1248 l 817 1248 l 788 1082 l 651 1082 l 680 1248 z "},"Ü":{"ha":822,"x_min":104,"x_max":871,"o":"m 217 994 l 385 994 l 292 454 l 270 324 q 267 290 267 305 q 304 191 267 227 q 405 154 341 154 q 500 179 461 154 q 563 256 540 204 q 610 450 586 308 l 703 994 l 871 994 l 778 450 q 718 206 749 284 q 593 38 671 94 q 397 -17 514 -17 q 182 65 260 -17 q 104 288 104 146 q 127 471 104 333 l 217 994 m 410 1248 l 546 1248 l 517 1082 l 381 1082 l 410 1248 m 644 1248 l 781 1248 l 752 1082 l 615 1082 l 644 1248 z "},"á":{"ha":633,"x_min":52,"x_max":608,"o":"m 271 516 l 115 532 q 212 684 143 632 q 385 736 280 736 q 550 683 492 736 q 608 542 608 630 q 603 475 608 511 q 570 283 599 440 q 547 102 547 153 q 559 0 547 55 l 405 0 q 393 81 395 39 q 312 9 358 34 q 221 -16 267 -16 q 100 41 149 -16 q 52 193 52 98 q 107 361 52 302 q 292 432 162 420 q 444 460 406 444 q 454 526 454 501 q 432 578 454 558 q 372 598 410 598 q 271 516 290 598 m 423 336 q 385 327 408 331 q 237 283 273 311 q 201 210 201 256 q 222 151 201 174 q 275 129 243 129 q 338 148 308 129 q 387 200 369 166 q 418 310 406 233 l 423 336 m 421 1015 l 592 1015 l 411 811 l 305 811 l 421 1015 z "},"à":{"ha":633,"x_min":52,"x_max":608,"o":"m 271 516 l 115 532 q 212 684 143 632 q 385 736 280 736 q 550 683 492 736 q 608 542 608 630 q 603 475 608 511 q 570 283 599 440 q 547 102 547 153 q 559 0 547 55 l 405 0 q 393 81 395 39 q 312 9 358 34 q 221 -16 267 -16 q 100 41 149 -16 q 52 193 52 98 q 107 361 52 302 q 292 432 162 420 q 444 460 406 444 q 454 526 454 501 q 432 578 454 558 q 372 598 410 598 q 271 516 290 598 m 423 336 q 385 327 408 331 q 237 283 273 311 q 201 210 201 256 q 222 151 201 174 q 275 129 243 129 q 338 148 308 129 q 387 200 369 166 q 418 310 406 233 l 423 336 m 289 1017 l 443 1017 l 514 814 l 406 814 l 289 1017 z "},"â":{"ha":633,"x_min":52,"x_max":608,"o":"m 271 516 l 115 532 q 212 684 143 632 q 385 736 280 736 q 550 683 492 736 q 608 542 608 630 q 603 475 608 511 q 570 283 599 440 q 547 102 547 153 q 559 0 547 55 l 405 0 q 393 81 395 39 q 312 9 358 34 q 221 -16 267 -16 q 100 41 149 -16 q 52 193 52 98 q 107 361 52 302 q 292 432 162 420 q 444 460 406 444 q 454 526 454 501 q 432 578 454 558 q 372 598 410 598 q 271 516 290 598 m 423 336 q 385 327 408 331 q 237 283 273 311 q 201 210 201 256 q 222 151 201 174 q 275 129 243 129 q 338 148 308 129 q 387 200 369 166 q 418 310 406 233 l 423 336 m 439 932 l 342 812 l 210 812 l 376 1016 l 525 1016 l 592 812 l 482 812 l 439 932 z "},"ä":{"ha":633,"x_min":52,"x_max":631,"o":"m 271 516 l 115 532 q 212 684 143 632 q 385 736 280 736 q 550 683 492 736 q 608 542 608 630 q 603 475 608 511 q 570 283 599 440 q 547 102 547 153 q 559 0 547 55 l 405 0 q 393 81 395 39 q 312 9 358 34 q 221 -16 267 -16 q 100 41 149 -16 q 52 193 52 98 q 107 361 52 302 q 292 432 162 420 q 444 460 406 444 q 454 526 454 501 q 432 578 454 558 q 372 598 410 598 q 271 516 290 598 m 423 336 q 385 327 408 331 q 237 283 273 311 q 201 210 201 256 q 222 151 201 174 q 275 129 243 129 q 338 148 308 129 q 387 200 369 166 q 418 310 406 233 l 423 336 m 260 996 l 397 996 l 368 829 l 232 829 l 260 996 m 494 996 l 631 996 l 603 829 l 466 829 l 494 996 z "},"ã":{"ha":633,"x_min":52,"x_max":621,"o":"m 271 516 l 115 532 q 212 684 143 632 q 385 736 280 736 q 550 683 492 736 q 608 542 608 630 q 603 475 608 511 q 570 283 599 440 q 547 102 547 153 q 559 0 547 55 l 405 0 q 393 81 395 39 q 312 9 358 34 q 221 -16 267 -16 q 100 41 149 -16 q 52 193 52 98 q 107 361 52 302 q 292 432 162 420 q 444 460 406 444 q 454 526 454 501 q 432 578 454 558 q 372 598 410 598 q 271 516 290 598 m 423 336 q 385 327 408 331 q 237 283 273 311 q 201 210 201 256 q 222 151 201 174 q 275 129 243 129 q 338 148 308 129 q 387 200 369 166 q 418 310 406 233 l 423 336 m 309 823 l 239 823 q 284 952 256 918 q 347 986 312 986 q 452 953 378 986 q 512 934 496 934 q 533 944 524 934 q 550 987 543 954 l 621 987 q 579 864 611 904 q 509 824 548 824 q 430 850 484 824 q 359 878 374 878 q 309 823 323 878 z "},"å":{"ha":633,"x_min":52,"x_max":608,"o":"m 271 516 l 115 532 q 212 684 143 632 q 385 736 280 736 q 550 683 492 736 q 608 542 608 630 q 603 475 608 511 q 570 283 599 440 q 547 102 547 153 q 559 0 547 55 l 405 0 q 393 81 395 39 q 312 9 358 34 q 221 -16 267 -16 q 100 41 149 -16 q 52 193 52 98 q 107 361 52 302 q 292 432 162 420 q 444 460 406 444 q 454 526 454 501 q 432 578 454 558 q 372 598 410 598 q 271 516 290 598 m 423 336 q 385 327 408 331 q 237 283 273 311 q 201 210 201 256 q 222 151 201 174 q 275 129 243 129 q 338 148 308 129 q 387 200 369 166 q 418 310 406 233 l 423 336 m 316 916 q 348 1010 316 972 q 423 1047 380 1047 q 498 1010 466 1047 q 531 916 531 972 q 498 823 531 860 q 423 785 466 785 q 348 823 380 785 q 316 916 316 860 m 376 916 q 391 876 376 892 q 423 859 405 859 q 456 876 442 859 q 471 916 471 892 q 456 958 471 941 q 423 974 442 974 q 391 957 405 974 q 376 916 376 941 z "},"ç":{"ha":633,"x_min":68,"x_max":643,"o":"m 446 271 l 601 241 q 487 48 562 112 q 314 -16 411 -16 q 136 64 204 -16 q 68 291 68 144 q 114 527 68 423 q 238 683 160 630 q 406 736 317 736 q 570 673 506 736 q 643 496 635 609 l 491 476 q 396 593 480 593 q 320 562 357 593 q 255 448 283 530 q 227 269 227 366 q 253 170 227 204 q 315 136 279 136 q 390 169 354 136 q 446 271 425 201 m 132 -280 l 159 -201 l 193 -202 q 293 -181 242 -202 q 328 -133 328 -167 q 312 -98 328 -111 q 263 -85 296 -85 q 213 -92 245 -85 l 232 -24 q 304 -12 272 -12 q 395 -43 362 -12 q 429 -124 429 -74 q 365 -235 429 -188 q 186 -283 301 -283 q 132 -280 151 -283 z "},"é":{"ha":633,"x_min":66,"x_max":631,"o":"m 621 300 l 220 300 l 220 281 q 254 165 220 209 q 335 122 288 122 q 459 222 414 122 l 602 193 q 490 36 560 88 q 334 -16 420 -16 q 142 74 218 -16 q 66 317 66 163 q 153 610 66 484 q 395 736 239 736 q 566 657 500 736 q 631 427 631 577 q 621 300 631 355 m 486 418 l 486 437 q 456 559 486 519 q 378 598 426 598 q 289 553 329 598 q 236 418 250 507 l 486 418 m 414 1015 l 585 1015 l 404 811 l 298 811 l 414 1015 z "},"è":{"ha":633,"x_min":66,"x_max":631,"o":"m 621 300 l 220 300 l 220 281 q 254 165 220 209 q 335 122 288 122 q 459 222 414 122 l 602 193 q 490 36 560 88 q 334 -16 420 -16 q 142 74 218 -16 q 66 317 66 163 q 153 610 66 484 q 395 736 239 736 q 566 657 500 736 q 631 427 631 577 q 621 300 631 355 m 486 418 l 486 437 q 456 559 486 519 q 378 598 426 598 q 289 553 329 598 q 236 418 250 507 l 486 418 m 282 1017 l 436 1017 l 507 814 l 399 814 l 282 1017 z "},"ê":{"ha":633,"x_min":66,"x_max":631,"o":"m 621 300 l 220 300 l 220 281 q 254 165 220 209 q 335 122 288 122 q 459 222 414 122 l 602 193 q 490 36 560 88 q 334 -16 420 -16 q 142 74 218 -16 q 66 317 66 163 q 153 610 66 484 q 395 736 239 736 q 566 657 500 736 q 631 427 631 577 q 621 300 631 355 m 486 418 l 486 437 q 456 559 486 519 q 378 598 426 598 q 289 553 329 598 q 236 418 250 507 l 486 418 m 439 932 l 341 812 l 210 812 l 375 1016 l 524 1016 l 591 812 l 481 812 l 439 932 z "},"ë":{"ha":633,"x_min":66,"x_max":631,"o":"m 621 300 l 220 300 l 220 281 q 254 165 220 209 q 335 122 288 122 q 459 222 414 122 l 602 193 q 490 36 560 88 q 334 -16 420 -16 q 142 74 218 -16 q 66 317 66 163 q 153 610 66 484 q 395 736 239 736 q 566 657 500 736 q 631 427 631 577 q 621 300 631 355 m 486 418 l 486 437 q 456 559 486 519 q 378 598 426 598 q 289 553 329 598 q 236 418 250 507 l 486 418 m 239 996 l 376 996 l 347 829 l 211 829 l 239 996 m 473 996 l 610 996 l 582 829 l 445 829 l 473 996 z "},"í":{"ha":317,"x_min":46,"x_max":444,"o":"m 170 720 l 329 720 l 205 0 l 46 0 l 170 720 m 273 1015 l 444 1015 l 262 811 l 157 811 l 273 1015 z "},"ì":{"ha":317,"x_min":46,"x_max":359,"o":"m 170 720 l 329 720 l 205 0 l 46 0 l 170 720 m 134 1017 l 288 1017 l 359 814 l 251 814 l 134 1017 z "},"î":{"ha":317,"x_min":46,"x_max":444,"o":"m 170 720 l 329 720 l 205 0 l 46 0 l 170 720 m 291 932 l 193 812 l 62 812 l 227 1016 l 376 1016 l 444 812 l 334 812 l 291 932 z "},"ï":{"ha":317,"x_min":46,"x_max":476,"o":"m 170 720 l 329 720 l 205 0 l 46 0 l 170 720 m 105 996 l 241 996 l 213 829 l 77 829 l 105 996 m 339 996 l 476 996 l 448 829 l 311 829 l 339 996 z "},"ñ":{"ha":696,"x_min":47,"x_max":673,"o":"m 171 720 l 322 720 l 307 627 q 415 712 366 688 q 516 736 464 736 q 630 687 587 736 q 673 551 673 637 q 655 408 673 514 l 585 0 l 425 0 l 496 408 q 511 518 511 500 q 493 577 511 557 q 444 598 474 598 q 378 572 412 598 q 305 485 329 536 q 258 296 281 435 l 207 0 l 47 0 l 171 720 m 338 823 l 267 823 q 313 952 285 918 q 376 986 340 986 q 481 953 406 986 q 541 934 524 934 q 562 944 553 934 q 578 987 571 954 l 650 987 q 608 864 640 904 q 538 824 576 824 q 458 850 512 824 q 387 878 402 878 q 338 823 352 878 z "},"ó":{"ha":696,"x_min":69,"x_max":682,"o":"m 69 299 q 149 600 69 476 q 406 736 238 736 q 607 651 532 736 q 682 413 682 566 q 589 109 682 234 q 345 -16 496 -16 q 146 68 222 -16 q 69 299 69 153 m 524 438 q 491 550 524 509 q 406 591 457 591 q 324 561 362 591 q 258 457 286 531 q 229 304 229 383 q 264 178 229 223 q 351 134 299 134 q 461 203 416 134 q 524 438 524 298 m 440 1015 l 611 1015 l 430 811 l 324 811 l 440 1015 z "},"ò":{"ha":696,"x_min":69,"x_max":682,"o":"m 69 299 q 149 600 69 476 q 406 736 238 736 q 607 651 532 736 q 682 413 682 566 q 589 109 682 234 q 345 -16 496 -16 q 146 68 222 -16 q 69 299 69 153 m 524 438 q 491 550 524 509 q 406 591 457 591 q 324 561 362 591 q 258 457 286 531 q 229 304 229 383 q 264 178 229 223 q 351 134 299 134 q 461 203 416 134 q 524 438 524 298 m 309 1017 l 463 1017 l 534 814 l 425 814 l 309 1017 z "},"ô":{"ha":696,"x_min":69,"x_max":682,"o":"m 69 299 q 149 600 69 476 q 406 736 238 736 q 607 651 532 736 q 682 413 682 566 q 589 109 682 234 q 345 -16 496 -16 q 146 68 222 -16 q 69 299 69 153 m 524 438 q 491 550 524 509 q 406 591 457 591 q 324 561 362 591 q 258 457 286 531 q 229 304 229 383 q 264 178 229 223 q 351 134 299 134 q 461 203 416 134 q 524 438 524 298 m 466 932 l 368 812 l 237 812 l 402 1016 l 551 1016 l 618 812 l 509 812 l 466 932 z "},"ö":{"ha":696,"x_min":69,"x_max":682,"o":"m 69 299 q 149 600 69 476 q 406 736 238 736 q 607 651 532 736 q 682 413 682 566 q 589 109 682 234 q 345 -16 496 -16 q 146 68 222 -16 q 69 299 69 153 m 524 438 q 491 550 524 509 q 406 591 457 591 q 324 561 362 591 q 258 457 286 531 q 229 304 229 383 q 264 178 229 223 q 351 134 299 134 q 461 203 416 134 q 524 438 524 298 m 267 996 l 403 996 l 374 829 l 238 829 l 267 996 m 500 996 l 637 996 l 609 829 l 472 829 l 500 996 z "},"õ":{"ha":696,"x_min":69,"x_max":682,"o":"m 69 299 q 149 600 69 476 q 406 736 238 736 q 607 651 532 736 q 682 413 682 566 q 589 109 682 234 q 345 -16 496 -16 q 146 68 222 -16 q 69 299 69 153 m 524 438 q 491 550 524 509 q 406 591 457 591 q 324 561 362 591 q 258 457 286 531 q 229 304 229 383 q 264 178 229 223 q 351 134 299 134 q 461 203 416 134 q 524 438 524 298 m 315 823 l 245 823 q 290 952 262 918 q 353 986 318 986 q 458 953 384 986 q 518 934 502 934 q 539 944 530 934 q 556 987 549 954 l 627 987 q 586 864 617 904 q 515 824 554 824 q 436 850 490 824 q 365 878 380 878 q 315 823 330 878 z "},"ú":{"ha":696,"x_min":80,"x_max":705,"o":"m 168 720 l 328 720 l 254 294 q 241 198 241 217 q 261 144 241 165 q 308 122 280 122 q 372 145 340 122 q 444 228 417 177 q 487 377 470 279 l 545 720 l 705 720 l 582 0 l 433 0 l 449 98 q 237 -16 351 -16 q 122 34 165 -16 q 80 171 80 83 q 99 319 80 208 l 168 720 m 467 1015 l 637 1015 l 456 811 l 351 811 l 467 1015 z "},"ù":{"ha":696,"x_min":80,"x_max":705,"o":"m 168 720 l 328 720 l 254 294 q 241 198 241 217 q 261 144 241 165 q 308 122 280 122 q 372 145 340 122 q 444 228 417 177 q 487 377 470 279 l 545 720 l 705 720 l 582 0 l 433 0 l 449 98 q 237 -16 351 -16 q 122 34 165 -16 q 80 171 80 83 q 99 319 80 208 l 168 720 m 328 1017 l 482 1017 l 553 814 l 445 814 l 328 1017 z "},"û":{"ha":696,"x_min":80,"x_max":705,"o":"m 168 720 l 328 720 l 254 294 q 241 198 241 217 q 261 144 241 165 q 308 122 280 122 q 372 145 340 122 q 444 228 417 177 q 487 377 470 279 l 545 720 l 705 720 l 582 0 l 433 0 l 449 98 q 237 -16 351 -16 q 122 34 165 -16 q 80 171 80 83 q 99 319 80 208 l 168 720 m 471 932 l 374 812 l 242 812 l 408 1016 l 557 1016 l 624 812 l 514 812 l 471 932 z "},"ü":{"ha":696,"x_min":80,"x_max":705,"o":"m 168 720 l 328 720 l 254 294 q 241 198 241 217 q 261 144 241 165 q 308 122 280 122 q 372 145 340 122 q 444 228 417 177 q 487 377 470 279 l 545 720 l 705 720 l 582 0 l 433 0 l 449 98 q 237 -16 351 -16 q 122 34 165 -16 q 80 171 80 83 q 99 319 80 208 l 168 720 m 299 996 l 435 996 l 407 829 l 271 829 l 299 996 m 533 996 l 670 996 l 642 829 l 505 829 l 533 996 z "},"†":{"ha":633,"x_min":96,"x_max":677,"o":"m 452 563 l 315 -237 l 164 -237 l 302 563 l 96 563 l 122 714 l 328 714 l 373 981 l 524 981 l 477 714 l 677 714 l 651 563 l 452 563 z "},"°":{"ha":555,"x_min":58,"x_max":491,"o":"m 58 795 q 122 948 58 885 q 275 1011 185 1011 q 428 948 364 1011 q 491 795 491 884 q 428 642 491 705 q 275 578 364 578 q 122 642 185 578 q 58 795 58 705 m 171 795 q 201 722 171 752 q 275 691 232 691 q 348 722 317 691 q 378 795 378 752 q 348 868 378 838 q 275 899 317 899 q 201 868 232 899 q 171 795 171 838 z "},"¢":{"ha":633,"x_min":67,"x_max":642,"o":"m 193 12 q 103 116 138 43 q 67 292 67 188 q 114 529 67 427 q 237 684 160 631 q 404 736 315 736 l 437 735 l 523 991 l 591 958 l 509 715 q 602 630 566 687 q 642 496 637 573 l 500 478 q 463 578 496 543 l 312 130 l 321 130 q 453 271 406 130 l 600 243 q 488 50 564 116 q 317 -17 412 -17 q 264 -12 293 -17 l 178 -268 l 110 -235 l 193 12 m 245 165 l 393 606 q 311 568 349 603 q 245 452 273 533 q 217 274 217 371 q 245 165 217 201 z "},"£":{"ha":633,"x_min":24,"x_max":696,"o":"m 186 570 q 176 682 176 627 q 257 920 176 829 q 454 1011 337 1011 q 623 940 557 1011 q 696 743 688 869 l 553 726 q 448 861 534 861 q 360 810 398 861 q 323 668 323 760 q 331 570 323 631 l 472 570 l 446 418 l 338 418 q 308 280 334 340 q 220 151 282 220 q 302 172 261 172 q 357 165 323 172 q 432 154 404 154 q 559 190 493 154 l 606 24 q 525 -9 557 -1 q 457 -17 492 -17 q 334 5 403 -17 q 204 33 252 33 q 41 -25 127 33 l 24 151 q 141 259 93 187 q 198 418 190 331 l 71 418 l 96 570 l 186 570 z "},"§":{"ha":633,"x_min":25,"x_max":638,"o":"m 25 -59 l 170 -19 q 214 -124 185 -94 q 286 -155 243 -155 q 342 -135 322 -155 q 363 -80 363 -114 q 345 -22 363 -53 q 202 154 326 9 q 102 296 126 243 q 78 406 78 349 q 113 541 78 480 q 227 653 148 602 q 193 782 193 719 q 222 902 193 848 q 300 983 250 956 q 417 1011 350 1011 q 638 780 615 1011 l 494 763 q 411 877 488 877 q 358 854 378 877 q 338 791 338 831 q 352 733 338 761 q 433 632 367 705 q 578 447 547 507 q 608 320 608 386 q 570 185 608 249 q 463 80 532 122 q 510 -71 510 1 q 447 -231 510 -168 q 283 -294 384 -294 q 113 -232 182 -294 q 25 -59 43 -170 m 291 555 q 232 495 248 524 q 216 431 216 467 q 237 364 216 397 q 330 249 248 345 l 393 175 q 455 227 429 192 q 473 285 473 252 q 460 340 473 311 q 400 423 446 369 q 291 555 298 545 z "},"•":{"ha":399,"x_min":37,"x_max":366,"o":"m 366 491 q 316 348 366 405 q 201 290 267 290 q 86 348 136 290 q 37 491 37 405 q 86 634 37 577 q 201 691 136 691 q 316 634 267 691 q 366 491 366 577 z "},"¶":{"ha":633,"x_min":-1,"x_max":628,"o":"m 353 -273 l 218 -273 l 218 437 q 58 517 117 446 q -1 713 -1 588 q 25 852 -1 792 q 90 943 51 913 q 174 986 128 973 q 296 994 205 994 l 628 994 l 628 817 l 565 817 l 565 -273 l 433 -273 l 433 817 l 353 817 l 353 -273 z "},"ß":{"ha":696,"x_min":40,"x_max":662,"o":"m 199 0 l 40 0 l 152 652 q 214 876 180 814 q 312 975 249 939 q 457 1011 374 1011 q 608 960 554 1011 q 662 822 662 909 q 648 747 662 783 q 597 655 635 710 q 546 575 555 596 q 537 537 537 555 q 545 503 537 521 q 595 412 555 477 q 650 307 637 344 q 662 228 662 270 q 605 56 662 127 q 456 -16 549 -16 q 345 19 399 -16 q 254 115 290 54 l 367 193 q 400 153 385 163 q 435 142 416 142 q 482 164 463 142 q 502 223 502 186 q 494 266 502 245 q 458 331 487 286 q 393 447 408 406 q 378 521 378 487 q 391 589 378 553 q 454 708 404 626 q 487 769 481 751 q 493 804 493 786 q 478 849 493 833 q 438 866 463 866 q 355 808 389 866 q 306 621 331 766 l 199 0 z "},"®":{"ha":839,"x_min":-5,"x_max":846,"o":"m 420 1015 q 626 950 529 1015 q 785 763 724 886 q 846 495 846 641 q 785 227 846 349 q 626 40 724 104 q 420 -24 528 -24 q 215 40 313 -24 q 56 227 117 104 q -5 495 -5 349 q 56 763 -5 641 q 215 950 117 886 q 420 1015 313 1015 m 421 913 q 256 861 334 913 q 129 711 178 810 q 79 495 79 612 q 129 279 79 378 q 256 129 178 180 q 421 77 335 77 q 586 129 508 77 q 714 279 665 180 q 764 495 764 378 q 714 711 764 612 q 586 861 665 810 q 421 913 508 913 m 228 217 l 228 768 l 320 768 q 483 765 458 768 q 564 717 532 757 q 595 614 595 677 q 562 509 595 551 q 473 458 528 468 q 518 421 500 446 q 569 328 536 396 l 622 217 l 509 217 l 471 307 q 408 420 433 397 q 344 444 382 444 l 320 444 l 320 217 l 228 217 m 320 530 l 357 530 q 449 536 432 530 q 484 561 471 542 q 497 606 497 580 q 484 651 497 633 q 448 675 471 669 q 357 681 431 681 l 320 681 l 320 530 z "},"©":{"ha":839,"x_min":-5,"x_max":846,"o":"m 420 1015 q 626 950 529 1015 q 785 763 724 886 q 846 495 846 641 q 785 227 846 349 q 626 40 724 104 q 420 -24 528 -24 q 215 40 313 -24 q 56 227 117 104 q -5 495 -5 349 q 56 763 -5 641 q 215 950 117 886 q 420 1015 313 1015 m 420 912 q 255 861 334 912 q 128 711 177 809 q 79 495 79 612 q 128 279 79 378 q 255 130 177 181 q 420 78 334 78 q 586 130 507 78 q 713 279 664 181 q 763 495 763 378 q 713 711 763 612 q 586 861 664 809 q 420 912 507 912 m 524 418 l 614 381 q 543 249 592 293 q 427 205 493 205 q 273 279 335 205 q 212 491 212 353 q 272 708 212 633 q 428 783 333 783 q 614 618 564 783 l 524 592 q 425 686 495 686 q 342 640 375 686 q 309 496 309 594 q 341 349 309 396 q 415 302 373 302 q 524 418 497 302 z "},"™":{"ha":1139,"x_min":120,"x_max":999,"o":"m 261 439 l 261 898 l 120 898 l 120 994 l 490 994 l 490 898 l 353 898 l 353 439 l 261 439 m 545 439 l 545 994 l 689 994 l 772 612 l 855 994 l 999 994 l 999 439 l 911 439 l 911 882 l 813 439 l 729 439 l 632 882 l 632 439 l 545 439 z "},"´":{"ha":379,"x_min":209,"x_max":496,"o":"m 325 1015 l 496 1015 l 315 811 l 209 811 l 325 1015 z "},"¨":{"ha":379,"x_min":96,"x_max":496,"o":"m 125 996 l 261 996 l 233 829 l 96 829 l 125 996 m 359 996 l 496 996 l 467 829 l 330 829 l 359 996 z "},"≠":{"ha":762,"x_min":33,"x_max":728,"o":"m 286 428 l 332 553 l 33 553 l 33 728 l 397 728 l 498 998 l 641 998 l 541 728 l 728 728 l 728 553 l 475 553 l 428 428 l 728 428 l 728 252 l 362 252 l 261 -17 l 121 -17 l 221 252 l 33 252 l 33 428 l 286 428 z "},"Æ":{"ha":1139,"x_min":-37,"x_max":1206,"o":"m 523 249 l 252 249 l 136 0 l -37 0 l 437 994 l 1206 994 l 1178 828 l 779 828 l 740 601 l 1123 601 l 1095 435 l 711 435 l 665 166 l 1095 166 l 1067 0 l 480 0 l 523 249 m 551 415 l 623 828 l 523 828 l 330 415 l 551 415 z "},"Ø":{"ha":886,"x_min":89,"x_max":896,"o":"m 172 117 q 96 393 96 231 q 139 654 96 517 q 302 921 194 830 q 551 1011 410 1011 q 742 951 666 1011 l 820 1065 l 896 987 l 816 870 q 889 593 889 760 q 821 272 889 419 q 652 54 753 124 q 433 -17 551 -17 q 249 37 321 -17 l 168 -83 l 89 -5 l 172 117 m 282 277 l 641 803 q 538 840 596 840 q 412 791 474 840 q 306 633 350 743 q 262 400 262 524 q 282 277 262 336 m 704 705 l 349 184 q 450 147 395 147 q 573 197 511 147 q 680 359 635 247 q 726 592 726 472 q 704 705 726 646 z "},"∞":{"ha":990,"x_min":103,"x_max":889,"o":"m 462 572 q 564 690 512 654 q 681 726 616 726 q 830 663 770 726 q 889 490 889 600 q 830 316 889 380 q 681 253 770 253 q 565 289 617 253 q 462 408 513 325 q 368 321 421 351 q 267 291 315 291 q 151 344 199 291 q 103 490 103 397 q 151 635 103 582 q 267 688 199 688 q 368 658 315 688 q 462 572 421 628 m 525 491 q 605 384 582 404 q 683 353 641 353 q 762 393 734 353 q 790 492 790 433 q 760 591 790 556 q 685 627 729 627 q 615 602 650 627 q 525 491 581 578 m 404 492 q 275 588 336 588 q 221 563 243 588 q 198 493 198 538 q 220 421 198 447 q 275 395 243 395 q 322 410 301 395 q 404 492 359 434 z "},"±":{"ha":762,"x_min":34,"x_max":729,"o":"m 294 241 l 294 500 l 34 500 l 34 678 l 294 678 l 294 937 l 468 937 l 468 678 l 729 678 l 729 500 l 468 500 l 468 241 l 294 241 m 34 0 l 34 178 l 729 178 l 729 0 l 34 0 z "},"≤":{"ha":762,"x_min":41,"x_max":722,"o":"m 722 228 l 41 524 l 41 688 l 722 983 l 722 790 l 247 608 l 722 419 l 722 228 m 41 0 l 41 178 l 722 178 l 722 0 l 41 0 z "},"≥":{"ha":762,"x_min":41,"x_max":722,"o":"m 41 229 l 41 420 l 517 608 l 41 793 l 41 983 l 722 689 l 722 526 l 41 229 m 41 0 l 41 178 l 722 178 l 722 0 l 41 0 z "},"¥":{"ha":633,"x_min":28,"x_max":760,"o":"m 360 0 l 203 0 l 236 194 l 28 194 l 50 314 l 256 314 l 273 411 l 66 411 l 86 531 l 239 531 l 125 994 l 287 994 l 326 819 q 370 569 342 746 q 507 862 441 738 l 578 994 l 760 994 l 498 531 l 656 531 l 635 411 l 431 411 l 414 314 l 619 314 l 599 194 l 393 194 l 360 0 z "},"µ":{"ha":800,"x_min":-52,"x_max":812,"o":"m 159 720 l 354 720 l 285 387 l 267 305 q 263 252 263 277 q 295 162 263 196 q 374 128 328 128 q 470 171 428 128 q 540 343 512 213 l 619 720 l 812 720 l 660 0 l 486 0 l 500 67 q 418 -2 447 12 q 355 -17 389 -17 q 278 4 310 -17 q 218 77 247 25 l 143 -279 l -52 -279 l 159 720 z "},"∂":{"ha":686,"x_min":30,"x_max":663,"o":"m 257 762 l 164 819 q 266 963 199 915 q 415 1011 333 1011 q 574 943 513 1011 q 663 640 663 845 q 606 296 663 463 q 450 57 550 130 q 241 -17 351 -17 q 89 45 147 -17 q 30 223 30 108 q 89 429 30 330 q 269 585 148 527 q 560 639 391 642 q 510 840 559 774 q 412 888 473 888 q 330 861 365 888 q 257 762 295 834 m 552 514 q 522 515 532 515 q 349 477 429 515 q 227 370 269 439 q 185 229 185 300 q 214 144 185 176 q 281 112 242 112 q 428 190 361 112 q 552 514 524 302 z "},"∑":{"ha":990,"x_min":83,"x_max":940,"o":"m 94 1011 l 933 1011 l 933 900 l 263 900 l 675 374 l 235 -183 l 940 -183 l 940 -292 l 83 -292 l 83 -165 l 503 369 l 94 892 l 94 1011 z "},"∏":{"ha":1143,"x_min":109,"x_max":1033,"o":"m 109 1011 l 1033 1011 l 1033 -292 l 903 -292 l 903 893 l 240 893 l 240 -292 l 109 -292 l 109 1011 z "},"∫":{"ha":380,"x_min":-2,"x_max":378,"o":"m 134 607 l 146 1001 q 180 1174 151 1105 q 230 1241 198 1219 q 293 1263 262 1263 q 352 1241 327 1263 q 378 1191 378 1218 q 360 1140 378 1159 q 315 1120 342 1120 q 264 1145 292 1120 q 237 1158 248 1158 q 217 1148 225 1158 q 210 1115 210 1139 q 216 1017 210 1087 q 241 567 241 738 l 230 167 q 169 -104 224 -33 q 78 -149 132 -149 q 20 -126 43 -149 q -2 -67 -2 -103 q 15 -18 -2 -37 q 59 0 33 0 q 106 -22 86 0 q 139 -43 125 -43 q 158 -34 151 -43 q 165 -2 165 -24 q 159 79 165 26 q 142 309 148 176 q 134 607 134 477 z "},"ª":{"ha":421,"x_min":93,"x_max":469,"o":"m 237 850 l 130 867 q 317 1011 179 1011 q 430 975 392 1011 q 469 877 469 939 q 445 718 469 829 q 422 585 422 612 q 434 515 422 550 l 329 515 q 321 547 323 530 q 212 504 271 504 q 126 542 159 504 q 93 642 93 579 q 121 736 93 700 q 202 788 149 773 q 353 811 231 796 q 361 866 361 846 q 349 895 361 884 q 312 905 336 905 q 237 850 262 905 m 329 715 q 223 689 244 703 q 202 647 202 674 q 214 614 202 627 q 245 602 227 602 q 295 625 275 602 q 329 715 316 648 z "},"º":{"ha":415,"x_min":82,"x_max":472,"o":"m 82 712 q 142 923 82 834 q 296 1011 203 1011 q 422 955 372 1011 q 472 803 472 898 q 439 646 472 722 q 359 537 406 570 q 254 503 313 503 q 131 559 179 503 q 82 712 82 616 m 195 696 q 212 638 195 659 q 255 618 229 618 q 328 682 298 618 q 358 820 358 746 q 341 878 358 858 q 298 898 325 898 q 224 835 254 898 q 195 696 195 772 z "},"Ω":{"ha":1067,"x_min":37,"x_max":1038,"o":"m 313 140 q 188 216 235 173 q 86 362 119 277 q 52 550 52 448 q 182 890 52 760 q 527 1019 312 1019 q 791 966 685 1019 q 961 800 897 912 q 1024 551 1024 688 q 961 307 1024 414 q 765 141 897 199 l 989 157 l 1038 157 l 1038 0 l 602 0 l 602 165 q 706 236 668 197 q 784 368 758 290 q 810 532 810 446 q 732 785 810 699 q 534 871 654 871 q 341 783 418 871 q 263 535 263 695 q 293 363 263 443 q 377 229 322 284 q 475 165 412 194 l 475 0 l 37 0 l 37 156 l 104 156 l 313 140 z "},"æ":{"ha":1013,"x_min":35,"x_max":986,"o":"m 975 298 l 569 298 q 607 174 571 218 q 692 129 643 129 q 814 222 771 129 l 958 195 q 839 35 909 86 q 685 -16 768 -16 q 465 151 529 -16 q 221 -16 363 -16 q 87 40 139 -16 q 35 195 35 96 q 62 319 35 269 q 135 396 90 370 q 288 433 181 422 q 439 462 405 446 q 443 500 443 484 q 420 574 443 550 q 354 598 397 598 q 289 579 313 598 q 253 514 265 560 l 100 533 q 192 683 123 629 q 367 736 261 736 q 484 714 441 736 q 550 647 527 692 q 746 736 626 736 q 919 656 851 736 q 986 429 986 576 q 975 298 986 364 m 841 417 l 842 439 q 811 558 842 517 q 734 598 781 598 q 640 553 683 598 q 581 417 597 507 l 841 417 m 418 340 q 225 289 271 320 q 179 212 179 258 q 200 154 179 177 q 255 131 222 131 q 347 178 307 131 q 418 340 401 241 z "},"ø":{"ha":696,"x_min":60,"x_max":688,"o":"m 557 696 l 626 793 l 688 730 l 619 633 q 680 413 680 548 q 587 109 680 235 q 343 -16 494 -16 q 190 26 258 -16 l 120 -73 l 60 -7 l 127 88 q 67 308 67 176 q 114 537 67 434 q 234 688 161 640 q 404 736 307 736 q 557 696 494 736 m 470 573 q 401 596 439 596 q 323 568 357 596 q 248 453 279 532 q 216 291 216 374 q 224 225 216 256 l 470 573 m 521 494 l 275 146 q 344 125 306 125 q 429 157 389 125 q 500 267 469 189 q 530 428 530 345 q 521 494 530 459 z "},"¿":{"ha":696,"x_min":31,"x_max":595,"o":"m 505 532 l 348 532 l 380 720 l 538 720 l 505 532 m 345 472 l 489 472 q 441 313 477 380 q 301 135 406 247 q 198 13 216 45 q 180 -50 180 -18 q 208 -121 180 -94 q 290 -148 237 -148 q 391 -107 351 -148 q 448 25 431 -67 l 595 -6 q 483 -217 566 -142 q 288 -291 401 -291 q 102 -221 173 -291 q 31 -42 31 -151 q 62 83 31 24 q 218 268 94 142 q 318 382 298 350 q 345 472 337 415 z "},"¡":{"ha":379,"x_min":14,"x_max":347,"o":"m 315 532 l 157 532 l 189 720 l 347 720 l 315 532 m 185 467 l 273 467 l 221 -41 l 181 -274 l 14 -274 l 56 -23 l 185 467 z "},"¬":{"ha":665,"x_min":47,"x_max":617,"o":"m 474 255 l 474 554 l 47 554 l 47 728 l 617 728 l 617 255 l 474 255 z "},"√":{"ha":762,"x_min":57,"x_max":762,"o":"m 712 1267 l 762 1267 l 551 -53 l 214 640 l 80 578 l 57 621 l 261 724 l 536 165 l 712 1267 z "},"ƒ":{"ha":633,"x_min":-11,"x_max":635,"o":"m 153 577 l 174 720 l 286 720 l 295 781 q 321 909 311 880 q 378 986 339 961 q 486 1011 416 1011 q 635 983 562 1011 l 606 830 q 517 849 553 849 q 473 833 488 849 q 449 758 458 817 l 443 720 l 558 720 l 538 577 l 424 577 l 328 -86 q 279 -237 313 -195 q 147 -292 237 -292 q -11 -265 58 -292 l 21 -115 q 114 -131 81 -131 q 160 -109 148 -131 q 183 -15 173 -87 l 266 577 l 153 577 z "},"≈":{"ha":762,"x_min":21,"x_max":741,"o":"m 21 516 l 21 691 q 222 785 107 785 q 300 776 264 785 q 413 736 336 768 q 514 699 490 706 q 556 692 538 692 q 644 716 594 692 q 741 791 694 739 l 741 608 q 654 546 710 575 q 538 517 598 517 q 472 526 505 517 q 370 564 440 534 q 206 610 266 610 q 21 516 111 610 m 21 187 l 21 363 q 222 456 107 456 q 300 447 264 456 q 413 408 336 439 q 514 371 490 378 q 556 364 538 364 q 644 388 594 364 q 741 462 694 411 l 741 279 q 654 217 710 246 q 538 189 598 189 q 472 197 505 189 q 370 236 440 205 q 206 281 266 281 q 21 187 111 281 z "},"∆":{"ha":850,"x_min":18,"x_max":831,"o":"m 831 0 l 18 0 l 444 941 l 831 0 m 671 56 l 401 711 l 102 56 l 671 56 z "},"«":{"ha":633,"x_min":60,"x_max":640,"o":"m 288 375 l 504 663 l 640 663 l 444 360 l 513 48 l 399 48 l 288 375 m 60 374 l 290 663 l 423 663 l 222 361 l 296 48 l 184 48 l 60 374 z "},"»":{"ha":633,"x_min":26,"x_max":605,"o":"m 378 336 l 161 48 l 26 48 l 222 351 l 152 663 l 267 663 l 378 336 m 605 337 l 376 48 l 242 48 l 443 350 l 369 663 l 481 663 l 605 337 z "},"…":{"ha":1139,"x_min":106,"x_max":1034,"o":"m 138 188 l 296 188 l 263 0 l 106 0 l 138 188 m 507 188 l 665 188 l 632 0 l 475 0 l 507 188 m 876 188 l 1034 188 l 1001 0 l 844 0 l 876 188 z "},"À":{"ha":822,"x_min":-13,"x_max":766,"o":"m 581 220 l 257 220 l 159 0 l -13 0 l 448 994 l 634 994 l 766 0 l 608 0 l 581 220 m 559 385 l 513 785 l 333 385 l 559 385 m 437 1269 l 591 1269 l 662 1066 l 553 1066 l 437 1269 z "},"Ã":{"ha":822,"x_min":-13,"x_max":773,"o":"m 581 220 l 257 220 l 159 0 l -13 0 l 448 994 l 634 994 l 766 0 l 608 0 l 581 220 m 559 385 l 513 785 l 333 385 l 559 385 m 461 1075 l 391 1075 q 436 1204 408 1171 q 499 1238 464 1238 q 604 1205 530 1238 q 664 1186 648 1186 q 685 1196 676 1186 q 702 1239 694 1206 l 773 1239 q 731 1116 763 1156 q 661 1076 700 1076 q 582 1103 635 1076 q 511 1131 526 1131 q 461 1075 475 1131 z "},"Õ":{"ha":886,"x_min":100,"x_max":893,"o":"m 100 390 q 143 655 100 519 q 306 921 198 830 q 555 1011 414 1011 q 798 899 703 1011 q 893 594 893 787 q 825 271 893 419 q 656 53 757 123 q 433 -18 555 -18 q 202 84 288 -18 q 100 390 100 204 m 266 394 q 320 219 266 284 q 451 153 374 153 q 574 202 513 153 q 681 362 635 251 q 726 589 726 474 q 670 779 726 710 q 542 840 621 840 q 416 791 478 840 q 310 632 353 741 q 266 394 266 522 m 497 1075 l 427 1075 q 472 1204 444 1171 q 535 1238 500 1238 q 640 1205 566 1238 q 700 1186 684 1186 q 721 1196 712 1186 q 738 1239 730 1206 l 809 1239 q 767 1116 799 1156 q 697 1076 736 1076 q 618 1103 671 1076 q 547 1131 562 1131 q 497 1075 511 1131 z "},"Œ":{"ha":1139,"x_min":79,"x_max":1229,"o":"m 699 994 l 1229 994 l 1200 828 l 829 828 l 791 606 l 1151 606 l 1124 440 l 763 440 l 716 166 l 1124 166 l 1095 0 l 528 0 l 542 80 q 463 5 505 28 q 366 -17 421 -17 q 162 90 245 -17 q 79 388 79 196 q 114 651 79 527 q 209 855 150 775 q 342 973 269 935 q 484 1011 415 1011 q 600 977 548 1011 q 680 883 652 943 l 699 994 m 229 367 q 275 205 229 262 q 393 148 322 148 q 476 171 438 148 q 545 249 514 195 q 602 434 576 303 q 629 654 629 566 q 587 796 629 745 q 481 847 545 847 q 367 800 422 847 q 270 630 311 752 q 229 367 229 507 z "},"œ":{"ha":1075,"x_min":66,"x_max":1075,"o":"m 1061 298 l 663 298 q 695 168 661 212 q 776 122 729 122 q 902 223 859 122 l 1044 193 q 926 32 993 81 q 776 -16 859 -16 q 659 11 710 -16 q 570 91 608 37 q 469 11 526 37 q 342 -16 412 -16 q 200 21 262 -16 q 102 133 138 58 q 66 307 66 208 q 118 551 66 435 q 233 688 157 639 q 409 736 309 736 q 526 712 474 736 q 616 637 578 687 q 834 736 711 736 q 1005 661 943 736 q 1075 425 1075 577 q 1061 298 1075 352 m 927 418 l 928 442 q 898 559 928 521 q 821 598 869 598 q 679 418 715 598 l 927 418 m 225 281 q 259 173 225 214 q 345 132 294 132 q 470 219 422 132 q 517 421 517 306 q 483 547 517 504 q 398 591 449 591 q 287 524 330 591 q 225 281 225 428 z "},"–":{"ha":633,"x_min":-2,"x_max":631,"o":"m -2 289 l -2 431 l 631 431 l 631 289 l -2 289 z "},"—":{"ha":1139,"x_min":0,"x_max":1139,"o":"m 0 289 l 0 431 l 1139 431 l 1139 289 l 0 289 z "},"“":{"ha":570,"x_min":140,"x_max":639,"o":"m 570 590 l 409 590 l 435 745 q 509 937 458 881 q 639 994 559 992 l 624 904 q 563 866 585 893 q 528 779 541 839 l 602 779 l 570 590 m 301 590 l 140 590 l 167 745 q 241 937 191 881 q 370 994 291 992 l 355 904 q 294 866 316 893 q 260 779 273 839 l 334 779 l 301 590 z "},"”":{"ha":570,"x_min":146,"x_max":644,"o":"m 215 994 l 376 994 l 349 839 q 275 647 326 703 q 146 590 224 592 l 161 680 q 223 719 201 691 q 256 806 245 746 l 183 806 l 215 994 m 484 994 l 644 994 l 618 839 q 544 647 595 703 q 414 590 493 592 l 430 680 q 491 719 469 691 q 524 806 513 746 l 451 806 l 484 994 z "},"‘":{"ha":317,"x_min":122,"x_max":352,"o":"m 283 590 l 122 590 l 149 745 q 222 937 172 881 q 352 994 273 992 l 337 904 q 276 866 298 893 q 242 779 254 839 l 315 779 l 283 590 z "},"’":{"ha":317,"x_min":141,"x_max":371,"o":"m 210 994 l 371 994 l 345 839 q 271 647 321 703 q 141 590 220 592 l 157 680 q 218 719 196 691 q 252 806 240 746 l 178 806 l 210 994 z "},"÷":{"ha":762,"x_min":33,"x_max":728,"o":"m 286 665 l 286 856 l 476 856 l 476 665 l 286 665 m 33 401 l 33 580 l 728 580 l 728 401 l 33 401 m 286 125 l 286 316 l 476 316 l 476 125 l 286 125 z "},"◊":{"ha":686,"x_min":32,"x_max":656,"o":"m 372 964 l 656 481 l 372 0 l 297 0 l 32 481 l 297 964 l 372 964 m 336 899 l 105 481 l 336 64 l 579 481 l 336 899 z "},"ÿ":{"ha":633,"x_min":7,"x_max":707,"o":"m 96 720 l 254 720 l 294 361 q 311 168 309 224 q 397 401 342 279 l 538 720 l 707 720 l 342 -71 q 263 -219 291 -182 q 200 -275 235 -257 q 121 -292 165 -292 q 7 -271 71 -292 l 22 -125 q 77 -136 50 -136 q 199 0 151 -136 l 96 720 m 250 996 l 386 996 l 357 829 l 221 829 l 250 996 m 484 996 l 621 996 l 592 829 l 455 829 l 484 996 z "},"Ÿ":{"ha":760,"x_min":131,"x_max":894,"o":"m 457 0 l 289 0 l 356 387 l 131 994 l 309 994 l 410 713 q 458 568 446 613 q 507 662 480 613 l 584 793 l 699 994 l 894 994 l 520 368 l 457 0 m 380 1248 l 517 1248 l 488 1082 l 352 1082 l 380 1248 m 614 1248 l 751 1248 l 723 1082 l 586 1082 l 614 1248 z "},"⁄":{"ha":191,"x_min":-283,"x_max":560,"o":"m -186 -41 l -283 -41 l 464 1006 l 560 1006 l -186 -41 z "},"€":{"ha":633,"x_min":31,"x_max":728,"o":"m 728 949 l 667 764 q 612 818 642 801 q 534 835 583 835 q 315 647 389 835 l 591 647 l 575 543 l 289 543 q 277 454 281 502 l 561 454 l 546 349 l 273 349 q 328 205 283 256 q 441 154 374 154 q 610 222 536 154 l 572 16 q 424 -17 499 -17 q 210 71 294 -17 q 109 349 125 159 l 31 349 l 49 454 l 111 454 q 118 543 113 507 l 31 543 l 49 647 l 138 647 q 293 914 184 817 q 541 1011 402 1011 q 728 949 646 1011 z "},"‹":{"ha":379,"x_min":67,"x_max":430,"o":"m 67 374 l 296 663 l 430 663 l 229 361 l 303 48 l 191 48 l 67 374 z "},"›":{"ha":379,"x_min":11,"x_max":363,"o":"m 363 336 l 146 48 l 11 48 l 208 351 l 137 663 l 252 663 l 363 336 z "},"ﬁ":{"ha":696,"x_min":66,"x_max":755,"o":"m 463 720 l 438 578 l 326 578 l 226 0 l 66 0 l 165 578 l 77 578 l 101 720 l 190 720 l 203 794 q 240 932 220 895 q 297 990 260 970 q 387 1011 334 1011 q 541 979 460 1011 l 511 840 q 418 863 453 863 q 380 846 394 863 q 359 771 369 833 l 350 720 l 463 720 m 595 994 l 755 994 l 724 818 l 565 818 l 595 994 m 548 720 l 707 720 l 584 0 l 425 0 l 548 720 z "},"ﬂ":{"ha":696,"x_min":64,"x_max":753,"o":"m 460 720 l 436 578 l 323 578 l 224 0 l 64 0 l 163 578 l 75 578 l 99 720 l 188 720 l 201 794 q 238 932 218 895 q 295 990 258 970 q 385 1011 332 1011 q 539 979 458 1011 l 509 840 q 416 863 451 863 q 378 846 392 863 q 356 771 367 833 l 347 720 l 460 720 m 422 0 l 593 994 l 753 994 l 583 0 l 422 0 z "},"‡":{"ha":633,"x_min":-1,"x_max":683,"o":"m 458 597 l 381 146 l 580 146 l 554 -5 l 355 -5 l 315 -237 l 165 -237 l 205 -5 l -1 -5 l 24 146 l 231 146 l 308 597 l 102 597 l 127 748 l 334 748 l 374 981 l 524 981 l 484 748 l 683 748 l 657 597 l 458 597 z "},"∙":{"ha":317,"x_min":109,"x_max":298,"o":"m 141 564 l 298 564 l 266 376 l 109 376 l 141 564 z "},"‚":{"ha":317,"x_min":12,"x_max":241,"o":"m 81 188 l 241 188 l 215 33 q 141 -159 192 -104 q 12 -216 90 -214 l 27 -125 q 89 -87 66 -115 q 122 0 111 -59 l 48 0 l 81 188 z "},"„":{"ha":570,"x_min":4,"x_max":503,"o":"m 73 188 l 234 188 l 208 33 q 134 -159 184 -104 q 4 -216 83 -214 l 20 -125 q 81 -87 59 -115 q 115 0 104 -59 l 41 0 l 73 188 m 342 188 l 503 188 l 476 33 q 402 -159 453 -104 q 273 -216 351 -214 l 288 -125 q 350 -87 328 -115 q 382 0 372 -59 l 309 0 l 342 188 z "},"‰":{"ha":1139,"x_min":77,"x_max":1163,"o":"m 77 681 q 115 870 77 766 q 185 978 143 945 q 277 1011 227 1011 q 377 963 338 1011 q 416 824 416 914 q 382 647 416 733 q 303 525 349 561 q 211 490 258 490 q 115 537 153 490 q 77 681 77 585 m 180 672 q 191 620 180 634 q 218 605 201 605 q 275 669 252 605 q 307 838 307 762 q 296 881 307 866 q 268 896 284 896 q 241 882 254 896 q 200 791 220 860 q 180 672 180 722 m 216 -39 l 106 -39 l 633 1011 l 747 1011 l 216 -39 m 441 155 q 479 345 441 240 q 548 452 507 419 q 641 486 590 486 q 740 437 701 486 q 779 298 779 389 q 746 121 779 207 q 667 0 713 35 q 574 -36 622 -36 q 478 12 516 -36 q 441 155 441 60 m 544 146 q 554 94 544 108 q 582 79 564 79 q 639 144 616 79 q 671 312 671 236 q 659 355 671 340 q 631 370 648 370 q 605 357 618 370 q 564 266 584 335 q 544 146 544 196 m 825 155 q 863 345 825 240 q 932 452 890 419 q 1025 486 973 486 q 1124 437 1085 486 q 1163 298 1163 389 q 1130 121 1163 208 q 1051 0 1097 35 q 958 -36 1006 -36 q 862 12 900 -36 q 825 155 825 60 m 928 146 q 938 94 928 109 q 966 79 948 79 q 1022 144 1000 79 q 1055 311 1055 236 q 1043 355 1055 340 q 1015 370 1031 370 q 988 357 1001 370 q 948 265 968 334 q 928 146 928 196 z "},"Â":{"ha":822,"x_min":-13,"x_max":766,"o":"m 581 220 l 257 220 l 159 0 l -13 0 l 448 994 l 634 994 l 766 0 l 608 0 l 581 220 m 559 385 l 513 785 l 333 385 l 559 385 m 578 1184 l 480 1063 l 349 1063 l 514 1267 l 663 1267 l 730 1063 l 621 1063 l 578 1184 z "},"Ê":{"ha":760,"x_min":47,"x_max":821,"o":"m 47 0 l 217 994 l 821 994 l 793 828 l 357 828 l 318 602 l 740 602 l 711 436 l 290 436 l 243 166 l 711 166 l 684 0 l 47 0 m 549 1184 l 451 1063 l 319 1063 l 485 1267 l 634 1267 l 701 1063 l 591 1063 l 549 1184 z "},"Á":{"ha":822,"x_min":-13,"x_max":781,"o":"m 581 220 l 257 220 l 159 0 l -13 0 l 448 994 l 634 994 l 766 0 l 608 0 l 581 220 m 559 385 l 513 785 l 333 385 l 559 385 m 610 1267 l 781 1267 l 600 1063 l 494 1063 l 610 1267 z "},"Ë":{"ha":760,"x_min":47,"x_max":821,"o":"m 47 0 l 217 994 l 821 994 l 793 828 l 357 828 l 318 602 l 740 602 l 711 436 l 290 436 l 243 166 l 711 166 l 684 0 l 47 0 m 380 1248 l 517 1248 l 488 1082 l 352 1082 l 380 1248 m 614 1248 l 751 1248 l 723 1082 l 586 1082 l 614 1248 z "},"È":{"ha":760,"x_min":47,"x_max":821,"o":"m 47 0 l 217 994 l 821 994 l 793 828 l 357 828 l 318 602 l 740 602 l 711 436 l 290 436 l 243 166 l 711 166 l 684 0 l 47 0 m 408 1269 l 562 1269 l 633 1066 l 524 1066 l 408 1269 z "},"Í":{"ha":317,"x_min":40,"x_max":512,"o":"m 40 0 l 210 994 l 378 994 l 208 0 l 40 0 m 341 1267 l 512 1267 l 331 1063 l 225 1063 l 341 1267 z "},"Î":{"ha":317,"x_min":40,"x_max":482,"o":"m 40 0 l 210 994 l 378 994 l 208 0 l 40 0 m 330 1184 l 232 1063 l 100 1063 l 266 1267 l 415 1267 l 482 1063 l 372 1063 l 330 1184 z "},"Ï":{"ha":317,"x_min":40,"x_max":532,"o":"m 40 0 l 210 994 l 378 994 l 208 0 l 40 0 m 161 1248 l 298 1248 l 269 1082 l 133 1082 l 161 1248 m 395 1248 l 532 1248 l 504 1082 l 367 1082 l 395 1248 z "},"Ì":{"ha":317,"x_min":40,"x_max":414,"o":"m 40 0 l 210 994 l 378 994 l 208 0 l 40 0 m 189 1269 l 342 1269 l 414 1066 l 305 1066 l 189 1269 z "},"Ó":{"ha":886,"x_min":100,"x_max":893,"o":"m 100 390 q 143 655 100 519 q 306 921 198 830 q 555 1011 414 1011 q 798 899 703 1011 q 893 594 893 787 q 825 271 893 419 q 656 53 757 123 q 433 -18 555 -18 q 202 84 288 -18 q 100 390 100 204 m 266 394 q 320 219 266 284 q 451 153 374 153 q 574 202 513 153 q 681 362 635 251 q 726 589 726 474 q 670 779 726 710 q 542 840 621 840 q 416 791 478 840 q 310 632 353 741 q 266 394 266 522 m 646 1267 l 817 1267 l 636 1063 l 530 1063 l 646 1267 z "},"Ô":{"ha":886,"x_min":100,"x_max":893,"o":"m 100 390 q 143 655 100 519 q 306 921 198 830 q 555 1011 414 1011 q 798 899 703 1011 q 893 594 893 787 q 825 271 893 419 q 656 53 757 123 q 433 -18 555 -18 q 202 84 288 -18 q 100 390 100 204 m 266 394 q 320 219 266 284 q 451 153 374 153 q 574 202 513 153 q 681 362 635 251 q 726 589 726 474 q 670 779 726 710 q 542 840 621 840 q 416 791 478 840 q 310 632 353 741 q 266 394 266 522 m 614 1184 l 517 1063 l 385 1063 l 551 1267 l 700 1267 l 767 1063 l 657 1063 l 614 1184 z "},"Ò":{"ha":886,"x_min":100,"x_max":893,"o":"m 100 390 q 143 655 100 519 q 306 921 198 830 q 555 1011 414 1011 q 798 899 703 1011 q 893 594 893 787 q 825 271 893 419 q 656 53 757 123 q 433 -18 555 -18 q 202 84 288 -18 q 100 390 100 204 m 266 394 q 320 219 266 284 q 451 153 374 153 q 574 202 513 153 q 681 362 635 251 q 726 589 726 474 q 670 779 726 710 q 542 840 621 840 q 416 791 478 840 q 310 632 353 741 q 266 394 266 522 m 473 1269 l 627 1269 l 699 1066 l 590 1066 l 473 1269 z "},"Ú":{"ha":822,"x_min":104,"x_max":871,"o":"m 217 994 l 385 994 l 292 454 l 270 324 q 267 290 267 305 q 304 191 267 227 q 405 154 341 154 q 500 179 461 154 q 563 256 540 204 q 610 450 586 308 l 703 994 l 871 994 l 778 450 q 718 206 749 284 q 593 38 671 94 q 397 -17 514 -17 q 182 65 260 -17 q 104 288 104 146 q 127 471 104 333 l 217 994 m 610 1267 l 781 1267 l 600 1063 l 494 1063 l 610 1267 z "},"Û":{"ha":822,"x_min":104,"x_max":871,"o":"m 217 994 l 385 994 l 292 454 l 270 324 q 267 290 267 305 q 304 191 267 227 q 405 154 341 154 q 500 179 461 154 q 563 256 540 204 q 610 450 586 308 l 703 994 l 871 994 l 778 450 q 718 206 749 284 q 593 38 671 94 q 397 -17 514 -17 q 182 65 260 -17 q 104 288 104 146 q 127 471 104 333 l 217 994 m 578 1184 l 480 1063 l 349 1063 l 514 1267 l 663 1267 l 730 1063 l 621 1063 l 578 1184 z "},"Ù":{"ha":822,"x_min":104,"x_max":871,"o":"m 217 994 l 385 994 l 292 454 l 270 324 q 267 290 267 305 q 304 191 267 227 q 405 154 341 154 q 500 179 461 154 q 563 256 540 204 q 610 450 586 308 l 703 994 l 871 994 l 778 450 q 718 206 749 284 q 593 38 671 94 q 397 -17 514 -17 q 182 65 260 -17 q 104 288 104 146 q 127 471 104 333 l 217 994 m 437 1269 l 591 1269 l 663 1066 l 554 1066 l 437 1269 z "},"ı":{"ha":317,"x_min":46,"x_max":329,"o":"m 170 720 l 329 720 l 205 0 l 46 0 l 170 720 z "},"ˆ":{"ha":379,"x_min":64,"x_max":446,"o":"m 293 932 l 195 812 l 64 812 l 229 1016 l 378 1016 l 446 812 l 336 812 l 293 932 z "},"˜":{"ha":379,"x_min":106,"x_max":488,"o":"m 176 823 l 106 823 q 151 952 123 918 q 214 986 179 986 q 319 953 245 986 q 379 934 363 934 q 400 944 391 934 q 417 987 410 954 l 488 987 q 447 864 478 904 q 376 824 415 824 q 297 850 351 824 q 226 878 241 878 q 176 823 191 878 z "},"ˉ":{"ha":379,"x_min":96,"x_max":475,"o":"m 119 968 l 475 968 l 452 837 l 96 837 l 119 968 z "},"˘":{"ha":379,"x_min":96,"x_max":445,"o":"m 96 1009 l 174 1009 q 208 932 186 954 q 262 911 230 911 q 372 1009 328 911 l 445 1009 q 363 856 421 914 q 257 812 319 812 q 150 861 193 812 q 96 1009 108 909 z "},"˙":{"ha":379,"x_min":186,"x_max":376,"o":"m 216 1010 l 376 1010 l 346 832 l 186 832 l 216 1010 z "},"˚":{"ha":379,"x_min":172,"x_max":387,"o":"m 172 916 q 204 1010 172 972 q 279 1047 236 1047 q 354 1010 321 1047 q 387 916 387 972 q 354 823 387 860 q 279 785 321 785 q 204 823 236 785 q 172 916 172 860 m 232 916 q 246 876 232 892 q 279 859 260 859 q 312 876 298 859 q 326 916 326 892 q 312 958 326 941 q 279 974 298 974 q 246 957 260 974 q 232 916 232 941 z "},"¸":{"ha":379,"x_min":7,"x_max":304,"o":"m 7 -286 l 34 -207 l 68 -208 q 168 -186 117 -208 q 203 -138 203 -172 q 187 -104 203 -117 q 138 -91 171 -91 q 88 -97 120 -91 l 107 -30 q 180 -18 147 -18 q 271 -48 237 -18 q 304 -130 304 -79 q 240 -241 304 -193 q 61 -288 176 -288 q 7 -286 26 -288 z "},"˝":{"ha":379,"x_min":38,"x_max":531,"o":"m 370 1011 l 531 1011 l 349 810 l 257 810 l 370 1011 m 148 1011 l 313 1011 l 127 810 l 38 810 l 148 1011 z "},"˛":{"ha":379,"x_min":71,"x_max":308,"o":"m 308 -160 l 293 -247 q 232 -276 268 -264 q 170 -288 196 -288 q 98 -257 125 -288 q 71 -163 71 -225 q 107 13 71 -75 l 186 13 q 157 -121 157 -72 q 172 -169 157 -153 q 212 -186 186 -186 q 308 -160 248 -186 z "},"ˇ":{"ha":379,"x_min":125,"x_max":507,"o":"m 277 895 l 376 1016 l 507 1016 l 342 812 l 193 812 l 125 1016 l 235 1016 l 277 895 z "},"Ł":{"ha":696,"x_min":17,"x_max":667,"o":"m 148 533 l 227 994 l 395 994 l 337 659 l 487 760 l 460 600 l 310 498 l 253 166 l 667 166 l 638 0 l 56 0 l 120 373 l 17 304 l 44 465 l 148 533 z "},"ł":{"ha":317,"x_min":34,"x_max":395,"o":"m 136 522 l 217 994 l 377 994 l 315 633 l 395 684 l 373 554 l 293 503 l 206 0 l 47 0 l 114 392 l 34 341 l 56 471 l 136 522 z "},"Š":{"ha":760,"x_min":70,"x_max":770,"o":"m 72 322 l 231 332 q 250 221 235 252 q 299 172 264 190 q 393 154 334 154 q 510 188 471 154 q 549 277 549 222 q 526 343 549 315 q 410 420 504 370 q 253 518 292 483 q 192 604 214 553 q 171 720 171 654 q 249 932 171 852 q 462 1011 327 1011 q 680 932 598 1011 q 770 711 762 854 l 609 702 q 461 849 597 849 q 362 821 394 849 q 331 744 331 793 q 361 671 331 699 q 479 595 390 643 q 635 499 596 534 q 694 415 673 465 q 715 302 715 366 q 626 72 715 161 q 391 -17 537 -17 q 204 30 281 -17 q 98 155 126 77 q 72 322 70 233 m 534 1147 l 633 1267 l 764 1267 l 599 1063 l 450 1063 l 382 1267 l 492 1267 l 534 1147 z "},"š":{"ha":633,"x_min":25,"x_max":628,"o":"m 25 201 l 180 231 q 231 146 200 170 q 314 122 262 122 q 394 146 363 122 q 425 201 425 170 q 412 238 425 223 q 347 273 398 252 q 169 363 203 330 q 114 503 114 417 q 186 671 114 605 q 382 736 258 736 q 628 549 594 736 l 481 517 q 357 603 455 603 q 288 584 311 603 q 264 536 264 565 q 282 494 264 511 q 376 453 296 481 q 530 374 490 412 q 587 237 587 317 q 513 56 587 127 q 317 -16 439 -16 q 25 201 77 -16 m 398 895 l 496 1016 l 628 1016 l 463 812 l 313 812 l 245 1016 l 355 1016 l 398 895 z "},"Ž":{"ha":696,"x_min":28,"x_max":761,"o":"m 28 0 l 56 157 l 524 828 l 144 828 l 173 994 l 761 994 l 736 838 l 262 163 l 349 165 l 376 165 l 496 166 l 689 166 l 661 0 l 28 0 m 503 1147 l 602 1267 l 733 1267 l 568 1063 l 418 1063 l 351 1267 l 460 1267 l 503 1147 z "},"ž":{"ha":570,"x_min":19,"x_max":602,"o":"m 19 0 l 42 132 l 366 568 l 102 568 l 127 720 l 591 720 l 571 604 l 245 157 l 529 157 l 502 0 l 19 0 m 372 895 l 470 1016 l 602 1016 l 436 812 l 287 812 l 219 1016 l 329 1016 l 372 895 z "},"¦":{"ha":319,"x_min":98,"x_max":222,"o":"m 98 475 l 98 1011 l 222 1011 l 222 475 l 98 475 m 98 -292 l 98 244 l 222 244 l 222 -292 l 98 -292 z "},"Ð":{"ha":822,"x_min":41,"x_max":825,"o":"m 50 0 l 125 435 l 41 435 l 62 555 l 146 555 l 222 994 l 439 994 q 594 985 554 994 q 714 918 663 968 q 795 784 766 867 q 825 583 825 700 q 794 354 825 459 q 709 171 764 249 q 595 57 654 92 q 471 9 536 22 q 337 0 429 0 l 50 0 m 245 160 l 330 160 q 460 173 422 160 q 551 240 509 189 q 625 380 594 290 q 656 588 656 470 q 631 741 656 686 q 563 817 606 796 q 456 830 532 830 l 361 830 l 313 555 l 488 555 l 467 435 l 292 435 l 245 160 z "},"ð":{"ha":696,"x_min":69,"x_max":692,"o":"m 382 994 l 534 994 l 562 943 l 674 994 l 692 927 l 593 882 q 669 666 648 760 q 689 453 689 573 q 599 124 689 264 q 352 -16 509 -16 q 170 44 235 -16 q 69 304 69 137 q 115 524 69 425 q 229 672 161 624 q 376 720 298 720 q 462 701 425 720 q 534 636 498 682 q 477 829 514 744 l 342 770 l 322 838 l 447 892 q 382 994 424 937 m 524 412 q 490 527 524 486 q 406 568 456 568 q 276 478 326 568 q 227 289 227 389 q 260 172 227 213 q 347 132 294 132 q 426 161 389 132 q 493 267 463 191 q 524 412 524 342 z "},"Ý":{"ha":760,"x_min":131,"x_max":894,"o":"m 457 0 l 289 0 l 356 387 l 131 994 l 309 994 l 410 713 q 458 568 446 613 q 507 662 480 613 l 584 793 l 699 994 l 894 994 l 520 368 l 457 0 m 581 1267 l 751 1267 l 570 1063 l 465 1063 l 581 1267 z "},"ý":{"ha":633,"x_min":7,"x_max":707,"o":"m 96 720 l 254 720 l 294 361 q 311 168 309 224 q 397 401 342 279 l 538 720 l 707 720 l 342 -71 q 263 -219 291 -182 q 200 -275 235 -257 q 121 -292 165 -292 q 7 -271 71 -292 l 22 -125 q 77 -136 50 -136 q 199 0 151 -136 l 96 720 m 423 1015 l 594 1015 l 413 811 l 307 811 l 423 1015 z "},"Þ":{"ha":760,"x_min":47,"x_max":767,"o":"m 214 0 l 47 0 l 220 994 l 388 994 l 355 804 l 516 804 q 640 791 605 804 q 730 709 694 772 q 767 553 767 646 q 730 373 767 457 q 640 251 693 290 q 513 197 587 212 q 355 190 473 190 l 246 190 l 214 0 m 275 354 l 326 354 q 495 371 450 354 q 570 434 541 389 q 600 539 600 480 q 584 601 600 576 q 546 633 568 626 q 444 641 524 641 l 326 641 l 275 354 z "},"þ":{"ha":696,"x_min":-10,"x_max":687,"o":"m 211 994 l 371 994 l 314 661 q 481 736 395 736 q 630 660 573 736 q 687 427 687 583 q 587 94 687 229 q 392 -16 504 -16 q 215 99 275 -16 l 149 -275 l -10 -275 l 211 994 m 257 307 q 291 176 257 222 q 370 130 326 130 q 440 159 406 130 q 503 268 475 189 q 531 431 531 348 q 499 555 531 513 q 420 598 467 598 q 347 569 382 598 q 285 464 313 540 q 257 307 257 388 z "},"−":{"ha":665,"x_min":47,"x_max":617,"o":"m 47 401 l 47 580 l 617 580 l 617 401 l 47 401 z "},"×":{"ha":665,"x_min":60,"x_max":603,"o":"m 61 285 l 229 490 l 60 695 l 163 821 l 332 616 l 500 821 l 602 697 l 433 492 l 603 286 l 500 159 l 330 366 l 162 161 l 61 285 z "},"¹":{"ha":379,"x_min":130,"x_max":412,"o":"m 130 774 l 152 879 q 258 936 222 911 q 344 1008 310 971 l 412 1008 l 307 493 l 198 493 l 267 827 q 130 774 201 789 z "},"²":{"ha":379,"x_min":93,"x_max":450,"o":"m 243 831 l 138 847 q 300 1006 163 1006 q 410 967 369 1006 q 450 864 450 928 q 422 772 450 819 q 305 645 395 724 q 262 600 291 632 l 420 600 l 398 493 l 93 493 q 125 594 100 551 q 246 731 151 637 q 331 822 316 798 q 346 865 346 846 q 334 899 346 886 q 302 912 321 912 q 266 895 280 912 q 243 831 251 878 z "},"³":{"ha":379,"x_min":87,"x_max":444,"o":"m 87 640 l 191 652 q 209 596 196 610 q 244 583 221 583 q 293 602 273 583 q 312 652 312 621 q 297 693 312 678 q 256 708 281 708 q 231 705 247 708 l 252 806 l 269 805 q 319 822 302 805 q 336 868 336 839 q 325 899 336 888 q 295 910 314 910 q 237 842 254 910 l 138 862 q 189 960 158 930 q 302 1006 235 1006 q 405 968 366 1006 q 444 868 444 930 q 430 810 444 836 q 378 753 416 784 q 412 702 404 724 q 420 656 420 681 q 369 536 420 587 q 243 485 317 485 q 138 523 179 485 q 87 640 97 562 z "},"½":{"ha":950,"x_min":96,"x_max":951,"o":"m 130 774 l 152 879 q 258 936 222 911 q 344 1008 310 971 l 412 1008 l 307 493 l 198 493 l 267 827 q 130 774 201 789 m 193 -41 l 96 -41 l 843 1006 l 939 1006 l 193 -41 m 743 310 l 638 326 q 800 485 663 485 q 910 446 869 485 q 951 342 951 406 q 923 250 951 298 q 806 123 895 203 q 762 79 791 111 l 920 79 l 899 -28 l 593 -28 q 626 73 600 29 q 747 210 651 116 q 831 301 817 277 q 846 344 846 325 q 834 378 846 365 q 803 391 822 391 q 766 373 781 391 q 743 310 751 356 z "},"¼":{"ha":950,"x_min":113,"x_max":956,"o":"m 130 774 l 152 879 q 258 936 222 911 q 344 1008 310 971 l 412 1008 l 307 493 l 198 493 l 267 827 q 130 774 201 789 m 210 -41 l 113 -41 l 860 1006 l 956 1006 l 210 -41 m 766 72 l 570 72 l 589 167 l 853 483 l 945 483 l 882 167 l 941 167 l 920 72 l 861 72 l 841 -28 l 745 -28 l 766 72 m 786 167 l 820 321 l 694 167 l 786 167 z "},"¾":{"ha":950,"x_min":87,"x_max":970,"o":"m 87 640 l 191 652 q 209 596 196 610 q 244 583 221 583 q 293 602 273 583 q 312 652 312 621 q 297 693 312 678 q 256 708 281 708 q 231 705 247 708 l 252 806 l 269 805 q 319 822 302 805 q 336 868 336 839 q 325 899 336 888 q 295 910 314 910 q 237 842 254 910 l 138 862 q 189 960 158 930 q 302 1006 235 1006 q 405 968 366 1006 q 444 868 444 930 q 430 810 444 836 q 378 753 416 784 q 412 702 404 724 q 420 656 420 681 q 369 536 420 587 q 243 485 317 485 q 138 523 179 485 q 87 640 97 562 m 224 -41 l 127 -41 l 873 1006 l 970 1006 l 224 -41 m 766 72 l 570 72 l 589 167 l 853 483 l 945 483 l 882 167 l 941 167 l 920 72 l 861 72 l 841 -28 l 745 -28 l 766 72 m 786 167 l 820 321 l 694 167 l 786 167 z "},"₣":{"ha":700,"x_min":-7,"x_max":785,"o":"m 71 157 l -7 157 l 14 277 l 92 277 l 215 994 l 785 994 l 757 828 l 354 828 l 313 589 l 707 589 l 680 423 l 285 423 l 260 277 l 432 277 l 412 157 l 239 157 l 212 0 l 44 0 l 71 157 z "},"Ğ":{"ha":886,"x_min":101,"x_max":895,"o":"m 501 531 l 865 531 l 792 104 q 630 17 724 50 q 443 -17 536 -17 q 199 79 281 -17 q 101 399 101 195 q 169 725 101 576 q 335 943 236 874 q 555 1011 433 1011 q 778 934 690 1011 q 895 698 866 857 l 739 676 q 555 846 698 846 q 413 799 478 846 q 306 646 348 751 q 263 399 263 540 q 311 213 263 272 q 448 154 358 154 q 545 169 498 154 q 655 217 610 189 l 681 365 l 473 365 l 501 531 m 401 1261 l 479 1261 q 513 1184 492 1206 q 567 1163 535 1163 q 677 1261 633 1163 l 750 1261 q 668 1108 726 1166 q 562 1065 625 1065 q 455 1113 498 1065 q 401 1261 413 1161 z "},"ğ":{"ha":696,"x_min":35,"x_max":709,"o":"m 37 -38 l 205 -68 q 227 -132 205 -111 q 292 -153 248 -153 q 361 -137 334 -153 q 403 -87 388 -120 q 433 47 418 -54 l 438 81 q 268 -3 356 -3 q 125 71 182 -3 q 69 290 69 144 q 111 533 69 429 q 218 686 152 636 q 353 736 284 736 q 459 700 410 736 q 537 593 509 663 l 559 720 l 709 720 l 606 120 q 553 -122 576 -56 q 459 -253 521 -213 q 289 -292 397 -292 q 106 -245 162 -292 q 35 -68 35 -187 l 37 -38 m 225 310 q 260 179 225 228 q 331 142 286 142 q 404 172 368 142 q 467 273 440 203 q 493 425 493 343 q 459 552 493 505 q 380 598 425 598 q 314 569 347 598 q 253 463 281 541 q 225 310 225 385 m 281 1009 l 358 1009 q 393 932 371 954 q 446 911 414 911 q 556 1009 513 911 l 629 1009 q 547 856 606 914 q 441 812 504 812 q 335 861 377 812 q 281 1009 292 909 z "},"İ":{"ha":317,"x_min":40,"x_max":421,"o":"m 40 0 l 210 994 l 378 994 l 208 0 l 40 0 m 261 1263 l 421 1263 l 391 1084 l 231 1084 l 261 1263 z "},"Ş":{"ha":760,"x_min":70,"x_max":770,"o":"m 72 322 l 231 332 q 250 221 235 252 q 299 172 264 190 q 393 154 334 154 q 510 188 471 154 q 549 277 549 222 q 526 343 549 315 q 410 420 504 370 q 253 518 292 483 q 192 604 214 553 q 171 720 171 654 q 249 932 171 852 q 462 1011 327 1011 q 680 932 598 1011 q 770 711 762 854 l 609 702 q 461 849 597 849 q 362 821 394 849 q 331 744 331 793 q 361 671 331 699 q 479 595 390 643 q 635 499 596 534 q 694 415 673 465 q 715 302 715 366 q 626 72 715 161 q 391 -17 537 -17 q 204 30 281 -17 q 98 155 126 77 q 72 322 70 233 m 199 -286 l 226 -207 l 260 -208 q 360 -186 309 -208 q 395 -138 395 -172 q 379 -104 395 -117 q 330 -91 363 -91 q 280 -97 312 -91 l 299 -30 q 372 -18 339 -18 q 463 -48 429 -18 q 496 -130 496 -79 q 432 -241 496 -193 q 253 -288 368 -288 q 199 -286 218 -288 z "},"ş":{"ha":633,"x_min":25,"x_max":628,"o":"m 25 201 l 180 231 q 231 146 200 170 q 314 122 262 122 q 394 146 363 122 q 425 201 425 170 q 412 238 425 223 q 347 273 398 252 q 169 363 203 330 q 114 503 114 417 q 186 671 114 605 q 382 736 258 736 q 628 549 594 736 l 481 517 q 357 603 455 603 q 288 584 311 603 q 264 536 264 565 q 282 494 264 511 q 376 453 296 481 q 530 374 490 412 q 587 237 587 317 q 513 56 587 127 q 317 -16 439 -16 q 25 201 77 -16 m 132 -286 l 159 -207 l 193 -208 q 293 -186 242 -208 q 328 -138 328 -172 q 312 -104 328 -117 q 263 -91 296 -91 q 213 -97 245 -91 l 232 -30 q 304 -18 272 -18 q 395 -48 362 -18 q 429 -130 429 -79 q 365 -241 429 -193 q 186 -288 301 -288 q 132 -286 151 -288 z "},"Ć":{"ha":822,"x_min":108,"x_max":849,"o":"m 637 358 l 806 328 q 656 68 755 155 q 426 -18 557 -18 q 194 90 279 -18 q 108 411 108 197 q 170 735 108 595 q 329 943 233 875 q 538 1011 426 1011 q 750 928 665 1011 q 849 689 834 844 l 688 670 q 635 798 674 760 q 535 835 597 835 q 414 789 472 835 q 314 637 355 744 q 273 402 273 530 q 321 218 273 282 q 436 154 368 154 q 555 204 500 154 q 637 358 610 255 m 577 1267 l 748 1267 l 567 1063 l 461 1063 l 577 1267 z "},"ć":{"ha":633,"x_min":68,"x_max":643,"o":"m 446 271 l 601 241 q 487 48 562 112 q 314 -16 411 -16 q 136 64 204 -16 q 68 291 68 144 q 114 527 68 423 q 238 683 160 630 q 406 736 317 736 q 570 673 506 736 q 643 496 635 609 l 491 476 q 396 593 480 593 q 320 562 357 593 q 255 448 283 530 q 227 269 227 366 q 253 170 227 204 q 315 136 279 136 q 390 169 354 136 q 446 271 425 201 m 450 1015 l 621 1015 l 440 811 l 334 811 l 450 1015 z "},"Č":{"ha":822,"x_min":108,"x_max":849,"o":"m 637 358 l 806 328 q 656 68 755 155 q 426 -18 557 -18 q 194 90 279 -18 q 108 411 108 197 q 170 735 108 595 q 329 943 233 875 q 538 1011 426 1011 q 750 928 665 1011 q 849 689 834 844 l 688 670 q 635 798 674 760 q 535 835 597 835 q 414 789 472 835 q 314 637 355 744 q 273 402 273 530 q 321 218 273 282 q 436 154 368 154 q 555 204 500 154 q 637 358 610 255 m 546 1147 l 644 1267 l 776 1267 l 610 1063 l 461 1063 l 393 1267 l 503 1267 l 546 1147 z "},"č":{"ha":633,"x_min":68,"x_max":643,"o":"m 446 271 l 601 241 q 487 48 562 112 q 314 -16 411 -16 q 136 64 204 -16 q 68 291 68 144 q 114 527 68 423 q 238 683 160 630 q 406 736 317 736 q 570 673 506 736 q 643 496 635 609 l 491 476 q 396 593 480 593 q 320 562 357 593 q 255 448 283 530 q 227 269 227 366 q 253 170 227 204 q 315 136 279 136 q 390 169 354 136 q 446 271 425 201 m 402 895 l 500 1016 l 632 1016 l 467 812 l 317 812 l 250 1016 l 359 1016 l 402 895 z "},"đ":{"ha":696,"x_min":68,"x_max":827,"o":"m 572 819 l 391 819 l 407 909 l 587 909 l 602 994 l 762 994 l 747 909 l 827 909 l 811 819 l 732 819 l 591 0 l 440 0 l 454 78 q 367 5 409 26 q 274 -16 324 -16 q 125 59 183 -16 q 68 286 68 134 q 150 600 68 464 q 360 736 232 736 q 538 622 479 736 l 572 819 m 223 293 q 255 172 223 214 q 334 129 288 129 q 408 158 372 129 q 470 262 444 188 q 497 416 497 337 q 463 546 497 498 q 383 593 428 593 q 313 563 349 593 q 250 455 277 532 q 223 293 223 378 z "},"¯":{"ha":694,"x_min":131,"x_max":842,"o":"m 131 1168 l 842 1168 l 842 1098 l 131 1098 l 131 1168 z "},"·":{"ha":379,"x_min":151,"x_max":341,"o":"m 184 591 l 341 591 l 309 403 l 151 403 l 184 591 z "},"Ă":{"ha":822,"x_min":-13,"x_max":766,"o":"m 581 220 l 257 220 l 159 0 l -13 0 l 448 994 l 634 994 l 766 0 l 608 0 l 581 220 m 559 385 l 513 785 l 333 385 l 559 385 m 385 1261 l 463 1261 q 497 1184 475 1206 q 551 1163 519 1163 q 661 1261 617 1163 l 734 1261 q 652 1108 710 1166 q 546 1065 608 1065 q 439 1113 481 1065 q 385 1261 397 1161 z "},"ă":{"ha":633,"x_min":52,"x_max":618,"o":"m 271 516 l 115 532 q 212 684 143 632 q 385 736 280 736 q 550 683 492 736 q 608 542 608 630 q 603 475 608 511 q 570 283 599 440 q 547 102 547 153 q 559 0 547 55 l 405 0 q 393 81 395 39 q 312 9 358 34 q 221 -16 267 -16 q 100 41 149 -16 q 52 193 52 98 q 107 361 52 302 q 292 432 162 420 q 444 460 406 444 q 454 526 454 501 q 432 578 454 558 q 372 598 410 598 q 271 516 290 598 m 423 336 q 385 327 408 331 q 237 283 273 311 q 201 210 201 256 q 222 151 201 174 q 275 129 243 129 q 338 148 308 129 q 387 200 369 166 q 418 310 406 233 l 423 336 m 270 1009 l 347 1009 q 382 932 360 954 q 435 911 404 911 q 545 1009 502 911 l 618 1009 q 536 856 595 914 q 431 812 493 812 q 324 861 366 812 q 270 1009 281 909 z "},"Ą":{"ha":822,"x_min":-13,"x_max":852,"o":"m 581 220 l 257 220 l 159 0 l -13 0 l 448 994 l 634 994 l 766 0 l 608 0 l 581 220 m 559 385 l 513 785 l 333 385 l 559 385 m 852 -160 l 837 -247 q 776 -276 812 -264 q 714 -288 740 -288 q 642 -257 669 -288 q 614 -163 614 -225 q 651 13 614 -75 l 730 13 q 701 -121 701 -72 q 716 -169 701 -153 q 755 -186 730 -186 q 852 -160 792 -186 z "},"ą":{"ha":633,"x_min":52,"x_max":649,"o":"m 271 516 l 115 532 q 212 684 143 632 q 385 736 280 736 q 550 683 492 736 q 608 542 608 630 q 603 475 608 511 q 570 283 599 440 q 547 102 547 153 q 559 0 547 55 l 405 0 q 393 81 395 39 q 312 9 358 34 q 221 -16 267 -16 q 100 41 149 -16 q 52 193 52 98 q 107 361 52 302 q 292 432 162 420 q 444 460 406 444 q 454 526 454 501 q 432 578 454 558 q 372 598 410 598 q 271 516 290 598 m 423 336 q 385 327 408 331 q 237 283 273 311 q 201 210 201 256 q 222 151 201 174 q 275 129 243 129 q 338 148 308 129 q 387 200 369 166 q 418 310 406 233 l 423 336 m 649 -160 l 634 -247 q 573 -276 609 -264 q 511 -288 537 -288 q 439 -257 466 -288 q 412 -163 412 -225 q 448 13 412 -75 l 527 13 q 498 -121 498 -72 q 513 -169 498 -153 q 553 -186 528 -186 q 649 -160 589 -186 z "},"Ď":{"ha":822,"x_min":50,"x_max":825,"o":"m 50 0 l 220 994 l 439 994 q 595 985 554 994 q 714 918 663 968 q 795 784 766 867 q 825 583 825 700 q 795 354 825 459 q 709 171 764 250 q 595 57 654 93 q 471 9 536 22 q 337 0 429 0 l 50 0 m 245 160 l 330 160 q 460 173 422 160 q 551 240 509 189 q 625 380 594 290 q 656 588 656 470 q 631 741 656 686 q 563 817 606 797 q 456 830 532 830 l 359 830 l 245 160 m 497 1147 l 595 1267 l 727 1267 l 562 1063 l 412 1063 l 345 1267 l 454 1267 l 497 1147 z "},"ď":{"ha":843,"x_min":68,"x_max":975,"o":"m 591 0 l 440 0 l 454 78 q 367 5 409 26 q 274 -16 324 -16 q 125 59 183 -16 q 68 286 68 134 q 150 600 68 464 q 360 736 232 736 q 538 622 479 736 l 602 994 l 762 994 l 591 0 m 223 293 q 255 172 223 214 q 334 129 288 129 q 408 158 372 129 q 470 262 444 188 q 497 416 497 337 q 463 546 497 498 q 383 593 428 593 q 313 563 349 593 q 250 455 277 532 q 223 293 223 378 m 830 994 l 975 994 l 951 854 q 784 695 925 702 l 798 776 q 867 825 854 790 l 801 825 l 830 994 z "},"Đ":{"ha":822,"x_min":41,"x_max":825,"o":"m 50 0 l 125 435 l 41 435 l 62 555 l 146 555 l 222 994 l 439 994 q 594 985 554 994 q 714 918 663 968 q 795 784 766 867 q 825 583 825 700 q 794 354 825 459 q 709 171 764 249 q 595 57 654 92 q 471 9 536 22 q 337 0 429 0 l 50 0 m 245 160 l 330 160 q 460 173 422 160 q 551 240 509 189 q 625 380 594 290 q 656 588 656 470 q 631 741 656 686 q 563 817 606 796 q 456 830 532 830 l 361 830 l 313 555 l 488 555 l 467 435 l 292 435 l 245 160 z "},"Ę":{"ha":760,"x_min":47,"x_max":821,"o":"m 47 0 l 217 994 l 821 994 l 793 828 l 357 828 l 318 602 l 740 602 l 711 436 l 290 436 l 243 166 l 711 166 l 684 0 l 47 0 m 671 -160 l 656 -247 q 595 -276 631 -264 q 533 -288 559 -288 q 460 -257 488 -288 q 433 -163 433 -225 q 470 13 433 -75 l 549 13 q 520 -121 520 -72 q 535 -169 520 -153 q 574 -186 549 -186 q 671 -160 611 -186 z "},"ę":{"ha":633,"x_min":66,"x_max":631,"o":"m 621 300 l 220 300 l 220 281 q 254 165 220 209 q 335 122 288 122 q 459 222 414 122 l 602 193 q 490 36 560 88 q 334 -16 420 -16 q 142 74 218 -16 q 66 317 66 163 q 153 610 66 484 q 395 736 239 736 q 566 657 500 736 q 631 427 631 577 q 621 300 631 355 m 486 418 l 486 437 q 456 559 486 519 q 378 598 426 598 q 289 553 329 598 q 236 418 250 507 l 486 418 m 535 -160 l 520 -247 q 459 -276 495 -264 q 397 -288 423 -288 q 325 -257 352 -288 q 298 -163 298 -225 q 334 13 298 -75 l 413 13 q 385 -121 385 -72 q 399 -169 385 -153 q 439 -186 414 -186 q 535 -160 475 -186 z "},"Ě":{"ha":760,"x_min":47,"x_max":821,"o":"m 47 0 l 217 994 l 821 994 l 793 828 l 357 828 l 318 602 l 740 602 l 711 436 l 290 436 l 243 166 l 711 166 l 684 0 l 47 0 m 524 1147 l 623 1267 l 754 1267 l 589 1063 l 439 1063 l 372 1267 l 481 1267 l 524 1147 z "},"ě":{"ha":633,"x_min":66,"x_max":633,"o":"m 621 300 l 220 300 l 220 281 q 254 165 220 209 q 335 122 288 122 q 459 222 414 122 l 602 193 q 490 36 560 88 q 334 -16 420 -16 q 142 74 218 -16 q 66 317 66 163 q 153 610 66 484 q 395 736 239 736 q 566 657 500 736 q 631 427 631 577 q 621 300 631 355 m 486 418 l 486 437 q 456 559 486 519 q 378 598 426 598 q 289 553 329 598 q 236 418 250 507 l 486 418 m 403 895 l 501 1016 l 633 1016 l 467 812 l 318 812 l 250 1016 l 360 1016 l 403 895 z "},"Ĺ":{"ha":696,"x_min":52,"x_max":663,"o":"m 52 0 l 222 994 l 390 994 l 248 166 l 663 166 l 634 0 l 52 0 m 428 1267 l 599 1267 l 418 1064 l 312 1064 l 428 1267 z "},"ĺ":{"ha":317,"x_min":45,"x_max":482,"o":"m 45 0 l 215 994 l 375 994 l 204 0 l 45 0 m 311 1249 l 482 1249 l 301 1045 l 195 1045 l 311 1249 z "},"Ľ":{"ha":696,"x_min":52,"x_max":663,"o":"m 52 0 l 222 994 l 390 994 l 248 166 l 663 166 l 634 0 l 52 0 m 473 1003 l 618 1003 l 594 863 q 427 704 568 711 l 441 785 q 510 834 497 799 l 444 834 l 473 1003 z "},"ľ":{"ha":452,"x_min":45,"x_max":585,"o":"m 45 0 l 215 994 l 375 994 l 204 0 l 45 0 m 440 994 l 585 994 l 562 854 q 394 695 535 702 l 408 776 q 477 825 465 790 l 411 825 l 440 994 z "},"Ŀ":{"ha":696,"x_min":52,"x_max":663,"o":"m 52 0 l 222 994 l 390 994 l 248 166 l 663 166 l 634 0 l 52 0 m 483 675 l 643 675 l 612 497 l 452 497 l 483 675 z "},"ŀ":{"ha":465,"x_min":45,"x_max":528,"o":"m 45 0 l 215 994 l 375 994 l 204 0 l 45 0 m 368 591 l 528 591 l 498 413 l 338 413 l 368 591 z "},"Ń":{"ha":822,"x_min":51,"x_max":869,"o":"m 699 0 l 542 0 l 321 668 l 208 0 l 51 0 l 221 994 l 378 994 l 598 329 l 712 994 l 869 994 l 699 0 m 577 1267 l 748 1267 l 567 1064 l 461 1064 l 577 1267 z "},"ń":{"ha":696,"x_min":47,"x_max":673,"o":"m 171 720 l 322 720 l 307 627 q 415 712 366 688 q 516 736 464 736 q 630 687 587 736 q 673 551 673 637 q 655 408 673 514 l 585 0 l 425 0 l 496 408 q 511 518 511 500 q 493 577 511 557 q 444 598 474 598 q 378 572 412 598 q 305 485 329 536 q 258 296 281 435 l 207 0 l 47 0 l 171 720 m 462 1015 l 633 1015 l 452 811 l 346 811 l 462 1015 z "},"Ň":{"ha":822,"x_min":51,"x_max":869,"o":"m 699 0 l 542 0 l 321 668 l 208 0 l 51 0 l 221 994 l 378 994 l 598 329 l 712 994 l 869 994 l 699 0 m 546 1147 l 644 1267 l 776 1267 l 610 1063 l 461 1063 l 393 1267 l 503 1267 l 546 1147 z "},"ň":{"ha":696,"x_min":47,"x_max":677,"o":"m 171 720 l 322 720 l 307 627 q 415 712 366 688 q 516 736 464 736 q 630 687 587 736 q 673 551 673 637 q 655 408 673 514 l 585 0 l 425 0 l 496 408 q 511 518 511 500 q 493 577 511 557 q 444 598 474 598 q 378 572 412 598 q 305 485 329 536 q 258 296 281 435 l 207 0 l 47 0 l 171 720 m 448 895 l 546 1016 l 677 1016 l 512 812 l 363 812 l 295 1016 l 405 1016 l 448 895 z "},"Ő":{"ha":886,"x_min":100,"x_max":893,"o":"m 100 390 q 143 655 100 519 q 306 921 198 830 q 555 1011 414 1011 q 798 899 703 1011 q 893 594 893 787 q 825 271 893 419 q 656 53 757 123 q 433 -18 555 -18 q 202 84 288 -18 q 100 390 100 204 m 266 394 q 320 219 266 284 q 451 153 374 153 q 574 202 513 153 q 681 362 635 251 q 726 589 726 474 q 670 779 726 710 q 542 840 621 840 q 416 791 478 840 q 310 632 353 741 q 266 394 266 522 m 704 1263 l 865 1263 l 683 1062 l 591 1062 l 704 1263 m 482 1263 l 648 1263 l 461 1062 l 372 1062 l 482 1263 z "},"ő":{"ha":696,"x_min":69,"x_max":707,"o":"m 69 299 q 149 600 69 476 q 406 736 238 736 q 607 651 532 736 q 682 413 682 566 q 589 109 682 234 q 345 -16 496 -16 q 146 68 222 -16 q 69 299 69 153 m 524 438 q 491 550 524 509 q 406 591 457 591 q 324 561 362 591 q 258 457 286 531 q 229 304 229 383 q 264 178 229 223 q 351 134 299 134 q 461 203 416 134 q 524 438 524 298 m 546 1011 l 707 1011 l 525 810 l 433 810 l 546 1011 m 324 1011 l 490 1011 l 303 810 l 214 810 l 324 1011 z "},"Ŕ":{"ha":822,"x_min":50,"x_max":844,"o":"m 218 0 l 50 0 l 220 994 l 583 994 q 733 968 684 994 q 813 882 783 941 q 844 733 844 823 q 780 521 844 601 q 593 422 715 441 q 660 317 627 385 q 779 0 714 201 l 599 0 q 526 229 588 42 q 466 363 493 324 q 426 401 446 391 q 357 412 406 412 l 288 412 l 218 0 m 314 561 l 403 561 q 573 577 529 561 q 647 635 618 593 q 677 730 677 678 q 640 812 677 786 q 545 828 618 828 l 360 828 l 314 561 m 561 1267 l 732 1267 l 551 1064 l 445 1064 l 561 1267 z "},"ŕ":{"ha":443,"x_min":37,"x_max":561,"o":"m 160 720 l 309 720 l 286 581 q 466 736 368 736 q 540 716 500 736 l 479 557 q 433 566 457 566 q 363 541 396 566 q 288 440 314 503 q 235 226 261 378 l 196 0 l 37 0 l 160 720 m 390 1015 l 561 1015 l 380 811 l 274 811 l 390 1015 z "},"Ř":{"ha":822,"x_min":50,"x_max":844,"o":"m 218 0 l 50 0 l 220 994 l 583 994 q 733 968 684 994 q 813 882 783 941 q 844 733 844 823 q 780 521 844 601 q 593 422 715 441 q 660 317 627 385 q 779 0 714 201 l 599 0 q 526 229 588 42 q 466 363 493 324 q 426 401 446 391 q 357 412 406 412 l 288 412 l 218 0 m 314 561 l 403 561 q 573 577 529 561 q 647 635 618 593 q 677 730 677 678 q 640 812 677 786 q 545 828 618 828 l 360 828 l 314 561 m 530 1147 l 628 1267 l 760 1267 l 594 1063 l 445 1063 l 377 1267 l 487 1267 l 530 1147 z "},"ř":{"ha":443,"x_min":37,"x_max":592,"o":"m 160 720 l 309 720 l 286 581 q 466 736 368 736 q 540 716 500 736 l 479 557 q 433 566 457 566 q 363 541 396 566 q 288 440 314 503 q 235 226 261 378 l 196 0 l 37 0 l 160 720 m 362 895 l 460 1016 l 592 1016 l 427 812 l 277 812 l 210 1016 l 319 1016 l 362 895 z "},"Ś":{"ha":760,"x_min":70,"x_max":770,"o":"m 72 322 l 231 332 q 250 221 235 252 q 299 172 264 190 q 393 154 334 154 q 510 188 471 154 q 549 277 549 222 q 526 343 549 315 q 410 420 504 370 q 253 518 292 483 q 192 604 214 553 q 171 720 171 654 q 249 932 171 852 q 462 1011 327 1011 q 680 932 598 1011 q 770 711 762 854 l 609 702 q 461 849 597 849 q 362 821 394 849 q 331 744 331 793 q 361 671 331 699 q 479 595 390 643 q 635 499 596 534 q 694 415 673 465 q 715 302 715 366 q 626 72 715 161 q 391 -17 537 -17 q 204 30 281 -17 q 98 155 126 77 q 72 322 70 233 m 517 1267 l 688 1267 l 507 1064 l 401 1064 l 517 1267 z "},"ś":{"ha":633,"x_min":25,"x_max":628,"o":"m 25 201 l 180 231 q 231 146 200 170 q 314 122 262 122 q 394 146 363 122 q 425 201 425 170 q 412 238 425 223 q 347 273 398 252 q 169 363 203 330 q 114 503 114 417 q 186 671 114 605 q 382 736 258 736 q 628 549 594 736 l 481 517 q 357 603 455 603 q 288 584 311 603 q 264 536 264 565 q 282 494 264 511 q 376 453 296 481 q 530 374 490 412 q 587 237 587 317 q 513 56 587 127 q 317 -16 439 -16 q 25 201 77 -16 m 408 1015 l 579 1015 l 398 811 l 292 811 l 408 1015 z "},"Ţ":{"ha":696,"x_min":130,"x_max":808,"o":"m 401 0 l 234 0 l 376 828 l 137 828 l 165 994 l 808 994 l 779 828 l 544 828 l 401 0 m 130 -286 l 157 -207 l 191 -208 q 291 -186 240 -208 q 326 -138 326 -172 q 310 -104 326 -117 q 261 -91 294 -91 q 211 -97 243 -91 l 230 -30 q 302 -18 270 -18 q 393 -48 360 -18 q 427 -130 427 -79 q 363 -241 427 -193 q 184 -288 299 -288 q 130 -286 149 -288 z "},"ţ":{"ha":379,"x_min":48,"x_max":445,"o":"m 85 576 l 110 720 l 188 720 l 208 836 l 390 970 l 347 720 l 445 720 l 420 576 l 323 576 l 271 274 q 257 180 257 193 q 269 144 257 156 q 311 133 281 133 q 363 138 321 133 l 338 -7 q 255 -16 297 -16 q 133 22 174 -16 q 93 133 93 60 q 113 286 93 167 l 163 576 l 85 576 m 48 -286 l 75 -207 l 109 -208 q 209 -186 158 -208 q 243 -138 243 -172 q 228 -104 243 -117 q 179 -91 212 -91 q 129 -97 161 -91 l 148 -30 q 220 -18 188 -18 q 311 -48 278 -18 q 345 -130 345 -79 q 281 -241 345 -193 q 102 -288 217 -288 q 48 -286 67 -288 z "},"Ť":{"ha":696,"x_min":137,"x_max":808,"o":"m 401 0 l 234 0 l 376 828 l 137 828 l 165 994 l 808 994 l 779 828 l 544 828 l 401 0 m 503 1147 l 602 1267 l 733 1267 l 568 1063 l 418 1063 l 351 1267 l 460 1267 l 503 1147 z "},"ť":{"ha":546,"x_min":85,"x_max":663,"o":"m 85 576 l 110 720 l 188 720 l 208 836 l 390 970 l 347 720 l 445 720 l 420 576 l 323 576 l 271 274 q 257 180 257 193 q 269 144 257 156 q 311 133 281 133 q 363 138 321 133 l 338 -7 q 255 -16 297 -16 q 133 22 174 -16 q 93 133 93 60 q 113 286 93 167 l 163 576 l 85 576 m 517 1003 l 663 1003 l 639 863 q 471 704 612 711 l 486 785 q 555 834 542 799 l 488 834 l 517 1003 z "},"Ů":{"ha":822,"x_min":104,"x_max":871,"o":"m 217 994 l 385 994 l 292 454 l 270 324 q 267 290 267 305 q 304 191 267 227 q 405 154 341 154 q 500 179 461 154 q 563 256 540 204 q 610 450 586 308 l 703 994 l 871 994 l 778 450 q 718 206 749 284 q 593 38 671 94 q 397 -17 514 -17 q 182 65 260 -17 q 104 288 104 146 q 127 471 104 333 l 217 994 m 448 1197 q 480 1291 448 1253 q 555 1328 512 1328 q 630 1291 597 1328 q 663 1197 663 1253 q 630 1103 663 1141 q 555 1066 597 1066 q 480 1103 512 1066 q 448 1197 448 1141 m 508 1197 q 522 1156 508 1173 q 555 1140 536 1140 q 588 1156 574 1140 q 602 1197 602 1173 q 588 1238 602 1222 q 555 1255 574 1255 q 522 1238 536 1255 q 508 1197 508 1221 z "},"ů":{"ha":696,"x_min":80,"x_max":705,"o":"m 168 720 l 328 720 l 254 294 q 241 198 241 217 q 261 144 241 165 q 308 122 280 122 q 372 145 340 122 q 444 228 417 177 q 487 377 470 279 l 545 720 l 705 720 l 582 0 l 433 0 l 449 98 q 237 -16 351 -16 q 122 34 165 -16 q 80 171 80 83 q 99 319 80 208 l 168 720 m 354 916 q 386 1010 354 972 q 461 1047 418 1047 q 536 1010 504 1047 q 569 916 569 972 q 536 823 569 860 q 461 785 504 785 q 386 823 418 785 q 354 916 354 860 m 414 916 q 429 876 414 892 q 461 859 443 859 q 494 876 480 859 q 509 916 509 892 q 494 958 509 941 q 461 974 480 974 q 429 957 443 974 q 414 916 414 941 z "},"Ű":{"ha":822,"x_min":104,"x_max":871,"o":"m 217 994 l 385 994 l 292 454 l 270 324 q 267 290 267 305 q 304 191 267 227 q 405 154 341 154 q 500 179 461 154 q 563 256 540 204 q 610 450 586 308 l 703 994 l 871 994 l 778 450 q 718 206 749 284 q 593 38 671 94 q 397 -17 514 -17 q 182 65 260 -17 q 104 288 104 146 q 127 471 104 333 l 217 994 m 682 1263 l 843 1263 l 661 1062 l 569 1062 l 682 1263 m 460 1263 l 625 1263 l 439 1062 l 350 1062 l 460 1263 z "},"ű":{"ha":696,"x_min":80,"x_max":732,"o":"m 168 720 l 328 720 l 254 294 q 241 198 241 217 q 261 144 241 165 q 308 122 280 122 q 372 145 340 122 q 444 228 417 177 q 487 377 470 279 l 545 720 l 705 720 l 582 0 l 433 0 l 449 98 q 237 -16 351 -16 q 122 34 165 -16 q 80 171 80 83 q 99 319 80 208 l 168 720 m 571 1011 l 732 1011 l 550 810 l 458 810 l 571 1011 m 349 1011 l 515 1011 l 328 810 l 239 810 l 349 1011 z "},"Ź":{"ha":696,"x_min":28,"x_max":761,"o":"m 28 0 l 56 157 l 524 828 l 144 828 l 173 994 l 761 994 l 736 838 l 262 163 l 349 165 l 376 165 l 496 166 l 689 166 l 661 0 l 28 0 m 486 1267 l 656 1267 l 475 1064 l 370 1064 l 486 1267 z "},"ź":{"ha":570,"x_min":19,"x_max":591,"o":"m 19 0 l 42 132 l 366 568 l 102 568 l 127 720 l 591 720 l 571 604 l 245 157 l 529 157 l 502 0 l 19 0 m 373 1015 l 544 1015 l 363 811 l 257 811 l 373 1015 z "},"Ż":{"ha":696,"x_min":28,"x_max":761,"o":"m 28 0 l 56 157 l 524 828 l 144 828 l 173 994 l 761 994 l 736 838 l 262 163 l 349 165 l 376 165 l 496 166 l 689 166 l 661 0 l 28 0 m 418 1241 l 578 1241 l 547 1063 l 387 1063 l 418 1241 z "},"ż":{"ha":570,"x_min":19,"x_max":591,"o":"m 19 0 l 42 132 l 366 568 l 102 568 l 127 720 l 591 720 l 571 604 l 245 157 l 529 157 l 502 0 l 19 0 m 304 1010 l 464 1010 l 433 832 l 273 832 l 304 1010 z "},"Γ":{"ha":694,"x_min":48,"x_max":801,"o":"m 219 994 l 801 994 l 773 828 l 357 828 l 216 0 l 48 0 l 219 994 z "},"Θ":{"ha":886,"x_min":100,"x_max":893,"o":"m 435 -17 q 192 97 284 -17 q 100 390 100 210 q 228 830 100 648 q 555 1011 357 1011 q 800 897 707 1011 q 893 593 893 783 q 762 161 893 339 q 435 -17 631 -17 m 543 840 q 349 709 431 840 q 267 403 267 577 q 318 221 267 289 q 451 154 370 154 q 644 287 562 154 q 726 590 726 420 q 675 771 726 703 q 543 840 625 840 m 642 414 l 322 414 l 351 581 l 669 581 l 642 414 z "},"Φ":{"ha":936,"x_min":98,"x_max":947,"o":"m 508 897 l 528 1018 l 694 1018 l 671 889 q 870 777 794 873 q 947 553 947 682 q 839 269 947 391 q 537 121 732 146 l 508 -40 l 342 -40 l 373 129 q 174 240 250 145 q 98 465 98 336 q 205 750 98 627 q 508 897 313 872 m 404 298 l 477 720 q 320 626 375 696 q 264 460 264 556 q 404 298 264 322 m 641 720 l 568 298 q 725 392 669 321 q 780 559 780 463 q 641 720 780 696 z "},"α":{"ha":700,"x_min":67,"x_max":751,"o":"m 539 621 l 581 720 l 751 720 l 623 372 q 617 252 617 292 q 630 0 617 150 l 477 0 q 469 89 469 42 q 281 -18 387 -18 q 124 60 180 -18 q 67 281 67 139 q 152 605 67 472 q 361 737 236 737 q 539 621 473 737 m 382 591 q 269 503 316 591 q 221 298 221 415 q 251 172 221 216 q 334 127 281 127 q 447 212 401 127 q 492 428 492 296 q 462 548 492 505 q 382 591 431 591 z "},"δ":{"ha":696,"x_min":75,"x_max":752,"o":"m 221 865 l 243 994 l 752 994 l 723 828 l 439 828 q 562 669 499 733 q 684 390 684 543 q 589 105 684 227 q 351 -17 494 -17 q 149 73 222 -17 q 75 318 75 163 q 142 560 75 460 q 335 700 209 660 q 221 865 285 762 m 408 570 q 281 483 332 570 q 230 290 230 397 q 263 173 230 217 q 348 129 296 129 q 474 216 419 129 q 530 406 530 302 q 496 525 530 481 q 408 570 463 570 z "},"ε":{"ha":547,"x_min":50,"x_max":584,"o":"m 212 382 q 130 529 130 444 q 191 679 130 621 q 357 736 253 736 q 584 631 503 736 l 467 525 q 355 585 414 585 q 307 567 325 585 q 290 522 290 549 q 414 439 290 444 l 388 289 q 353 290 376 290 q 249 262 288 290 q 209 193 209 234 q 228 152 209 168 q 275 136 246 136 q 328 150 300 136 q 362 168 355 163 l 427 215 l 524 86 q 262 -16 413 -16 q 106 39 163 -16 q 50 180 50 94 q 212 382 50 318 z "},"σ":{"ha":750,"x_min":69,"x_max":817,"o":"m 661 553 q 685 412 685 484 q 589 106 685 229 q 345 -17 492 -17 q 145 71 220 -17 q 69 306 69 158 q 161 616 69 494 q 403 737 252 737 q 473 728 436 737 l 508 720 l 817 720 l 790 553 l 661 553 m 351 135 q 475 223 425 135 q 525 437 525 312 q 492 548 525 505 q 406 591 458 591 q 279 505 329 591 q 229 306 229 418 q 263 182 229 229 q 351 135 296 135 z "},"τ":{"ha":465,"x_min":88,"x_max":530,"o":"m 88 553 l 119 720 l 530 720 l 499 553 l 373 553 l 277 0 l 120 0 l 214 553 l 88 553 z "},"φ":{"ha":808,"x_min":76,"x_max":795,"o":"m 246 -277 l 294 -8 q 133 118 191 25 q 76 340 76 212 q 159 612 76 501 q 389 737 243 722 l 356 558 q 235 336 235 515 q 323 155 235 225 l 372 439 q 451 673 401 610 q 585 736 500 736 q 736 656 678 736 q 795 449 795 576 q 705 133 795 258 q 449 -12 614 8 l 404 -277 l 246 -277 m 531 453 l 475 144 q 596 266 552 170 q 641 478 641 361 q 595 578 641 578 q 561 559 574 578 q 531 453 547 541 z "},"‗":{"ha":694,"x_min":-8,"x_max":703,"o":"m -8 -85 l 703 -85 l 703 -155 l -8 -155 l -8 -85 m -8 -222 l 703 -222 l 703 -292 l -8 -292 l -8 -222 z "},"‼":{"ha":758,"x_min":70,"x_max":781,"o":"m 232 253 l 144 253 l 194 760 l 234 994 l 402 994 l 359 743 l 232 253 m 102 188 l 260 188 l 227 0 l 70 0 l 102 188 m 611 253 l 524 253 l 573 760 l 613 994 l 781 994 l 738 743 l 611 253 m 481 188 l 639 188 l 606 0 l 449 0 l 481 188 z "},"ⁿ":{"ha":452,"x_min":109,"x_max":530,"o":"m 193 996 l 304 996 l 296 952 q 422 1006 358 1006 q 503 971 476 1006 q 530 886 530 935 q 519 798 530 861 l 472 545 l 354 545 l 402 802 q 412 865 412 856 q 374 904 412 904 q 323 881 351 904 q 284 828 296 858 q 260 730 273 799 l 226 545 l 109 545 l 193 996 z "},"₧":{"ha":1275,"x_min":47,"x_max":1274,"o":"m 200 994 l 388 994 q 531 948 478 994 q 608 845 583 901 q 633 724 633 789 l 690 724 l 717 895 l 864 895 l 837 724 l 979 724 q 1068 743 1021 743 q 1220 676 1166 743 q 1274 510 1273 609 l 1129 510 q 1112 582 1129 553 q 1065 610 1095 610 q 1022 590 1039 610 q 1005 543 1005 571 q 1024 494 1005 514 q 1088 450 1043 473 q 1236 229 1236 372 q 1169 55 1236 127 q 998 -18 1102 -18 q 842 66 897 -18 l 830 -12 q 758 -18 791 -18 q 648 21 693 -18 q 604 138 604 60 q 613 230 604 166 l 670 592 l 622 592 q 520 421 595 491 q 291 351 445 351 l 264 351 l 210 0 l 47 0 l 200 994 m 291 518 l 315 518 q 434 572 392 518 q 477 700 477 625 q 447 794 477 760 q 363 829 416 829 q 338 827 355 829 l 291 518 m 817 592 l 766 262 q 758 182 758 212 q 771 137 758 149 q 817 125 785 126 q 810 193 810 166 q 812 230 810 205 l 955 230 q 954 212 954 218 q 972 148 954 176 q 1019 120 989 120 q 1072 146 1051 120 q 1093 202 1093 173 q 1070 259 1093 235 q 990 322 1048 284 q 909 387 929 362 q 877 446 889 411 q 865 524 865 481 q 873 592 865 553 l 817 592 z "},"←":{"ha":1389,"x_min":54,"x_max":1335,"o":"m 334 594 l 385 594 q 325 482 345 514 q 253 385 305 450 l 1335 385 l 1335 316 l 253 316 q 387 106 323 243 l 334 106 q 184 255 247 204 q 54 338 121 305 l 54 368 q 178 445 113 393 q 334 594 244 496 z "},"↑":{"ha":694,"x_min":104,"x_max":591,"o":"m 104 628 q 253 784 202 718 q 330 908 304 850 l 361 908 q 443 778 393 841 q 591 627 494 715 l 591 575 q 382 709 455 639 l 382 -291 l 313 -291 l 313 709 q 216 637 248 657 q 104 576 184 616 l 104 628 z "},"→":{"ha":1389,"x_min":54,"x_max":1335,"o":"m 1055 594 q 1211 445 1145 496 q 1335 368 1276 393 l 1335 338 q 1204 255 1267 305 q 1054 106 1141 204 l 1002 106 q 1135 316 1065 243 l 54 316 l 54 385 l 1135 385 q 1063 482 1084 450 q 1003 594 1043 514 l 1055 594 z "},"↓":{"ha":694,"x_min":104,"x_max":591,"o":"m 104 -11 l 104 41 q 216 -20 184 1 q 313 -92 248 -40 l 313 908 l 382 908 l 382 -92 q 591 42 455 -22 l 591 -10 q 443 -161 494 -98 q 361 -291 393 -224 l 330 -291 q 253 -167 304 -233 q 104 -11 202 -101 z "},"↔":{"ha":1389,"x_min":54,"x_max":1335,"o":"m 1335 366 l 1335 336 q 1209 257 1271 307 q 1059 107 1147 208 l 1005 107 q 1137 318 1052 224 l 252 318 q 383 107 336 224 l 329 107 q 179 257 241 208 q 54 336 117 307 l 54 366 q 179 445 117 396 q 329 595 241 494 l 383 595 q 252 385 336 479 l 1137 385 q 1005 595 1052 479 l 1059 595 q 1209 445 1147 494 q 1335 366 1271 396 z "},"↕":{"ha":694,"x_min":103,"x_max":591,"o":"m 332 992 l 362 992 q 441 866 392 928 q 591 716 490 804 l 591 662 q 380 794 475 709 l 380 -92 q 591 40 475 -6 l 591 -14 q 441 -164 490 -102 q 362 -290 392 -226 l 332 -290 q 253 -164 302 -226 q 103 -14 203 -102 l 103 40 q 314 -92 219 -6 l 314 794 q 103 662 219 709 l 103 716 q 253 866 203 804 q 332 992 302 928 z "},"↨":{"ha":694,"x_min":103,"x_max":591,"o":"m 332 992 l 362 992 q 441 866 392 928 q 591 716 490 804 l 591 662 q 380 794 475 709 l 380 -92 q 591 40 475 -6 l 591 -14 q 441 -164 490 -102 q 362 -290 392 -226 l 332 -290 q 253 -164 302 -226 q 103 -14 203 -102 l 103 40 q 314 -92 219 -6 l 314 794 q 103 662 219 709 l 103 716 q 253 866 203 804 q 332 992 302 928 m 104 -354 l 591 -354 l 591 -420 l 104 -420 l 104 -354 z "},"∟":{"ha":1360,"x_min":245,"x_max":1114,"o":"m 245 867 l 313 867 l 313 68 l 1114 68 l 1114 0 l 245 0 l 245 867 z "},"∩":{"ha":1003,"x_min":130,"x_max":869,"o":"m 205 0 l 130 0 l 130 380 q 134 593 130 548 q 164 725 142 673 q 233 826 186 777 q 351 907 281 876 q 500 939 421 939 q 645 909 576 939 q 765 828 714 879 q 838 719 816 777 q 866 575 859 661 q 869 380 869 541 l 869 0 l 795 0 l 795 384 q 791 574 795 532 q 766 694 783 650 q 712 778 749 739 q 617 842 675 817 q 499 867 560 867 q 402 849 449 867 q 321 807 355 832 q 267 754 288 781 q 237 704 246 728 q 212 605 220 663 q 205 384 205 546 l 205 0 z "},"≡":{"ha":665,"x_min":47,"x_max":617,"o":"m 47 703 l 47 879 l 617 879 l 617 703 l 47 703 m 47 403 l 47 578 l 617 578 l 617 403 l 47 403 m 47 102 l 47 277 l 617 277 l 617 102 l 47 102 z "},"⌂":{"ha":833,"x_min":104,"x_max":730,"o":"m 104 0 l 104 430 l 416 782 l 730 430 l 730 0 l 104 0 m 159 55 l 675 55 l 675 407 l 416 696 l 159 407 l 159 55 z "},"⌐":{"ha":665,"x_min":48,"x_max":618,"o":"m 191 255 l 191 554 l 618 554 l 618 728 l 48 728 l 48 255 l 191 255 z "},"⌠":{"ha":839,"x_min":370,"x_max":662,"o":"m 469 -349 l 370 -349 l 370 879 q 431 1103 370 1027 q 568 1178 492 1178 q 638 1156 614 1178 q 662 1104 662 1134 q 645 1059 662 1077 q 602 1042 627 1042 q 564 1052 582 1042 q 535 1083 551 1059 q 504 1108 519 1108 q 483 1100 492 1108 q 473 1082 476 1095 q 469 987 469 1059 l 469 -349 z "},"⌡":{"ha":839,"x_min":177,"x_max":469,"o":"m 370 1178 l 469 1178 l 469 -50 q 408 -274 469 -199 q 271 -349 347 -349 q 201 -327 225 -349 q 177 -275 177 -305 q 194 -231 177 -248 q 236 -213 212 -213 q 276 -224 257 -213 q 304 -255 288 -231 q 335 -279 319 -279 q 356 -272 347 -279 q 366 -252 363 -267 q 370 -159 370 -231 l 370 1178 z "},"─":{"ha":984,"x_min":-16,"x_max":999,"o":"m 999 362 l -16 362 l -16 481 l 999 481 l 999 362 z "},"│":{"ha":855,"x_min":304,"x_max":422,"o":"m 304 -421 l 304 1264 l 422 1264 l 422 -421 l 304 -421 z "},"┌":{"ha":984,"x_min":433,"x_max":1000,"o":"m 1000 481 l 1000 362 l 551 362 l 551 -421 l 433 -421 l 433 481 l 1000 481 z "},"┐":{"ha":984,"x_min":-16,"x_max":551,"o":"m 432 362 l -16 362 l -16 481 l 551 481 l 551 -421 l 432 -421 l 432 362 z "},"└":{"ha":984,"x_min":433,"x_max":1000,"o":"m 433 362 l 433 1264 l 551 1264 l 551 481 l 1000 481 l 1000 362 l 433 362 z "},"┘":{"ha":984,"x_min":-16,"x_max":551,"o":"m 551 362 l -16 362 l -16 481 l 432 481 l 432 1264 l 551 1264 l 551 362 z "},"├":{"ha":984,"x_min":433,"x_max":1000,"o":"m 433 -421 l 433 1264 l 551 1264 l 551 481 l 1000 481 l 1000 362 l 551 362 l 551 -421 l 433 -421 z "},"┤":{"ha":984,"x_min":-16,"x_max":551,"o":"m 432 -421 l 432 362 l -16 362 l -16 481 l 432 481 l 432 1264 l 551 1264 l 551 -421 l 432 -421 z "},"┬":{"ha":984,"x_min":-16,"x_max":999,"o":"m 432 362 l -16 362 l -16 481 l 999 481 l 999 362 l 551 362 l 551 -421 l 432 -421 l 432 362 z "},"┴":{"ha":984,"x_min":-16,"x_max":999,"o":"m 999 362 l -16 362 l -16 481 l 432 481 l 432 1264 l 551 1264 l 551 481 l 999 481 l 999 362 z "},"┼":{"ha":984,"x_min":-16,"x_max":999,"o":"m 432 362 l -16 362 l -16 481 l 432 481 l 432 1264 l 551 1264 l 551 481 l 999 481 l 999 362 l 551 362 l 551 -421 l 432 -421 l 432 362 z "},"═":{"ha":984,"x_min":0,"x_max":1015,"o":"m 1015 491 l 0 491 l 0 610 l 1015 610 l 1015 491 m 1015 233 l 0 233 l 0 352 l 1015 352 l 1015 233 z "},"║":{"ha":984,"x_min":0,"x_max":376,"o":"m 258 -421 l 258 1264 l 376 1264 l 376 -421 l 258 -421 m 0 -421 l 0 1264 l 119 1264 l 119 -421 l 0 -421 z "},"╒":{"ha":984,"x_min":0,"x_max":567,"o":"m 0 -421 l 0 610 l 567 610 l 567 491 l 119 491 l 119 352 l 567 352 l 567 233 l 119 233 l 119 -421 l 0 -421 z "},"╓":{"ha":984,"x_min":0,"x_max":696,"o":"m 0 -421 l 0 481 l 696 481 l 696 362 l 376 362 l 376 -421 l 258 -421 l 258 352 l 119 352 l 119 -421 l 0 -421 z "},"╔":{"ha":984,"x_min":0,"x_max":695,"o":"m 119 -421 l 0 -421 l 0 610 l 695 610 l 695 491 l 119 491 l 119 -421 m 376 233 l 376 -421 l 258 -421 l 258 352 l 695 352 l 695 233 l 376 233 z "},"╕":{"ha":984,"x_min":0,"x_max":566,"o":"m 448 233 l 0 233 l 0 352 l 448 352 l 448 491 l 0 491 l 0 610 l 566 610 l 566 -421 l 448 -421 l 448 233 z "},"╖":{"ha":984,"x_min":0,"x_max":695,"o":"m 319 -421 l 319 362 l 0 362 l 0 481 l 695 481 l 695 -421 l 576 -421 l 576 362 l 437 362 l 437 -421 l 319 -421 z "},"╗":{"ha":984,"x_min":0,"x_max":695,"o":"m 576 -421 l 576 491 l 0 491 l 0 610 l 695 610 l 695 -421 l 576 -421 m 319 233 l 0 233 l 0 352 l 437 352 l 437 -421 l 319 -421 l 319 233 z "},"╘":{"ha":984,"x_min":0,"x_max":567,"o":"m 0 233 l 0 1264 l 119 1264 l 119 610 l 567 610 l 567 491 l 119 491 l 119 352 l 567 352 l 567 233 l 0 233 z "},"╙":{"ha":984,"x_min":0,"x_max":696,"o":"m 696 362 l 0 362 l 0 1264 l 119 1264 l 119 481 l 258 481 l 258 1264 l 376 1264 l 376 481 l 696 481 l 696 362 z "},"╚":{"ha":984,"x_min":0,"x_max":695,"o":"m 119 1264 l 119 352 l 695 352 l 695 233 l 0 233 l 0 1264 l 119 1264 m 376 610 l 695 610 l 695 491 l 258 491 l 258 1264 l 376 1264 l 376 610 z "},"╛":{"ha":984,"x_min":0,"x_max":566,"o":"m 566 233 l 0 233 l 0 352 l 448 352 l 448 491 l 0 491 l 0 610 l 448 610 l 448 1264 l 566 1264 l 566 233 z "},"╜":{"ha":984,"x_min":0,"x_max":695,"o":"m 695 362 l 0 362 l 0 481 l 319 481 l 319 1264 l 437 1264 l 437 481 l 576 481 l 576 1264 l 695 1264 l 695 362 z "},"╝":{"ha":984,"x_min":0,"x_max":695,"o":"m 576 1264 l 695 1264 l 695 233 l 0 233 l 0 352 l 576 352 l 576 1264 m 319 610 l 319 1264 l 437 1264 l 437 491 l 0 491 l 0 610 l 319 610 z "},"╞":{"ha":984,"x_min":0,"x_max":567,"o":"m 0 -421 l 0 1264 l 119 1264 l 119 610 l 567 610 l 567 491 l 119 491 l 119 352 l 567 352 l 567 233 l 119 233 l 119 -421 l 0 -421 z "},"╟":{"ha":984,"x_min":0,"x_max":696,"o":"m 258 -421 l 258 1264 l 376 1264 l 376 481 l 696 481 l 696 362 l 376 362 l 376 -421 l 258 -421 m 0 -421 l 0 1264 l 119 1264 l 119 -421 l 0 -421 z "},"╠":{"ha":984,"x_min":0,"x_max":696,"o":"m 0 -421 l 0 1264 l 119 1264 l 119 -421 l 0 -421 m 258 491 l 258 1264 l 376 1264 l 376 610 l 696 610 l 696 491 l 258 491 m 258 -421 l 258 352 l 696 352 l 696 233 l 376 233 l 376 -421 l 258 -421 z "},"╡":{"ha":984,"x_min":0,"x_max":566,"o":"m 448 233 l 0 233 l 0 352 l 448 352 l 448 491 l 0 491 l 0 610 l 448 610 l 448 1264 l 566 1264 l 566 -421 l 448 -421 l 448 233 z "},"╢":{"ha":984,"x_min":0,"x_max":695,"o":"m 319 -421 l 319 362 l 0 362 l 0 481 l 319 481 l 319 1264 l 437 1264 l 437 -421 l 319 -421 m 576 -421 l 576 1264 l 695 1264 l 695 -421 l 576 -421 z "},"╣":{"ha":984,"x_min":0,"x_max":695,"o":"m 576 -421 l 576 1264 l 695 1264 l 695 -421 l 576 -421 m 437 1264 l 437 491 l 0 491 l 0 610 l 319 610 l 319 1264 l 437 1264 m 319 233 l 0 233 l 0 352 l 437 352 l 437 -421 l 319 -421 l 319 233 z "},"╤":{"ha":984,"x_min":0,"x_max":1015,"o":"m 1015 491 l 0 491 l 0 610 l 1015 610 l 1015 491 m 448 233 l 0 233 l 0 352 l 1015 352 l 1015 233 l 566 233 l 566 -421 l 448 -421 l 448 233 z "},"╥":{"ha":984,"x_min":0,"x_max":1015,"o":"m 319 -421 l 319 362 l 0 362 l 0 481 l 1015 481 l 1015 362 l 695 362 l 695 -421 l 576 -421 l 576 352 l 437 352 l 437 -421 l 319 -421 z "},"╦":{"ha":984,"x_min":0,"x_max":1015,"o":"m 1015 491 l 0 491 l 0 610 l 1015 610 l 1015 491 m 319 233 l 0 233 l 0 352 l 437 352 l 437 -421 l 319 -421 l 319 233 m 576 -421 l 576 352 l 1015 352 l 1015 233 l 695 233 l 695 -421 l 576 -421 z "},"╧":{"ha":984,"x_min":0,"x_max":1015,"o":"m 1015 491 l 0 491 l 0 610 l 448 610 l 448 1264 l 566 1264 l 566 610 l 1015 610 l 1015 491 m 1015 233 l 0 233 l 0 352 l 1015 352 l 1015 233 z "},"╨":{"ha":984,"x_min":0,"x_max":1015,"o":"m 1015 362 l 0 362 l 0 481 l 319 481 l 319 1264 l 437 1264 l 437 481 l 576 481 l 576 1264 l 695 1264 l 695 481 l 1015 481 l 1015 362 z "},"╩":{"ha":984,"x_min":0,"x_max":1015,"o":"m 437 491 l 0 491 l 0 610 l 319 610 l 319 1264 l 437 1264 l 437 491 m 1015 491 l 576 491 l 576 1264 l 695 1264 l 695 610 l 1015 610 l 1015 491 m 1015 233 l 0 233 l 0 352 l 1015 352 l 1015 233 z "},"╪":{"ha":984,"x_min":0,"x_max":1015,"o":"m 448 233 l 0 233 l 0 352 l 448 352 l 448 491 l 0 491 l 0 610 l 448 610 l 448 1264 l 566 1264 l 566 610 l 1015 610 l 1015 491 l 566 491 l 566 352 l 1015 352 l 1015 233 l 566 233 l 566 -421 l 448 -421 l 448 233 z "},"╫":{"ha":984,"x_min":0,"x_max":1015,"o":"m 319 -421 l 319 362 l 0 362 l 0 481 l 319 481 l 319 1264 l 437 1264 l 437 481 l 576 481 l 576 1264 l 695 1264 l 695 481 l 1015 481 l 1015 362 l 695 362 l 695 -421 l 576 -421 l 576 362 l 437 362 l 437 -421 l 319 -421 z "},"╬":{"ha":984,"x_min":0,"x_max":1015,"o":"m 696 610 l 1015 610 l 1015 491 l 577 491 l 577 1264 l 696 1264 l 696 610 m 319 610 l 319 1264 l 437 1264 l 437 491 l 0 491 l 0 610 l 319 610 m 319 233 l 0 233 l 0 352 l 437 352 l 437 -421 l 319 -421 l 319 233 m 696 233 l 696 -421 l 577 -421 l 577 352 l 1015 352 l 1015 233 l 696 233 z "},"▀":{"ha":984,"x_min":0,"x_max":1015,"o":"m 1015 421 l 0 421 l 0 1264 l 1015 1264 l 1015 421 z "},"▄":{"ha":984,"x_min":0,"x_max":1015,"o":"m 1015 -421 l 0 -421 l 0 421 l 1015 421 l 1015 -421 z "},"█":{"ha":984,"x_min":0,"x_max":1015,"o":"m 0 -421 l 0 1264 l 1015 1264 l 1015 -421 l 0 -421 z "},"▌":{"ha":984,"x_min":0,"x_max":507,"o":"m 0 -421 l 0 1264 l 507 1264 l 507 -421 l 0 -421 z "},"▐":{"ha":984,"x_min":0,"x_max":507,"o":"m 0 -421 l 0 1264 l 507 1264 l 507 -421 l 0 -421 z "},"░":{"ha":984,"x_min":69,"x_max":999,"o":"m 69 1264 l 154 1264 l 154 1179 l 69 1179 l 69 1264 m 407 1264 l 492 1264 l 492 1179 l 407 1179 l 407 1264 m 745 1264 l 830 1264 l 830 1179 l 745 1179 l 745 1264 m 238 1095 l 323 1095 l 323 1010 l 238 1010 l 238 1095 m 576 1095 l 661 1095 l 661 1010 l 576 1010 l 576 1095 m 914 1095 l 999 1095 l 999 1010 l 914 1010 l 914 1095 m 745 926 l 830 926 l 830 842 l 745 842 l 745 926 m 407 926 l 492 926 l 492 842 l 407 842 l 407 926 m 69 926 l 154 926 l 154 842 l 69 842 l 69 926 m 914 757 l 999 757 l 999 673 l 914 673 l 914 757 m 576 757 l 661 757 l 661 673 l 576 673 l 576 757 m 238 757 l 323 757 l 323 673 l 238 673 l 238 757 m 69 588 l 154 588 l 154 503 l 69 503 l 69 588 m 407 588 l 492 588 l 492 503 l 407 503 l 407 588 m 745 588 l 830 588 l 830 503 l 745 503 l 745 588 m 914 419 l 999 419 l 999 334 l 914 334 l 914 419 m 576 419 l 661 419 l 661 334 l 576 334 l 576 419 m 238 419 l 323 419 l 323 334 l 238 334 l 238 419 m 69 250 l 154 250 l 154 165 l 69 165 l 69 250 m 407 250 l 492 250 l 492 165 l 407 165 l 407 250 m 745 250 l 830 250 l 830 165 l 745 165 l 745 250 m 238 81 l 323 81 l 323 -3 l 238 -3 l 238 81 m 576 81 l 661 81 l 661 -3 l 576 -3 l 576 81 m 914 81 l 999 81 l 999 -3 l 914 -3 l 914 81 m 745 -88 l 830 -88 l 830 -173 l 745 -173 l 745 -88 m 407 -88 l 492 -88 l 492 -173 l 407 -173 l 407 -88 m 69 -88 l 154 -88 l 154 -173 l 69 -173 l 69 -88 m 238 -257 l 323 -257 l 323 -342 l 238 -342 l 238 -257 m 576 -257 l 661 -257 l 661 -342 l 576 -342 l 576 -257 m 914 -257 l 999 -257 l 999 -342 l 914 -342 l 914 -257 z "},"▒":{"ha":984,"x_min":-15,"x_max":999,"o":"m 70 1264 l 154 1264 l 154 1179 l 70 1179 l 70 1264 m 239 1264 l 323 1264 l 323 1179 l 239 1179 l 239 1264 m 408 1264 l 492 1264 l 492 1179 l 408 1179 l 408 1264 m 576 1264 l 661 1264 l 661 1179 l 576 1179 l 576 1264 m 746 1264 l 830 1264 l 830 1179 l 746 1179 l 746 1264 m 915 1264 l 999 1264 l 999 1179 l 915 1179 l 915 1264 m -15 1095 l 70 1095 l 70 1010 l -15 1010 l -15 1095 m 154 1095 l 239 1095 l 239 1010 l 154 1010 l 154 1095 m 323 1095 l 408 1095 l 408 1010 l 323 1010 l 323 1095 m 492 1095 l 576 1095 l 576 1010 l 492 1010 l 492 1095 m 661 1095 l 746 1095 l 746 1010 l 661 1010 l 661 1095 m 830 1095 l 915 1095 l 915 1010 l 830 1010 l 830 1095 m 70 926 l 154 926 l 154 842 l 70 842 l 70 926 m 239 926 l 323 926 l 323 842 l 239 842 l 239 926 m 408 926 l 492 926 l 492 842 l 408 842 l 408 926 m 576 926 l 661 926 l 661 842 l 576 842 l 576 926 m 746 926 l 830 926 l 830 842 l 746 842 l 746 926 m 915 926 l 999 926 l 999 842 l 915 842 l 915 926 m 154 757 l 239 757 l 239 673 l 154 673 l 154 757 m 323 757 l 408 757 l 408 673 l 323 673 l 323 757 m 492 757 l 576 757 l 576 673 l 492 673 l 492 757 m 661 757 l 746 757 l 746 673 l 661 673 l 661 757 m 830 757 l 915 757 l 915 673 l 830 673 l 830 757 m -15 757 l 70 757 l 70 673 l -15 673 l -15 757 m 70 588 l 154 588 l 154 503 l 70 503 l 70 588 m 239 588 l 323 588 l 323 503 l 239 503 l 239 588 m 408 588 l 492 588 l 492 503 l 408 503 l 408 588 m 576 588 l 661 588 l 661 503 l 576 503 l 576 588 m 746 588 l 830 588 l 830 503 l 746 503 l 746 588 m 915 588 l 999 588 l 999 503 l 915 503 l 915 588 m -15 419 l 70 419 l 70 334 l -15 334 l -15 419 m 323 419 l 408 419 l 408 334 l 323 334 l 323 419 m 492 419 l 576 419 l 576 334 l 492 334 l 492 419 m 661 419 l 746 419 l 746 334 l 661 334 l 661 419 m 830 419 l 915 419 l 915 334 l 830 334 l 830 419 m 154 419 l 239 419 l 239 334 l 154 334 l 154 419 m 915 250 l 999 250 l 999 165 l 915 165 l 915 250 m 746 250 l 830 250 l 830 165 l 746 165 l 746 250 m 576 250 l 661 250 l 661 165 l 576 165 l 576 250 m 408 250 l 492 250 l 492 165 l 408 165 l 408 250 m 239 250 l 323 250 l 323 165 l 239 165 l 239 250 m 70 250 l 154 250 l 154 165 l 70 165 l 70 250 m -15 81 l 70 81 l 70 -3 l -15 -3 l -15 81 m 154 81 l 239 81 l 239 -3 l 154 -3 l 154 81 m 323 81 l 408 81 l 408 -3 l 323 -3 l 323 81 m 492 81 l 576 81 l 576 -3 l 492 -3 l 492 81 m 661 81 l 746 81 l 746 -3 l 661 -3 l 661 81 m 830 81 l 915 81 l 915 -3 l 830 -3 l 830 81 m 915 -88 l 999 -88 l 999 -173 l 915 -173 l 915 -88 m 746 -88 l 830 -88 l 830 -173 l 746 -173 l 746 -88 m 576 -88 l 661 -88 l 661 -173 l 576 -173 l 576 -88 m 408 -88 l 492 -88 l 492 -173 l 408 -173 l 408 -88 m 239 -88 l 323 -88 l 323 -173 l 239 -173 l 239 -88 m 70 -88 l 154 -88 l 154 -173 l 70 -173 l 70 -88 m -15 -257 l 70 -257 l 70 -342 l -15 -342 l -15 -257 m 154 -257 l 239 -257 l 239 -342 l 154 -342 l 154 -257 m 323 -257 l 408 -257 l 408 -342 l 323 -342 l 323 -257 m 492 -257 l 576 -257 l 576 -342 l 492 -342 l 492 -257 m 661 -257 l 746 -257 l 746 -342 l 661 -342 l 661 -257 m 830 -257 l 915 -257 l 915 -342 l 830 -342 l 830 -257 z "},"▓":{"ha":1013,"x_min":-1,"x_max":1013,"o":"m 1013 1010 l 1013 757 l 929 757 l 929 673 l 1013 673 l 1013 419 l 929 419 l 929 334 l 1013 334 l 1013 81 l 929 81 l 929 -3 l 1013 -3 l 1013 -257 l 929 -257 l 929 -342 l 1013 -342 l 1013 -426 l -1 -426 l -1 -173 l 84 -173 l 84 -88 l -1 -88 l -1 165 l 84 165 l 84 250 l -1 250 l -1 503 l 84 503 l 84 588 l -1 588 l -1 842 l 84 842 l 84 926 l -1 926 l -1 1179 l 84 1179 l 84 1264 l 168 1264 l 168 1179 l 253 1179 l 253 1264 l 337 1264 l 337 1179 l 422 1179 l 422 1264 l 507 1264 l 507 1179 l 591 1179 l 591 1264 l 675 1264 l 675 1179 l 760 1179 l 760 1264 l 844 1264 l 844 1179 l 929 1179 l 929 1264 l 1013 1264 l 1013 1095 l 929 1095 l 929 1010 l 1013 1010 m 84 1095 l 84 1010 l 168 1010 l 168 1095 l 84 1095 m 253 1095 l 253 1010 l 337 1010 l 337 1095 l 253 1095 m 422 1095 l 422 1010 l 507 1010 l 507 1095 l 422 1095 m 591 1095 l 591 1010 l 675 1010 l 675 1095 l 591 1095 m 760 1095 l 760 1010 l 844 1010 l 844 1095 l 760 1095 m 929 926 l 844 926 l 844 842 l 929 842 l 929 926 m 760 926 l 675 926 l 675 842 l 760 842 l 760 926 m 591 926 l 507 926 l 507 842 l 591 842 l 591 926 m 422 926 l 337 926 l 337 842 l 422 842 l 422 926 m 253 926 l 168 926 l 168 842 l 253 842 l 253 926 m 84 757 l 84 673 l 168 673 l 168 757 l 84 757 m 253 757 l 253 673 l 337 673 l 337 757 l 253 757 m 422 757 l 422 673 l 507 673 l 507 757 l 422 757 m 591 757 l 591 673 l 675 673 l 675 757 l 591 757 m 760 757 l 760 673 l 844 673 l 844 757 l 760 757 m 253 588 l 168 588 l 168 503 l 253 503 l 253 588 m 337 588 l 337 503 l 422 503 l 422 588 l 337 588 m 507 588 l 507 503 l 591 503 l 591 588 l 507 588 m 675 588 l 675 503 l 760 503 l 760 588 l 675 588 m 844 588 l 844 503 l 929 503 l 929 588 l 844 588 m 84 419 l 84 334 l 168 334 l 168 419 l 84 419 m 422 419 l 422 334 l 507 334 l 507 419 l 422 419 m 337 334 l 337 419 l 253 419 l 253 334 l 337 334 m 591 419 l 591 334 l 675 334 l 675 419 l 591 419 m 760 419 l 760 334 l 844 334 l 844 419 l 760 419 m 929 165 l 929 250 l 844 250 l 844 165 l 929 165 m 760 165 l 760 250 l 675 250 l 675 165 l 760 165 m 591 165 l 591 250 l 507 250 l 507 165 l 591 165 m 422 165 l 422 250 l 337 250 l 337 165 l 422 165 m 253 165 l 253 250 l 168 250 l 168 165 l 253 165 m 84 81 l 84 -3 l 168 -3 l 168 81 l 84 81 m 253 81 l 253 -3 l 337 -3 l 337 81 l 253 81 m 422 81 l 422 -3 l 507 -3 l 507 81 l 422 81 m 591 81 l 591 -3 l 675 -3 l 675 81 l 591 81 m 760 81 l 760 -3 l 844 -3 l 844 81 l 760 81 m 929 -173 l 929 -88 l 844 -88 l 844 -173 l 929 -173 m 760 -173 l 760 -88 l 675 -88 l 675 -173 l 760 -173 m 591 -173 l 591 -88 l 507 -88 l 507 -173 l 591 -173 m 422 -173 l 422 -88 l 337 -88 l 337 -173 l 422 -173 m 253 -173 l 253 -88 l 168 -88 l 168 -173 l 253 -173 m 84 -257 l 84 -342 l 168 -342 l 168 -257 l 84 -257 m 253 -257 l 253 -342 l 337 -342 l 337 -257 l 253 -257 m 422 -257 l 422 -342 l 507 -342 l 507 -257 l 422 -257 m 591 -257 l 591 -342 l 675 -342 l 675 -257 l 591 -257 m 760 -257 l 760 -342 l 844 -342 l 844 -257 l 760 -257 z "},"■":{"ha":839,"x_min":0,"x_max":640,"o":"m 0 640 l 640 640 l 640 0 l 0 0 l 0 640 z "},"▬":{"ha":1389,"x_min":0,"x_max":1388,"o":"m 0 477 l 1388 477 l 1388 215 l 0 215 l 0 477 z "},"▲":{"ha":1375,"x_min":0,"x_max":963,"o":"m 0 0 l 481 962 l 963 0 l 0 0 z "},"►":{"ha":1375,"x_min":0,"x_max":984,"o":"m 0 961 l 984 470 l 0 -21 l 0 961 z "},"▼":{"ha":1375,"x_min":0,"x_max":963,"o":"m 963 941 l 481 -21 l 0 941 l 963 941 z "},"◄":{"ha":1375,"x_min":195,"x_max":1179,"o":"m 1179 961 l 1179 -21 l 195 470 l 1179 961 z "},"○":{"ha":839,"x_min":0,"x_max":597,"o":"m 299 690 q 446 652 374 690 q 557 541 517 613 q 597 392 597 469 q 510 180 597 268 q 299 93 422 93 q 87 180 175 93 q 0 392 0 268 q 40 542 0 470 q 152 652 80 613 q 299 690 224 690 m 299 639 q 177 607 236 639 q 85 515 118 575 q 52 392 52 456 q 124 217 52 290 q 299 144 197 144 q 474 217 401 144 q 546 392 546 290 q 513 515 546 456 q 420 607 479 575 q 299 639 361 639 z "},"◘":{"ha":839,"x_min":0,"x_max":665,"o":"m 0 0 l 0 665 l 665 665 l 665 0 l 0 0 m 332 469 q 235 429 275 469 q 195 332 195 389 q 236 236 195 276 q 332 195 276 195 q 429 236 389 195 q 469 332 469 276 q 429 429 469 389 q 332 469 389 469 z "},"◙":{"ha":839,"x_min":0,"x_max":783,"o":"m 0 0 l 0 783 l 783 783 l 783 0 l 0 0 m 391 690 q 244 652 316 690 q 133 541 173 613 q 93 391 93 469 q 180 180 93 268 q 391 93 268 93 q 603 180 515 93 q 690 391 690 268 q 650 541 690 469 q 539 652 610 613 q 391 690 467 690 m 392 639 q 513 607 454 639 q 606 516 572 575 q 639 391 639 456 q 567 217 639 289 q 392 144 494 144 q 217 217 289 144 q 144 391 144 289 q 178 516 144 456 q 270 607 211 575 q 392 639 330 639 z "},"☺":{"ha":1418,"x_min":277,"x_max":1142,"o":"m 709 784 q 922 728 818 784 q 1084 568 1025 672 q 1142 351 1142 464 q 1085 137 1142 239 q 924 -23 1027 34 q 709 -81 821 -81 q 494 -23 597 -81 q 334 137 391 34 q 277 351 277 239 q 335 568 277 464 q 496 728 393 672 q 709 784 600 784 m 709 721 q 528 673 616 721 q 390 536 439 625 q 340 351 340 448 q 389 168 340 256 q 526 31 437 80 q 709 -18 614 -18 q 893 31 805 -18 q 1030 168 981 80 q 1079 351 1079 256 q 1029 536 1079 448 q 891 673 979 625 q 709 721 802 721 m 543 496 q 582 480 566 496 q 598 441 598 464 q 582 402 598 418 q 543 386 566 386 q 505 402 521 386 q 488 441 488 418 q 505 480 488 464 q 543 496 521 496 m 875 496 q 914 480 898 496 q 930 441 930 464 q 914 402 930 418 q 875 386 898 386 q 836 402 852 386 q 820 441 820 418 q 836 480 820 464 q 875 496 852 496 m 510 212 l 552 237 q 709 139 606 139 q 866 237 813 139 l 909 212 q 825 114 875 148 q 709 80 775 80 q 593 114 643 80 q 510 212 544 148 z "},"☻":{"ha":1461,"x_min":298,"x_max":1164,"o":"m 731 784 q 943 728 840 784 q 1105 568 1047 672 q 1164 351 1164 464 q 1106 137 1164 239 q 946 -23 1049 34 q 731 -81 843 -81 q 516 -23 618 -81 q 356 137 413 34 q 298 351 298 239 q 356 568 298 464 q 518 728 414 672 q 731 784 622 784 m 565 496 q 526 480 543 496 q 510 441 510 464 q 526 402 510 418 q 565 386 543 386 q 604 402 588 386 q 620 441 620 418 q 604 480 620 464 q 565 496 588 496 m 897 496 q 858 480 873 496 q 842 441 842 464 q 858 402 842 418 q 897 386 874 386 q 936 402 920 386 q 951 441 951 418 q 936 480 951 464 q 897 496 920 496 m 532 212 q 615 114 566 148 q 731 80 665 80 q 847 114 797 80 q 930 212 897 148 l 888 237 q 731 139 835 139 q 574 237 627 139 l 532 212 z "},"☼":{"ha":1273,"x_min":0,"x_max":1252,"o":"m 601 1099 l 652 1099 l 652 871 q 775 845 722 866 q 889 775 829 823 l 1086 968 l 1121 932 l 927 738 q 997 623 977 673 q 1024 495 1023 558 l 1252 495 l 1252 448 l 1025 448 q 928 213 1012 320 l 1121 16 l 1082 -18 l 890 173 q 774 105 824 124 q 652 77 725 85 l 652 -151 l 601 -151 l 601 77 q 473 109 525 87 q 367 171 421 130 l 168 -18 l 133 17 l 326 211 q 258 323 281 268 q 228 451 235 379 l 0 451 l 0 498 l 228 498 q 256 624 234 570 q 326 734 279 677 l 133 929 l 165 968 l 363 777 q 485 845 432 824 q 601 871 538 865 l 601 1099 m 625 821 q 454 777 537 821 q 324 648 370 732 q 277 474 277 564 q 323 301 277 384 q 452 172 369 218 q 625 126 534 126 q 798 172 715 126 q 926 301 880 218 q 972 474 972 384 q 926 648 972 564 q 795 777 879 732 q 625 821 712 821 z "},"♀":{"ha":1042,"x_min":165,"x_max":876,"o":"m 540 313 l 540 40 l 851 40 l 851 0 l 540 0 l 540 -298 l 500 -298 l 500 0 l 188 0 l 188 40 l 500 40 l 500 313 q 347 357 430 313 q 215 487 264 401 q 165 667 165 572 q 213 844 165 759 q 344 975 260 928 q 521 1022 428 1022 q 697 975 613 1022 q 829 843 782 928 q 876 667 876 759 q 778 422 876 525 q 540 313 681 319 m 520 984 q 364 943 440 984 q 245 825 288 902 q 202 666 202 749 q 295 440 202 534 q 520 347 389 347 q 746 440 652 347 q 839 666 839 534 q 796 825 839 749 q 677 943 753 902 q 520 984 601 984 z "},"♂":{"ha":1042,"x_min":75,"x_max":960,"o":"m 825 1099 l 849 1088 l 960 636 l 921 626 l 825 1020 l 582 499 q 734 362 682 448 q 785 178 785 276 q 739 1 785 85 q 607 -131 692 -83 q 430 -178 523 -178 q 253 -131 338 -178 q 122 1 169 -83 q 75 178 75 85 q 179 429 75 325 q 432 532 283 532 q 545 514 485 532 l 789 1037 l 425 857 l 408 893 l 825 1099 m 430 496 q 274 455 350 496 q 155 337 197 414 q 112 178 112 260 q 205 -48 112 45 q 430 -141 298 -141 q 655 -48 562 -141 q 749 178 749 45 q 706 337 749 260 q 587 455 663 414 q 430 496 511 496 z "},"♠":{"ha":738,"x_min":0,"x_max":659,"o":"m 330 835 q 385 704 348 762 q 515 561 421 646 q 634 430 609 476 q 659 338 659 385 q 616 230 659 273 q 511 186 572 186 q 338 315 406 186 q 365 157 339 216 q 446 65 390 98 q 594 25 501 31 l 599 0 l 62 0 l 66 25 q 260 98 191 25 q 326 315 329 171 q 251 219 296 251 q 149 186 205 186 q 44 231 88 186 q 0 335 0 275 q 22 425 0 385 q 128 543 52 481 q 275 699 223 621 q 330 835 313 755 z "},"♣":{"ha":911,"x_min":37,"x_max":873,"o":"m 745 0 l 170 0 l 175 23 q 323 70 287 47 q 413 172 378 104 q 448 315 448 240 l 448 347 q 347 224 406 262 q 226 185 288 185 q 92 240 147 185 q 37 375 37 295 q 87 508 37 454 q 201 562 138 562 q 312 527 242 562 q 275 598 283 574 q 267 650 267 623 q 320 782 267 728 q 454 835 374 835 q 588 782 534 835 q 643 653 643 728 q 596 527 643 593 q 665 557 653 554 q 706 563 683 563 q 824 510 774 563 q 873 378 873 456 q 819 241 873 296 q 688 186 764 186 q 601 207 646 186 q 522 262 555 227 q 463 347 498 287 q 495 176 465 239 q 588 72 526 113 q 739 23 630 44 l 745 0 z "},"♥":{"ha":825,"x_min":0,"x_max":739,"o":"m 371 -16 q 311 134 350 64 q 160 352 272 204 q 59 490 78 460 q 14 577 28 537 q 0 657 0 616 q 50 783 0 732 q 175 834 100 834 q 304 781 249 834 q 371 664 345 742 q 448 792 395 750 q 563 835 500 835 q 688 785 637 835 q 739 665 739 734 q 710 538 739 604 q 594 363 680 472 q 437 142 483 223 q 371 -16 392 62 z "},"♦":{"ha":709,"x_min":0,"x_max":623,"o":"m 310 835 q 465 606 370 732 q 623 410 560 479 q 458 205 572 357 q 311 -16 366 81 q 190 166 281 39 q 0 410 127 254 q 176 632 68 488 q 310 835 256 739 z "},"♪":{"ha":694,"x_min":25,"x_max":669,"o":"m 330 924 l 355 924 q 509 915 472 924 q 604 863 563 901 q 652 782 634 834 q 669 661 669 730 l 669 591 l 602 591 l 602 621 q 583 699 602 667 q 526 748 564 731 q 416 770 476 770 l 397 770 l 397 203 q 375 76 397 121 q 300 2 353 30 q 185 -25 248 -25 q 68 17 111 -25 q 25 126 25 58 q 77 246 25 197 q 212 294 128 294 q 330 263 264 294 l 330 924 z "},"♫":{"ha":1042,"x_min":58,"x_max":902,"o":"m 362 862 l 902 1030 l 902 279 q 881 152 902 195 q 808 81 859 109 q 692 54 757 54 q 574 96 618 54 q 530 205 530 138 q 583 322 530 273 q 718 372 635 372 q 765 367 745 372 q 833 342 786 362 l 833 833 l 429 708 l 429 141 q 408 13 429 59 q 333 -60 386 -33 q 218 -87 280 -87 q 101 -45 144 -87 q 58 64 58 -3 q 109 183 58 135 q 244 232 161 232 q 362 201 297 232 l 362 862 z "},"Ĳ":{"ha":950,"x_min":40,"x_max":1000,"o":"m 40 0 l 210 994 l 378 994 l 208 0 l 40 0 m 836 994 l 1000 994 l 897 392 q 784 62 854 140 q 585 -17 714 -17 q 411 46 472 -17 q 350 227 350 109 q 353 281 350 251 l 508 301 q 505 253 505 272 q 528 178 505 202 q 595 154 551 154 q 685 199 659 154 q 733 399 705 233 l 836 994 z "},"ĳ":{"ha":633,"x_min":46,"x_max":694,"o":"m 216 994 l 376 994 l 346 818 l 186 818 l 216 994 m 170 720 l 329 720 l 205 0 l 46 0 l 170 720 m 534 994 l 694 994 l 664 818 l 504 818 l 534 994 m 487 720 l 648 720 l 543 111 q 467 -205 498 -150 q 310 -292 418 -292 q 193 -271 247 -292 l 218 -110 q 282 -121 256 -121 q 336 -88 317 -121 q 385 123 355 -55 l 487 720 z "},"ŉ":{"ha":972,"x_min":124,"x_max":945,"o":"m 443 720 l 594 720 l 578 627 q 687 712 637 688 q 788 736 736 736 q 902 687 859 736 q 945 551 945 637 q 927 408 945 514 l 857 0 l 697 0 l 768 408 q 783 518 783 500 q 765 577 783 557 q 716 598 746 598 q 650 572 684 598 q 577 485 601 536 q 530 296 553 435 l 479 0 l 319 0 l 443 720 m 193 994 l 354 994 l 328 839 q 254 647 304 703 q 124 590 203 592 l 140 680 q 201 719 179 691 q 235 806 223 746 l 161 806 l 193 994 z "},"′":{"ha":271,"x_min":172,"x_max":374,"o":"m 172 641 l 175 826 l 204 994 l 374 994 l 345 826 l 288 641 l 172 641 z "},"″":{"ha":541,"x_min":169,"x_max":622,"o":"m 169 641 l 172 826 l 201 994 l 371 994 l 342 826 l 284 641 l 169 641 m 420 641 l 422 826 l 452 994 l 622 994 l 593 826 l 535 641 l 420 641 z "},"℅":{"ha":1130,"x_min":103,"x_max":1105,"o":"m 347 692 l 461 667 q 270 483 409 483 q 145 544 188 483 q 103 697 103 604 q 166 924 103 836 q 328 1011 229 1011 q 440 964 397 1011 q 488 838 483 918 l 374 822 q 321 904 367 904 q 251 840 281 904 q 220 684 220 775 q 236 618 220 640 q 269 597 251 597 q 347 692 319 597 m 284 -41 l 187 -41 l 934 1006 l 1030 1006 l 284 -41 m 696 211 q 754 428 696 340 q 922 517 812 517 q 1057 455 1008 517 q 1105 286 1105 393 q 1045 77 1105 166 q 880 -12 984 -12 q 746 50 795 -12 q 696 211 696 111 m 987 307 q 970 377 987 347 q 920 408 953 408 q 845 348 874 408 q 815 214 815 288 q 834 134 815 167 q 885 101 852 101 q 958 165 929 101 q 987 307 987 230 z "},"ℓ":{"ha":739,"x_min":83,"x_max":770,"o":"m 90 277 l 83 446 q 203 489 145 467 q 347 901 254 790 q 562 1011 439 1011 q 712 950 654 1011 q 770 808 770 889 q 375 386 770 561 q 343 194 343 252 q 404 128 343 128 q 627 211 487 128 l 588 36 q 394 -17 492 -17 q 217 49 277 -17 q 157 205 157 115 q 167 302 157 235 l 90 277 m 419 589 q 609 806 609 696 q 597 845 609 828 q 566 861 585 861 q 498 822 530 861 q 434 647 467 783 l 419 589 z "},"□":{"ha":839,"x_min":99,"x_max":739,"o":"m 99 640 l 739 640 l 739 0 l 99 0 l 99 640 m 151 589 l 151 52 l 688 52 l 688 589 l 151 589 z "},"▪":{"ha":492,"x_min":89,"x_max":403,"o":"m 403 616 l 403 302 l 89 302 l 89 616 l 403 616 z "},"▫":{"ha":492,"x_min":89,"x_max":403,"o":"m 403 616 l 403 302 l 89 302 l 89 616 l 403 616 m 351 565 l 140 564 l 140 353 l 351 353 l 351 565 z "},"●":{"ha":839,"x_min":121,"x_max":718,"o":"m 420 690 q 566 652 494 690 q 678 541 638 613 q 718 392 718 469 q 631 180 718 268 q 420 93 543 93 q 208 180 296 93 q 121 392 121 268 q 161 542 121 470 q 273 652 201 613 q 420 690 345 690 z "},"◦":{"ha":492,"x_min":76,"x_max":416,"o":"m 246 629 q 367 579 317 629 q 416 459 416 530 q 367 339 416 389 q 246 289 317 289 q 126 339 176 289 q 76 459 76 389 q 125 579 76 530 q 246 629 175 629 m 246 578 q 162 543 197 578 q 127 459 127 508 q 162 375 127 410 q 246 340 197 340 q 330 375 295 340 q 365 459 365 410 q 330 543 365 508 q 246 578 296 578 z "},"Ā":{"ha":822,"x_min":-13,"x_max":766,"o":"m 581 220 l 257 220 l 159 0 l -13 0 l 448 994 l 634 994 l 766 0 l 608 0 l 581 220 m 559 385 l 513 785 l 333 385 l 559 385 m 396 1196 l 752 1196 l 730 1065 l 374 1065 l 396 1196 z "},"ā":{"ha":633,"x_min":52,"x_max":608,"o":"m 271 516 l 115 532 q 212 684 143 632 q 385 736 280 736 q 550 683 492 736 q 608 542 608 630 q 603 475 608 511 q 570 283 599 440 q 547 102 547 153 q 559 0 547 55 l 405 0 q 393 81 395 39 q 312 9 358 34 q 221 -16 267 -16 q 100 41 149 -16 q 52 193 52 98 q 107 361 52 302 q 292 432 162 420 q 444 460 406 444 q 454 526 454 501 q 432 578 454 558 q 372 598 410 598 q 271 516 290 598 m 423 336 q 385 327 408 331 q 237 283 273 311 q 201 210 201 256 q 222 151 201 174 q 275 129 243 129 q 338 148 308 129 q 387 200 369 166 q 418 310 406 233 l 423 336 m 231 906 l 587 906 l 565 775 l 209 775 l 231 906 z "},"Ĉ":{"ha":822,"x_min":108,"x_max":849,"o":"m 637 358 l 806 328 q 656 68 755 155 q 426 -18 557 -18 q 194 90 279 -18 q 108 411 108 197 q 170 735 108 595 q 329 943 233 875 q 538 1011 426 1011 q 750 928 665 1011 q 849 689 834 844 l 688 670 q 635 798 674 760 q 535 835 597 835 q 414 789 472 835 q 314 637 355 744 q 273 402 273 530 q 321 218 273 282 q 436 154 368 154 q 555 204 500 154 q 637 358 610 255 m 593 1185 l 495 1065 l 363 1065 l 529 1269 l 678 1269 l 745 1065 l 635 1065 l 593 1185 z "},"ĉ":{"ha":633,"x_min":68,"x_max":643,"o":"m 446 271 l 601 241 q 487 48 562 112 q 314 -16 411 -16 q 136 64 204 -16 q 68 291 68 144 q 114 527 68 423 q 238 683 160 630 q 406 736 317 736 q 570 673 506 736 q 643 496 635 609 l 491 476 q 396 593 480 593 q 320 562 357 593 q 255 448 283 530 q 227 269 227 366 q 253 170 227 204 q 315 136 279 136 q 390 169 354 136 q 446 271 425 201 m 470 932 l 372 812 l 241 812 l 406 1016 l 555 1016 l 623 812 l 513 812 l 470 932 z "},"Ċ":{"ha":822,"x_min":108,"x_max":849,"o":"m 637 358 l 806 328 q 656 68 755 155 q 426 -18 557 -18 q 194 90 279 -18 q 108 411 108 197 q 170 735 108 595 q 329 943 233 875 q 538 1011 426 1011 q 750 928 665 1011 q 849 689 834 844 l 688 670 q 635 798 674 760 q 535 835 597 835 q 414 789 472 835 q 314 637 355 744 q 273 402 273 530 q 321 218 273 282 q 436 154 368 154 q 555 204 500 154 q 637 358 610 255 m 500 1258 l 660 1258 l 629 1080 l 469 1080 l 500 1258 z "},"ċ":{"ha":633,"x_min":68,"x_max":643,"o":"m 446 271 l 601 241 q 487 48 562 112 q 314 -16 411 -16 q 136 64 204 -16 q 68 291 68 144 q 114 527 68 423 q 238 683 160 630 q 406 736 317 736 q 570 673 506 736 q 643 496 635 609 l 491 476 q 396 593 480 593 q 320 562 357 593 q 255 448 283 530 q 227 269 227 366 q 253 170 227 204 q 315 136 279 136 q 390 169 354 136 q 446 271 425 201 m 345 1006 l 505 1006 l 475 828 l 315 828 l 345 1006 z "},"Ē":{"ha":760,"x_min":47,"x_max":821,"o":"m 47 0 l 217 994 l 821 994 l 793 828 l 357 828 l 318 602 l 740 602 l 711 436 l 290 436 l 243 166 l 711 166 l 684 0 l 47 0 m 393 1213 l 749 1213 l 726 1082 l 370 1082 l 393 1213 z "},"ē":{"ha":633,"x_min":66,"x_max":631,"o":"m 621 300 l 220 300 l 220 281 q 254 165 220 209 q 335 122 288 122 q 459 222 414 122 l 602 193 q 490 36 560 88 q 334 -16 420 -16 q 142 74 218 -16 q 66 317 66 163 q 153 610 66 484 q 395 736 239 736 q 566 657 500 736 q 631 427 631 577 q 621 300 631 355 m 486 418 l 486 437 q 456 559 486 519 q 378 598 426 598 q 289 553 329 598 q 236 418 250 507 l 486 418 m 235 944 l 591 944 l 568 813 l 212 813 l 235 944 z "},"Ĕ":{"ha":760,"x_min":47,"x_max":821,"o":"m 47 0 l 217 994 l 821 994 l 793 828 l 357 828 l 318 602 l 740 602 l 711 436 l 290 436 l 243 166 l 711 166 l 684 0 l 47 0 m 395 1267 l 472 1267 q 507 1191 485 1212 q 560 1169 528 1169 q 670 1267 627 1169 l 743 1267 q 661 1114 720 1173 q 555 1071 618 1071 q 449 1119 491 1071 q 395 1267 406 1167 z "},"ĕ":{"ha":633,"x_min":66,"x_max":631,"o":"m 621 300 l 220 300 l 220 281 q 254 165 220 209 q 335 122 288 122 q 459 222 414 122 l 602 193 q 490 36 560 88 q 334 -16 420 -16 q 142 74 218 -16 q 66 317 66 163 q 153 610 66 484 q 395 736 239 736 q 566 657 500 736 q 631 427 631 577 q 621 300 631 355 m 486 418 l 486 437 q 456 559 486 519 q 378 598 426 598 q 289 553 329 598 q 236 418 250 507 l 486 418 m 241 1009 l 319 1009 q 353 932 332 954 q 407 911 375 911 q 517 1009 473 911 l 590 1009 q 508 856 566 914 q 402 812 465 812 q 295 861 338 812 q 241 1009 253 909 z "},"Ė":{"ha":760,"x_min":47,"x_max":821,"o":"m 47 0 l 217 994 l 821 994 l 793 828 l 357 828 l 318 602 l 740 602 l 711 436 l 290 436 l 243 166 l 711 166 l 684 0 l 47 0 m 490 1258 l 650 1258 l 620 1080 l 460 1080 l 490 1258 z "},"ė":{"ha":633,"x_min":66,"x_max":631,"o":"m 621 300 l 220 300 l 220 281 q 254 165 220 209 q 335 122 288 122 q 459 222 414 122 l 602 193 q 490 36 560 88 q 334 -16 420 -16 q 142 74 218 -16 q 66 317 66 163 q 153 610 66 484 q 395 736 239 736 q 566 657 500 736 q 631 427 631 577 q 621 300 631 355 m 486 418 l 486 437 q 456 559 486 519 q 378 598 426 598 q 289 553 329 598 q 236 418 250 507 l 486 418 m 329 1008 l 489 1008 l 458 829 l 298 829 l 329 1008 z "},"Ĝ":{"ha":886,"x_min":101,"x_max":895,"o":"m 501 531 l 865 531 l 792 104 q 630 17 724 50 q 443 -17 536 -17 q 199 79 281 -17 q 101 399 101 195 q 169 725 101 576 q 335 943 236 874 q 555 1011 433 1011 q 778 934 690 1011 q 895 698 866 857 l 739 676 q 555 846 698 846 q 413 799 478 846 q 306 646 348 751 q 263 399 263 540 q 311 213 263 272 q 448 154 358 154 q 545 169 498 154 q 655 217 610 189 l 681 365 l 473 365 l 501 531 m 616 1185 l 518 1065 l 387 1065 l 552 1269 l 701 1269 l 768 1065 l 659 1065 l 616 1185 z "},"ĝ":{"ha":696,"x_min":35,"x_max":709,"o":"m 37 -38 l 205 -68 q 227 -132 205 -111 q 292 -153 248 -153 q 361 -137 334 -153 q 403 -87 388 -120 q 433 47 418 -54 l 438 81 q 268 -3 356 -3 q 125 71 182 -3 q 69 290 69 144 q 111 533 69 429 q 218 686 152 636 q 353 736 284 736 q 459 700 410 736 q 537 593 509 663 l 559 720 l 709 720 l 606 120 q 553 -122 576 -56 q 459 -253 521 -213 q 289 -292 397 -292 q 106 -245 162 -292 q 35 -68 35 -187 l 37 -38 m 225 310 q 260 179 225 228 q 331 142 286 142 q 404 172 368 142 q 467 273 440 203 q 493 425 493 343 q 459 552 493 505 q 380 598 425 598 q 314 569 347 598 q 253 463 281 541 q 225 310 225 385 m 472 932 l 374 812 l 243 812 l 408 1016 l 557 1016 l 625 812 l 515 812 l 472 932 z "},"Ġ":{"ha":886,"x_min":101,"x_max":895,"o":"m 501 531 l 865 531 l 792 104 q 630 17 724 50 q 443 -17 536 -17 q 199 79 281 -17 q 101 399 101 195 q 169 725 101 576 q 335 943 236 874 q 555 1011 433 1011 q 778 934 690 1011 q 895 698 866 857 l 739 676 q 555 846 698 846 q 413 799 478 846 q 306 646 348 751 q 263 399 263 540 q 311 213 263 272 q 448 154 358 154 q 545 169 498 154 q 655 217 610 189 l 681 365 l 473 365 l 501 531 m 519 1258 l 679 1258 l 648 1080 l 488 1080 l 519 1258 z "},"ġ":{"ha":696,"x_min":35,"x_max":709,"o":"m 37 -38 l 205 -68 q 227 -132 205 -111 q 292 -153 248 -153 q 361 -137 334 -153 q 403 -87 388 -120 q 433 47 418 -54 l 438 81 q 268 -3 356 -3 q 125 71 182 -3 q 69 290 69 144 q 111 533 69 429 q 218 686 152 636 q 353 736 284 736 q 459 700 410 736 q 537 593 509 663 l 559 720 l 709 720 l 606 120 q 553 -122 576 -56 q 459 -253 521 -213 q 289 -292 397 -292 q 106 -245 162 -292 q 35 -68 35 -187 l 37 -38 m 225 310 q 260 179 225 228 q 331 142 286 142 q 404 172 368 142 q 467 273 440 203 q 493 425 493 343 q 459 552 493 505 q 380 598 425 598 q 314 569 347 598 q 253 463 281 541 q 225 310 225 385 m 323 1008 l 483 1008 l 452 829 l 292 829 l 323 1008 z "},"Ģ":{"ha":886,"x_min":101,"x_max":895,"o":"m 501 531 l 865 531 l 792 104 q 630 17 724 50 q 443 -17 536 -17 q 199 79 281 -17 q 101 399 101 195 q 169 725 101 576 q 335 943 236 874 q 555 1011 433 1011 q 778 934 690 1011 q 895 698 866 857 l 739 676 q 555 846 698 846 q 413 799 478 846 q 306 646 348 751 q 263 399 263 540 q 311 213 263 272 q 448 154 358 154 q 545 169 498 154 q 655 217 610 189 l 681 365 l 473 365 l 501 531 m 257 -286 l 283 -207 l 317 -208 q 418 -186 367 -208 q 452 -138 452 -172 q 436 -104 452 -117 q 388 -91 420 -91 q 338 -97 370 -91 l 357 -30 q 429 -18 397 -18 q 520 -48 487 -18 q 553 -130 553 -79 q 490 -241 553 -193 q 311 -288 426 -288 q 257 -286 276 -288 z "},"ģ":{"ha":696,"x_min":35,"x_max":709,"o":"m 37 -38 l 205 -68 q 227 -132 205 -111 q 292 -153 248 -153 q 361 -137 334 -153 q 403 -87 388 -120 q 433 47 418 -54 l 438 81 q 268 -3 356 -3 q 125 71 182 -3 q 69 290 69 144 q 111 533 69 429 q 218 686 152 636 q 353 736 284 736 q 459 700 410 736 q 537 593 509 663 l 559 720 l 709 720 l 606 120 q 553 -122 576 -56 q 459 -253 521 -213 q 289 -292 397 -292 q 106 -245 162 -292 q 35 -68 35 -187 l 37 -38 m 225 310 q 260 179 225 228 q 331 142 286 142 q 404 172 368 142 q 467 273 440 203 q 493 425 493 343 q 459 552 493 505 q 380 598 425 598 q 314 569 347 598 q 253 463 281 541 q 225 310 225 385 m 505 813 l 360 813 l 384 953 q 551 1112 410 1105 l 537 1031 q 468 982 481 1017 l 534 982 l 505 813 z "},"Ĥ":{"ha":822,"x_min":49,"x_max":870,"o":"m 608 444 l 293 444 l 216 0 l 49 0 l 219 994 l 387 994 l 321 610 l 637 610 l 703 994 l 870 994 l 700 0 l 532 0 l 608 444 m 590 1185 l 492 1065 l 361 1065 l 526 1269 l 675 1269 l 743 1065 l 633 1065 l 590 1185 z "},"ĥ":{"ha":696,"x_min":47,"x_max":688,"o":"m 207 0 l 47 0 l 218 994 l 378 994 l 317 640 q 420 715 374 694 q 517 736 467 736 q 630 688 587 736 q 673 553 673 639 q 657 421 673 511 l 585 0 l 425 0 l 499 429 q 511 519 511 499 q 492 577 511 556 q 442 598 473 598 q 366 565 402 598 q 292 453 317 519 q 256 286 279 417 l 207 0 m 535 1185 l 437 1065 l 306 1065 l 471 1269 l 621 1269 l 688 1065 l 578 1065 l 535 1185 z "},"Ħ":{"ha":822,"x_min":52,"x_max":933,"o":"m 179 742 l 98 742 l 118 862 l 199 862 l 222 994 l 390 994 l 367 862 l 683 862 l 705 994 l 873 994 l 850 862 l 933 862 l 913 742 l 830 742 l 703 0 l 535 0 l 611 444 l 296 444 l 219 0 l 52 0 l 179 742 m 347 742 l 323 610 l 640 610 l 662 742 l 347 742 z "},"ħ":{"ha":696,"x_min":16,"x_max":640,"o":"m 16 0 l 155 817 l 82 817 l 98 916 l 172 916 l 186 994 l 346 994 l 332 916 l 571 916 l 553 817 l 314 817 l 285 640 q 485 736 382 736 q 598 686 557 736 q 640 550 640 636 q 625 421 640 510 l 553 0 l 393 0 l 467 429 q 479 519 479 496 q 460 577 479 555 q 410 599 441 599 q 322 554 365 599 q 261 454 279 509 q 224 285 243 400 l 175 0 l 16 0 z "},"Ĩ":{"ha":317,"x_min":40,"x_max":522,"o":"m 40 0 l 210 994 l 378 994 l 208 0 l 40 0 m 210 1081 l 139 1081 q 184 1211 157 1177 q 248 1244 212 1244 q 353 1211 278 1244 q 412 1192 396 1192 q 434 1202 425 1192 q 450 1245 443 1213 l 522 1245 q 480 1122 511 1162 q 410 1082 448 1082 q 330 1109 384 1082 q 259 1137 274 1137 q 210 1081 224 1137 z "},"ĩ":{"ha":317,"x_min":46,"x_max":456,"o":"m 170 720 l 329 720 l 205 0 l 46 0 l 170 720 m 144 823 l 73 823 q 119 952 91 918 q 182 986 146 986 q 287 953 212 986 q 347 934 330 934 q 368 944 359 934 q 385 987 377 954 l 456 987 q 414 864 446 904 q 344 824 382 824 q 264 850 318 824 q 193 878 208 878 q 144 823 158 878 z "},"Ī":{"ha":317,"x_min":40,"x_max":507,"o":"m 40 0 l 210 994 l 378 994 l 208 0 l 40 0 m 151 1213 l 507 1213 l 485 1082 l 129 1082 l 151 1213 z "},"ī":{"ha":317,"x_min":46,"x_max":465,"o":"m 170 720 l 329 720 l 205 0 l 46 0 l 170 720 m 109 962 l 465 962 l 442 831 l 86 831 l 109 962 z "},"Ĭ":{"ha":317,"x_min":40,"x_max":513,"o":"m 40 0 l 210 994 l 378 994 l 208 0 l 40 0 m 165 1267 l 242 1267 q 277 1191 255 1212 q 330 1169 298 1169 q 440 1267 397 1169 l 513 1267 q 431 1114 490 1173 q 326 1071 388 1071 q 219 1119 261 1071 q 165 1267 176 1167 z "},"ĭ":{"ha":317,"x_min":46,"x_max":441,"o":"m 170 720 l 329 720 l 205 0 l 46 0 l 170 720 m 93 1009 l 170 1009 q 205 932 183 954 q 258 911 227 911 q 368 1009 325 911 l 441 1009 q 359 856 418 914 q 254 812 316 812 q 147 861 189 812 q 93 1009 104 909 z "},"Į":{"ha":317,"x_min":40,"x_max":378,"o":"m 40 0 l 210 994 l 378 994 l 208 0 l 40 0 m 280 -160 l 265 -247 q 204 -276 240 -264 q 142 -288 168 -288 q 70 -257 97 -288 q 43 -163 43 -225 q 79 13 43 -75 l 158 13 q 130 -121 130 -72 q 144 -169 130 -153 q 184 -186 159 -186 q 280 -160 220 -186 z "},"į":{"ha":317,"x_min":46,"x_max":376,"o":"m 216 994 l 376 994 l 346 818 l 186 818 l 216 994 m 170 720 l 329 720 l 205 0 l 46 0 l 170 720 m 290 -160 l 275 -247 q 214 -276 250 -264 q 153 -288 178 -288 q 80 -257 107 -288 q 53 -163 53 -225 q 90 13 53 -75 l 168 13 q 140 -121 140 -72 q 154 -169 140 -153 q 194 -186 169 -186 q 290 -160 231 -186 z "},"Ĵ":{"ha":633,"x_min":33,"x_max":789,"o":"m 519 994 l 684 994 l 581 392 q 468 62 538 140 q 268 -17 397 -17 q 94 46 155 -17 q 33 227 33 109 q 36 281 33 251 l 191 301 q 188 253 188 272 q 211 178 188 202 q 279 154 235 154 q 368 199 342 154 q 416 399 389 233 l 519 994 m 636 1185 l 538 1065 l 407 1065 l 572 1269 l 722 1269 l 789 1065 l 679 1065 l 636 1185 z "},"ĵ":{"ha":317,"x_min":-126,"x_max":397,"o":"m 244 932 l 146 812 l 15 812 l 180 1016 l 329 1016 l 397 812 l 287 812 l 244 932 m 168 720 l 329 720 l 224 111 q 169 -156 191 -84 q 101 -260 146 -228 q -9 -292 55 -292 q -126 -271 -72 -292 l -101 -110 q -37 -121 -63 -121 q 17 -88 -2 -121 q 66 123 36 -55 l 168 720 z "},"Ķ":{"ha":822,"x_min":45,"x_max":913,"o":"m 45 0 l 215 994 l 382 994 l 311 572 l 688 994 l 913 994 l 546 604 l 814 0 l 625 0 l 424 473 l 266 304 l 214 0 l 45 0 m 240 -286 l 267 -207 l 300 -208 q 401 -186 350 -208 q 435 -138 435 -172 q 419 -104 435 -117 q 371 -91 404 -91 q 321 -97 353 -91 l 340 -30 q 412 -18 380 -18 q 503 -48 470 -18 q 536 -130 536 -79 q 473 -241 536 -193 q 294 -288 409 -288 q 240 -286 259 -288 z "},"ķ":{"ha":633,"x_min":43,"x_max":700,"o":"m 43 0 l 214 994 l 374 994 l 285 477 l 492 720 l 700 720 l 463 458 l 589 0 l 429 0 l 348 333 l 240 216 l 203 0 l 43 0 m 131 -286 l 157 -207 l 191 -208 q 292 -186 241 -208 q 326 -138 326 -172 q 310 -104 326 -117 q 262 -91 294 -91 q 212 -97 243 -91 l 231 -30 q 303 -18 271 -18 q 394 -48 361 -18 q 427 -130 427 -79 q 363 -241 427 -193 q 184 -288 300 -288 q 131 -286 150 -288 z "},"ĸ":{"ha":644,"x_min":47,"x_max":707,"o":"m 47 0 l 172 720 l 332 720 l 290 485 l 496 720 l 707 720 l 406 400 l 608 0 l 431 0 l 299 286 l 245 228 l 205 0 l 47 0 z "},"Ļ":{"ha":696,"x_min":52,"x_max":663,"o":"m 52 0 l 222 994 l 390 994 l 248 166 l 663 166 l 634 0 l 52 0 m 163 -286 l 189 -207 l 223 -208 q 323 -186 273 -208 q 358 -138 358 -172 q 342 -104 358 -117 q 294 -91 326 -91 q 243 -97 275 -91 l 262 -30 q 335 -18 302 -18 q 426 -48 393 -18 q 459 -130 459 -79 q 395 -241 459 -193 q 216 -288 332 -288 q 163 -286 182 -288 z "},"ļ":{"ha":317,"x_min":-45,"x_max":375,"o":"m 45 0 l 215 994 l 375 994 l 204 0 l 45 0 m -45 -286 l -18 -207 l 16 -208 q 116 -186 65 -208 q 151 -138 151 -172 q 135 -104 151 -117 q 86 -91 119 -91 q 36 -97 68 -91 l 55 -30 q 127 -18 95 -18 q 218 -48 185 -18 q 252 -130 252 -79 q 188 -241 252 -193 q 9 -288 124 -288 q -45 -286 -26 -288 z "},"Ņ":{"ha":822,"x_min":51,"x_max":869,"o":"m 699 0 l 542 0 l 321 668 l 208 0 l 51 0 l 221 994 l 378 994 l 598 329 l 712 994 l 869 994 l 699 0 m 212 -286 l 239 -207 l 273 -208 q 373 -186 322 -208 q 408 -138 408 -172 q 392 -104 408 -117 q 343 -91 376 -91 q 293 -97 325 -91 l 312 -30 q 385 -18 352 -18 q 475 -48 442 -18 q 509 -130 509 -79 q 445 -241 509 -193 q 266 -288 381 -288 q 212 -286 231 -288 z "},"ņ":{"ha":696,"x_min":47,"x_max":673,"o":"m 171 720 l 322 720 l 307 627 q 415 712 366 688 q 516 736 464 736 q 630 687 587 736 q 673 551 673 637 q 655 408 673 514 l 585 0 l 425 0 l 496 408 q 511 518 511 500 q 493 577 511 557 q 444 598 474 598 q 378 572 412 598 q 305 485 329 536 q 258 296 281 435 l 207 0 l 47 0 l 171 720 m 141 -286 l 168 -207 l 201 -208 q 302 -186 251 -208 q 336 -138 336 -172 q 320 -104 336 -117 q 272 -91 304 -91 q 222 -97 254 -91 l 241 -30 q 313 -18 281 -18 q 404 -48 371 -18 q 437 -130 437 -79 q 374 -241 437 -193 q 195 -288 310 -288 q 141 -286 160 -288 z "},"Ŋ":{"ha":839,"x_min":55,"x_max":844,"o":"m 222 994 l 388 994 l 365 853 q 616 1011 489 1011 q 778 925 713 1011 q 844 666 844 838 q 807 367 844 527 q 724 124 771 208 q 630 12 676 41 q 524 -17 584 -17 q 350 45 422 -17 l 433 186 q 505 147 471 147 q 569 191 536 147 q 640 402 602 235 q 677 669 677 568 q 643 791 677 745 q 551 838 609 838 q 410 769 479 838 q 308 507 340 700 l 222 0 l 55 0 l 222 994 z "},"ŋ":{"ha":696,"x_min":45,"x_max":671,"o":"m 653 408 l 592 54 q 547 -157 567 -92 q 483 -257 527 -222 q 372 -292 439 -292 q 243 -268 301 -292 l 297 -112 q 347 -121 323 -121 q 396 -92 380 -121 q 440 96 413 -62 l 494 409 q 509 524 509 502 q 490 577 509 557 q 442 598 471 598 q 359 559 404 598 q 295 466 313 519 q 256 296 276 413 l 205 0 l 45 0 l 169 720 l 320 720 l 304 627 q 514 737 406 737 q 632 683 592 737 q 671 554 671 629 q 653 408 671 513 z "},"Ō":{"ha":886,"x_min":100,"x_max":893,"o":"m 100 390 q 143 655 100 519 q 306 921 198 830 q 555 1011 414 1011 q 798 899 703 1011 q 893 594 893 787 q 825 271 893 419 q 656 53 757 123 q 433 -18 555 -18 q 202 84 288 -18 q 100 390 100 204 m 266 394 q 320 219 266 284 q 451 153 374 153 q 574 202 513 153 q 681 362 635 251 q 726 589 726 474 q 670 779 726 710 q 542 840 621 840 q 416 791 478 840 q 310 632 353 741 q 266 394 266 522 m 405 1213 l 761 1213 l 739 1082 l 382 1082 l 405 1213 z "},"ō":{"ha":696,"x_min":69,"x_max":682,"o":"m 69 299 q 149 600 69 476 q 406 736 238 736 q 607 651 532 736 q 682 413 682 566 q 589 109 682 234 q 345 -16 496 -16 q 146 68 222 -16 q 69 299 69 153 m 524 438 q 491 550 524 509 q 406 591 457 591 q 324 561 362 591 q 258 457 286 531 q 229 304 229 383 q 264 178 229 223 q 351 134 299 134 q 461 203 416 134 q 524 438 524 298 m 267 960 l 623 960 l 601 829 l 245 829 l 267 960 z "},"Ŏ":{"ha":886,"x_min":100,"x_max":893,"o":"m 100 390 q 143 655 100 519 q 306 921 198 830 q 555 1011 414 1011 q 798 899 703 1011 q 893 594 893 787 q 825 271 893 419 q 656 53 757 123 q 433 -18 555 -18 q 202 84 288 -18 q 100 390 100 204 m 266 394 q 320 219 266 284 q 451 153 374 153 q 574 202 513 153 q 681 362 635 251 q 726 589 726 474 q 670 779 726 710 q 542 840 621 840 q 416 791 478 840 q 310 632 353 741 q 266 394 266 522 m 456 1267 l 534 1267 q 568 1191 547 1212 q 622 1169 590 1169 q 732 1267 688 1169 l 805 1267 q 723 1114 781 1173 q 617 1071 680 1071 q 510 1119 553 1071 q 456 1267 468 1167 z "},"ŏ":{"ha":696,"x_min":69,"x_max":682,"o":"m 69 299 q 149 600 69 476 q 406 736 238 736 q 607 651 532 736 q 682 413 682 566 q 589 109 682 234 q 345 -16 496 -16 q 146 68 222 -16 q 69 299 69 153 m 524 438 q 491 550 524 509 q 406 591 457 591 q 324 561 362 591 q 258 457 286 531 q 229 304 229 383 q 264 178 229 223 q 351 134 299 134 q 461 203 416 134 q 524 438 524 298 m 262 1009 l 340 1009 q 374 932 353 954 q 428 911 396 911 q 538 1009 494 911 l 611 1009 q 529 856 587 914 q 423 812 486 812 q 316 861 359 812 q 262 1009 274 909 z "},"Ŗ":{"ha":822,"x_min":50,"x_max":844,"o":"m 218 0 l 50 0 l 220 994 l 583 994 q 733 968 684 994 q 813 882 783 941 q 844 733 844 823 q 780 521 844 601 q 593 422 715 441 q 660 317 627 385 q 779 0 714 201 l 599 0 q 526 229 588 42 q 466 363 493 324 q 426 401 446 391 q 357 412 406 412 l 288 412 l 218 0 m 314 561 l 403 561 q 573 577 529 561 q 647 635 618 593 q 677 730 677 678 q 640 812 677 786 q 545 828 618 828 l 360 828 l 314 561 m 225 -286 l 252 -207 l 286 -208 q 386 -186 335 -208 q 420 -138 420 -172 q 405 -104 420 -117 q 356 -91 389 -91 q 306 -97 338 -91 l 325 -30 q 397 -18 365 -18 q 488 -48 455 -18 q 522 -130 522 -79 q 458 -241 522 -193 q 279 -288 394 -288 q 225 -286 244 -288 z "},"ŗ":{"ha":443,"x_min":-13,"x_max":540,"o":"m 160 720 l 309 720 l 286 581 q 466 736 368 736 q 540 716 500 736 l 479 557 q 433 566 457 566 q 363 541 396 566 q 288 440 314 503 q 235 226 261 378 l 196 0 l 37 0 l 160 720 m -13 -286 l 14 -207 l 47 -208 q 148 -186 97 -208 q 182 -138 182 -172 q 166 -104 182 -117 q 118 -91 151 -91 q 68 -97 100 -91 l 87 -30 q 159 -18 127 -18 q 250 -48 217 -18 q 283 -130 283 -79 q 220 -241 283 -193 q 41 -288 156 -288 q -13 -286 6 -288 z "},"Ŝ":{"ha":760,"x_min":70,"x_max":770,"o":"m 72 322 l 231 332 q 250 221 235 252 q 299 172 264 190 q 393 154 334 154 q 510 188 471 154 q 549 277 549 222 q 526 343 549 315 q 410 420 504 370 q 253 518 292 483 q 192 604 214 553 q 171 720 171 654 q 249 932 171 852 q 462 1011 327 1011 q 680 932 598 1011 q 770 711 762 854 l 609 702 q 461 849 597 849 q 362 821 394 849 q 331 744 331 793 q 361 671 331 699 q 479 595 390 643 q 635 499 596 534 q 694 415 673 465 q 715 302 715 366 q 626 72 715 161 q 391 -17 537 -17 q 204 30 281 -17 q 98 155 126 77 q 72 322 70 233 m 574 1185 l 476 1065 l 345 1065 l 510 1269 l 659 1269 l 726 1065 l 616 1065 l 574 1185 z "},"ŝ":{"ha":633,"x_min":25,"x_max":628,"o":"m 25 201 l 180 231 q 231 146 200 170 q 314 122 262 122 q 394 146 363 122 q 425 201 425 170 q 412 238 425 223 q 347 273 398 252 q 169 363 203 330 q 114 503 114 417 q 186 671 114 605 q 382 736 258 736 q 628 549 594 736 l 481 517 q 357 603 455 603 q 288 584 311 603 q 264 536 264 565 q 282 494 264 511 q 376 453 296 481 q 530 374 490 412 q 587 237 587 317 q 513 56 587 127 q 317 -16 439 -16 q 25 201 77 -16 m 460 932 l 363 812 l 231 812 l 397 1016 l 546 1016 l 613 812 l 503 812 l 460 932 z "},"Ŧ":{"ha":696,"x_min":112,"x_max":806,"o":"m 300 395 l 112 395 l 133 515 l 320 515 l 374 828 l 135 828 l 163 994 l 806 994 l 777 828 l 541 828 l 488 515 l 675 515 l 655 395 l 467 395 l 399 0 l 232 0 l 300 395 z "},"ŧ":{"ha":379,"x_min":26,"x_max":445,"o":"m 294 406 l 406 406 l 391 317 l 278 317 l 271 274 q 257 180 257 192 q 309 133 257 133 q 363 138 325 133 l 338 -7 q 254 -17 297 -17 q 93 132 93 -17 q 113 286 93 166 l 119 317 l 26 317 l 42 406 l 134 406 l 163 576 l 85 576 l 110 720 l 188 720 l 208 836 l 390 970 l 347 720 l 445 720 l 420 576 l 323 576 l 294 406 z "},"Ũ":{"ha":822,"x_min":104,"x_max":871,"o":"m 217 994 l 385 994 l 292 454 l 270 324 q 267 290 267 305 q 304 191 267 227 q 405 154 341 154 q 500 179 461 154 q 563 256 540 204 q 610 450 586 308 l 703 994 l 871 994 l 778 450 q 718 206 749 284 q 593 38 671 94 q 397 -17 514 -17 q 182 65 260 -17 q 104 288 104 146 q 127 471 104 333 l 217 994 m 440 1081 l 370 1081 q 415 1211 387 1177 q 478 1244 443 1244 q 583 1211 509 1244 q 643 1192 627 1192 q 664 1202 655 1192 q 681 1245 673 1213 l 752 1245 q 710 1122 742 1162 q 640 1082 679 1082 q 561 1109 614 1082 q 490 1137 505 1137 q 440 1081 454 1137 z "},"ũ":{"ha":696,"x_min":80,"x_max":705,"o":"m 168 720 l 328 720 l 254 294 q 241 198 241 217 q 261 144 241 165 q 308 122 280 122 q 372 145 340 122 q 444 228 417 177 q 487 377 470 279 l 545 720 l 705 720 l 582 0 l 433 0 l 449 98 q 237 -16 351 -16 q 122 34 165 -16 q 80 171 80 83 q 99 319 80 208 l 168 720 m 329 823 l 258 823 q 304 952 276 918 q 367 986 332 986 q 472 953 397 986 q 532 934 515 934 q 553 944 544 934 q 570 987 562 954 l 641 987 q 599 864 631 904 q 529 824 568 824 q 450 850 503 824 q 378 878 393 878 q 329 823 343 878 z "},"Ū":{"ha":822,"x_min":104,"x_max":871,"o":"m 217 994 l 385 994 l 292 454 l 270 324 q 267 290 267 305 q 304 191 267 227 q 405 154 341 154 q 500 179 461 154 q 563 256 540 204 q 610 450 586 308 l 703 994 l 871 994 l 778 450 q 718 206 749 284 q 593 38 671 94 q 397 -17 514 -17 q 182 65 260 -17 q 104 288 104 146 q 127 471 104 333 l 217 994 m 401 1213 l 757 1213 l 734 1082 l 378 1082 l 401 1213 z "},"ū":{"ha":696,"x_min":80,"x_max":705,"o":"m 168 720 l 328 720 l 254 294 q 241 198 241 217 q 261 144 241 165 q 308 122 280 122 q 372 145 340 122 q 444 228 417 177 q 487 377 470 279 l 545 720 l 705 720 l 582 0 l 433 0 l 449 98 q 237 -16 351 -16 q 122 34 165 -16 q 80 171 80 83 q 99 319 80 208 l 168 720 m 281 960 l 637 960 l 614 829 l 258 829 l 281 960 z "},"Ŭ":{"ha":822,"x_min":104,"x_max":871,"o":"m 217 994 l 385 994 l 292 454 l 270 324 q 267 290 267 305 q 304 191 267 227 q 405 154 341 154 q 500 179 461 154 q 563 256 540 204 q 610 450 586 308 l 703 994 l 871 994 l 778 450 q 718 206 749 284 q 593 38 671 94 q 397 -17 514 -17 q 182 65 260 -17 q 104 288 104 146 q 127 471 104 333 l 217 994 m 404 1267 l 481 1267 q 516 1191 494 1212 q 570 1169 538 1169 q 680 1267 636 1169 l 753 1267 q 671 1114 729 1173 q 565 1071 627 1071 q 458 1119 500 1071 q 404 1267 416 1167 z "},"ŭ":{"ha":696,"x_min":80,"x_max":705,"o":"m 168 720 l 328 720 l 254 294 q 241 198 241 217 q 261 144 241 165 q 308 122 280 122 q 372 145 340 122 q 444 228 417 177 q 487 377 470 279 l 545 720 l 705 720 l 582 0 l 433 0 l 449 98 q 237 -16 351 -16 q 122 34 165 -16 q 80 171 80 83 q 99 319 80 208 l 168 720 m 277 1009 l 355 1009 q 389 932 368 954 q 443 911 411 911 q 553 1009 509 911 l 626 1009 q 544 856 602 914 q 438 812 500 812 q 331 861 374 812 q 277 1009 289 909 z "},"Ų":{"ha":822,"x_min":104,"x_max":871,"o":"m 217 994 l 385 994 l 292 454 l 270 324 q 267 290 267 305 q 304 191 267 227 q 405 154 341 154 q 500 179 461 154 q 563 256 540 204 q 610 450 586 308 l 703 994 l 871 994 l 778 450 q 718 206 749 284 q 593 38 671 94 q 397 -17 514 -17 q 182 65 260 -17 q 104 288 104 146 q 127 471 104 333 l 217 994 m 573 -160 l 558 -247 q 497 -276 533 -264 q 435 -288 461 -288 q 363 -257 390 -288 q 336 -163 336 -225 q 372 13 336 -75 l 451 13 q 422 -121 422 -72 q 437 -169 422 -153 q 477 -186 452 -186 q 573 -160 513 -186 z "},"ų":{"ha":696,"x_min":80,"x_max":705,"o":"m 168 720 l 328 720 l 254 294 q 241 198 241 217 q 261 144 241 165 q 308 122 280 122 q 372 145 340 122 q 444 228 417 177 q 487 377 470 279 l 545 720 l 705 720 l 582 0 l 433 0 l 449 98 q 237 -16 351 -16 q 122 34 165 -16 q 80 171 80 83 q 99 319 80 208 l 168 720 m 656 -160 l 642 -247 q 581 -276 616 -264 q 519 -288 545 -288 q 446 -257 473 -288 q 419 -163 419 -225 q 456 13 419 -75 l 534 13 q 506 -121 506 -72 q 520 -169 506 -153 q 560 -186 535 -186 q 656 -160 597 -186 z "},"Ŵ":{"ha":1075,"x_min":134,"x_max":1216,"o":"m 822 0 l 652 0 l 634 727 l 337 0 l 164 0 l 134 994 l 298 994 l 304 298 l 585 994 l 767 994 l 785 306 l 1054 994 l 1216 994 l 822 0 m 705 1191 l 607 1070 l 475 1070 l 641 1274 l 790 1274 l 857 1070 l 747 1070 l 705 1191 z "},"ŵ":{"ha":886,"x_min":82,"x_max":958,"o":"m 663 0 l 513 0 l 484 458 l 304 0 l 156 0 l 82 720 l 224 720 l 265 237 l 449 720 l 594 720 l 614 237 l 798 720 l 958 720 l 663 0 m 538 932 l 441 812 l 309 812 l 475 1016 l 624 1016 l 691 812 l 581 812 l 538 932 z "},"Ŷ":{"ha":760,"x_min":131,"x_max":894,"o":"m 457 0 l 289 0 l 356 387 l 131 994 l 309 994 l 410 713 q 458 568 446 613 q 507 662 480 613 l 584 793 l 699 994 l 894 994 l 520 368 l 457 0 m 541 1185 l 444 1065 l 312 1065 l 477 1269 l 627 1269 l 694 1065 l 584 1065 l 541 1185 z "},"ŷ":{"ha":633,"x_min":7,"x_max":707,"o":"m 96 720 l 254 720 l 294 361 q 311 168 309 224 q 397 401 342 279 l 538 720 l 707 720 l 342 -71 q 263 -219 291 -182 q 200 -275 235 -257 q 121 -292 165 -292 q 7 -271 71 -292 l 22 -125 q 77 -136 50 -136 q 199 0 151 -136 l 96 720 m 437 932 l 340 812 l 208 812 l 374 1016 l 523 1016 l 590 812 l 480 812 l 437 932 z "},"ſ":{"ha":317,"x_min":45,"x_max":519,"o":"m 204 0 l 45 0 l 181 794 q 212 921 196 880 q 268 986 229 961 q 366 1011 307 1011 q 519 979 438 1011 l 489 840 q 395 863 431 863 q 358 846 369 863 q 336 771 347 829 l 204 0 z "},"Ǻ":{"ha":822,"x_min":-13,"x_max":781,"o":"m 581 220 l 257 220 l 159 0 l -13 0 l 448 994 l 634 994 l 766 0 l 608 0 l 581 220 m 559 385 l 513 785 l 333 385 l 559 385 m 456 1168 q 489 1262 456 1225 q 564 1299 521 1299 q 639 1262 606 1299 q 671 1168 671 1225 q 639 1075 671 1112 q 564 1038 606 1038 q 489 1075 521 1038 q 456 1168 456 1112 m 517 1168 q 531 1128 517 1144 q 564 1112 545 1112 q 597 1128 583 1112 q 611 1168 611 1144 q 597 1210 611 1194 q 564 1226 583 1226 q 531 1210 545 1226 q 517 1168 517 1193 m 610 1538 l 781 1538 l 600 1335 l 494 1335 l 610 1538 z "},"ǻ":{"ha":633,"x_min":52,"x_max":656,"o":"m 271 516 l 115 532 q 212 684 143 632 q 385 736 280 736 q 550 683 492 736 q 608 542 608 630 q 603 475 608 511 q 570 283 599 440 q 547 102 547 153 q 559 0 547 55 l 405 0 q 393 81 395 39 q 312 9 358 34 q 221 -16 267 -16 q 100 41 149 -16 q 52 193 52 98 q 107 361 52 302 q 292 432 162 420 q 444 460 406 444 q 454 526 454 501 q 432 578 454 558 q 372 598 410 598 q 271 516 290 598 m 423 336 q 385 327 408 331 q 237 283 273 311 q 201 210 201 256 q 222 151 201 174 q 275 129 243 129 q 338 148 308 129 q 387 200 369 166 q 418 310 406 233 l 423 336 m 316 916 q 348 1010 316 972 q 423 1047 380 1047 q 498 1010 466 1047 q 531 916 531 972 q 498 823 531 860 q 423 785 466 785 q 348 823 380 785 q 316 916 316 860 m 376 916 q 391 876 376 892 q 423 859 405 859 q 456 876 442 859 q 471 916 471 892 q 456 958 471 941 q 423 974 442 974 q 391 957 405 974 q 376 916 376 941 m 486 1282 l 656 1282 l 475 1079 l 370 1079 l 486 1282 z "},"Ǽ":{"ha":1139,"x_min":-37,"x_max":1206,"o":"m 523 249 l 252 249 l 136 0 l -37 0 l 437 994 l 1206 994 l 1178 828 l 779 828 l 740 601 l 1123 601 l 1095 435 l 711 435 l 665 166 l 1095 166 l 1067 0 l 480 0 l 523 249 m 551 415 l 623 828 l 523 828 l 330 415 l 551 415 m 881 1273 l 1052 1273 l 871 1069 l 765 1069 l 881 1273 z "},"ǽ":{"ha":1013,"x_min":35,"x_max":986,"o":"m 975 298 l 569 298 q 607 174 571 218 q 692 129 643 129 q 814 222 771 129 l 958 195 q 839 35 909 86 q 685 -16 768 -16 q 465 151 529 -16 q 221 -16 363 -16 q 87 40 139 -16 q 35 195 35 96 q 62 319 35 269 q 135 396 90 370 q 288 433 181 422 q 439 462 405 446 q 443 500 443 484 q 420 574 443 550 q 354 598 397 598 q 289 579 313 598 q 253 514 265 560 l 100 533 q 192 683 123 629 q 367 736 261 736 q 484 714 441 736 q 550 647 527 692 q 746 736 626 736 q 919 656 851 736 q 986 429 986 576 q 975 298 986 364 m 841 417 l 842 439 q 811 558 842 517 q 734 598 781 598 q 640 553 683 598 q 581 417 597 507 l 841 417 m 418 340 q 225 289 271 320 q 179 212 179 258 q 200 154 179 177 q 255 131 222 131 q 347 178 307 131 q 418 340 401 241 m 576 1015 l 747 1015 l 566 811 l 460 811 l 576 1015 z "},"Ǿ":{"ha":886,"x_min":89,"x_max":896,"o":"m 172 117 q 96 393 96 231 q 139 654 96 517 q 302 921 194 830 q 551 1011 410 1011 q 742 951 666 1011 l 820 1065 l 896 987 l 816 870 q 889 593 889 760 q 821 272 889 419 q 652 54 753 124 q 433 -17 551 -17 q 249 37 321 -17 l 168 -83 l 89 -5 l 172 117 m 282 277 l 641 803 q 538 840 596 840 q 412 791 474 840 q 306 633 350 743 q 262 400 262 524 q 282 277 262 336 m 704 705 l 349 184 q 450 147 395 147 q 573 197 511 147 q 680 359 635 247 q 726 592 726 472 q 704 705 726 646 m 677 1273 l 848 1273 l 667 1069 l 561 1069 l 677 1273 z "},"ǿ":{"ha":696,"x_min":60,"x_max":688,"o":"m 557 696 l 626 793 l 688 730 l 619 633 q 680 413 680 548 q 587 109 680 235 q 343 -16 494 -16 q 190 26 258 -16 l 120 -73 l 60 -7 l 127 88 q 67 308 67 176 q 114 537 67 434 q 234 688 161 640 q 404 736 307 736 q 557 696 494 736 m 470 573 q 401 596 439 596 q 323 568 357 596 q 248 453 279 532 q 216 291 216 374 q 224 225 216 256 l 470 573 m 521 494 l 275 146 q 344 125 306 125 q 429 157 389 125 q 500 267 469 189 q 530 428 530 345 q 521 494 530 459 m 441 1015 l 612 1015 l 431 811 l 325 811 l 441 1015 z "},"·":{"ha":379,"x_min":165,"x_max":355,"o":"m 197 720 l 355 720 l 322 532 l 165 532 l 197 720 z "},"Ẁ":{"ha":1075,"x_min":134,"x_max":1216,"o":"m 822 0 l 652 0 l 634 727 l 337 0 l 164 0 l 134 994 l 298 994 l 304 298 l 585 994 l 767 994 l 785 306 l 1054 994 l 1216 994 l 822 0 m 506 1275 l 660 1275 l 731 1072 l 623 1072 l 506 1275 z "},"ẁ":{"ha":886,"x_min":82,"x_max":958,"o":"m 663 0 l 513 0 l 484 458 l 304 0 l 156 0 l 82 720 l 224 720 l 265 237 l 449 720 l 594 720 l 614 237 l 798 720 l 958 720 l 663 0 m 391 1017 l 545 1017 l 616 814 l 507 814 l 391 1017 z "},"Ẃ":{"ha":1075,"x_min":134,"x_max":1216,"o":"m 822 0 l 652 0 l 634 727 l 337 0 l 164 0 l 134 994 l 298 994 l 304 298 l 585 994 l 767 994 l 785 306 l 1054 994 l 1216 994 l 822 0 m 728 1273 l 899 1273 l 718 1069 l 612 1069 l 728 1273 z "},"ẃ":{"ha":886,"x_min":82,"x_max":958,"o":"m 663 0 l 513 0 l 484 458 l 304 0 l 156 0 l 82 720 l 224 720 l 265 237 l 449 720 l 594 720 l 614 237 l 798 720 l 958 720 l 663 0 m 574 1015 l 745 1015 l 564 811 l 458 811 l 574 1015 z "},"Ẅ":{"ha":1075,"x_min":134,"x_max":1216,"o":"m 822 0 l 652 0 l 634 727 l 337 0 l 164 0 l 134 994 l 298 994 l 304 298 l 585 994 l 767 994 l 785 306 l 1054 994 l 1216 994 l 822 0 m 532 1246 l 668 1246 l 640 1080 l 503 1080 l 532 1246 m 766 1246 l 903 1246 l 874 1080 l 737 1080 l 766 1246 z "},"ẅ":{"ha":886,"x_min":82,"x_max":958,"o":"m 663 0 l 513 0 l 484 458 l 304 0 l 156 0 l 82 720 l 224 720 l 265 237 l 449 720 l 594 720 l 614 237 l 798 720 l 958 720 l 663 0 m 365 996 l 501 996 l 473 829 l 336 829 l 365 996 m 599 996 l 736 996 l 707 829 l 570 829 l 599 996 z "},"Ỳ":{"ha":760,"x_min":131,"x_max":894,"o":"m 457 0 l 289 0 l 356 387 l 131 994 l 309 994 l 410 713 q 458 568 446 613 q 507 662 480 613 l 584 793 l 699 994 l 894 994 l 520 368 l 457 0 m 354 1275 l 508 1275 l 579 1072 l 471 1072 l 354 1275 z "},"ỳ":{"ha":633,"x_min":7,"x_max":707,"o":"m 96 720 l 254 720 l 294 361 q 311 168 309 224 q 397 401 342 279 l 538 720 l 707 720 l 342 -71 q 263 -219 291 -182 q 200 -275 235 -257 q 121 -292 165 -292 q 7 -271 71 -292 l 22 -125 q 77 -136 50 -136 q 199 0 151 -136 l 96 720 m 254 1017 l 408 1017 l 479 814 l 370 814 l 254 1017 z "},"‛":{"ha":317,"x_min":182,"x_max":381,"o":"m 381 994 l 348 806 l 275 806 q 269 750 269 777 q 326 680 269 688 l 310 590 q 182 735 182 593 q 193 839 182 776 l 220 994 l 381 994 z "},"‾":{"ha":633,"x_min":53,"x_max":743,"o":"m 53 1267 l 743 1267 l 743 1217 l 53 1217 l 53 1267 z "},"₤":{"ha":633,"x_min":26,"x_max":698,"o":"m 328 630 l 484 630 l 462 504 l 338 504 q 340 431 340 459 l 449 431 l 427 305 l 319 305 q 221 152 294 231 q 303 172 261 172 q 358 165 325 172 q 434 154 406 154 q 561 190 496 154 l 608 24 q 460 -17 530 -17 q 336 5 405 -17 q 206 33 254 33 q 43 -25 130 33 l 26 151 q 170 305 117 198 l 52 305 l 74 431 l 200 431 q 195 504 200 443 l 87 504 l 109 630 l 180 630 q 178 682 178 652 q 256 916 178 821 q 456 1011 334 1011 q 629 934 566 1011 q 698 743 692 857 l 555 726 q 451 861 539 861 q 360 806 395 861 q 326 677 326 752 q 328 630 326 654 z "},"℮":{"ha":833,"x_min":61,"x_max":779,"o":"m 218 360 l 218 109 q 420 26 299 26 q 688 193 592 26 l 736 164 q 580 14 657 50 q 420 -23 503 -23 q 162 84 262 -23 q 61 360 61 192 q 162 636 61 529 q 420 743 262 743 q 668 647 565 743 q 779 360 771 550 l 218 360 m 622 410 l 622 612 q 418 694 538 694 q 218 611 300 694 l 218 410 l 622 410 z "},"⅛":{"ha":950,"x_min":97,"x_max":950,"o":"m 130 774 l 152 879 q 258 936 222 911 q 344 1008 310 971 l 412 1008 l 307 493 l 198 493 l 267 827 q 130 774 201 789 m 194 -41 l 97 -41 l 844 1006 l 940 1006 l 194 -41 m 885 243 q 927 139 927 195 q 878 16 927 68 q 749 -37 828 -37 q 638 5 676 -37 q 600 109 600 48 q 685 256 600 200 q 649 340 649 292 q 692 440 649 397 q 806 484 734 484 q 911 447 873 484 q 950 354 950 411 q 885 243 950 292 m 806 391 q 766 374 783 391 q 749 334 749 357 q 792 290 749 290 q 832 308 814 290 q 849 347 849 326 q 806 391 849 391 m 775 199 q 726 172 745 199 q 707 106 707 145 q 753 57 707 57 q 805 87 787 57 q 823 150 823 117 q 808 187 823 175 q 775 199 793 199 z "},"⅜":{"ha":950,"x_min":87,"x_max":950,"o":"m 87 640 l 191 652 q 209 596 196 610 q 244 583 221 583 q 293 602 273 583 q 312 652 312 621 q 297 693 312 678 q 256 708 281 708 q 231 705 247 708 l 252 806 l 269 805 q 319 822 302 805 q 336 868 336 839 q 325 899 336 888 q 295 910 314 910 q 237 842 254 910 l 138 862 q 189 960 158 930 q 302 1006 235 1006 q 405 968 366 1006 q 444 868 444 930 q 430 810 444 836 q 378 753 416 784 q 412 702 404 724 q 420 656 420 681 q 369 536 420 587 q 243 485 317 485 q 138 523 179 485 q 87 640 97 562 m 197 -41 l 100 -41 l 846 1006 l 943 1006 l 197 -41 m 885 243 q 927 139 927 195 q 878 16 927 68 q 749 -37 828 -37 q 638 5 676 -37 q 600 109 600 48 q 685 256 600 200 q 649 340 649 292 q 692 440 649 397 q 806 484 734 484 q 911 447 873 484 q 950 354 950 411 q 885 243 950 292 m 806 391 q 766 374 783 391 q 749 334 749 357 q 792 290 749 290 q 832 308 814 290 q 849 347 849 326 q 806 391 849 391 m 775 199 q 726 172 745 199 q 707 106 707 145 q 753 57 707 57 q 805 87 787 57 q 823 150 823 117 q 808 187 823 175 q 775 199 793 199 z "},"⅝":{"ha":950,"x_min":90,"x_max":950,"o":"m 90 653 l 196 663 l 196 643 q 241 583 196 583 q 300 615 276 583 q 323 696 323 646 q 273 757 323 757 q 207 721 239 757 l 118 728 l 196 997 l 452 997 l 431 890 l 269 890 l 258 840 q 298 846 277 846 q 394 805 357 846 q 431 697 431 765 q 375 548 431 611 q 239 485 319 485 q 129 533 167 485 q 90 653 90 581 m 194 -41 l 97 -41 l 844 1006 l 940 1006 l 194 -41 m 885 243 q 927 139 927 195 q 878 16 927 68 q 749 -37 828 -37 q 638 5 676 -37 q 600 109 600 48 q 685 256 600 200 q 649 340 649 292 q 692 440 649 397 q 806 484 734 484 q 911 447 873 484 q 950 354 950 411 q 885 243 950 292 m 806 391 q 766 374 783 391 q 749 334 749 357 q 792 290 749 290 q 832 308 814 290 q 849 347 849 326 q 806 391 849 391 m 775 199 q 726 172 745 199 q 707 106 707 145 q 753 57 707 57 q 805 87 787 57 q 823 150 823 117 q 808 187 823 175 q 775 199 793 199 z "},"⅞":{"ha":950,"x_min":62,"x_max":947,"o":"m 121 890 l 143 997 l 473 997 l 457 914 q 325 734 389 859 q 237 493 260 610 l 134 493 q 317 890 173 705 l 121 890 m 159 -41 l 62 -41 l 808 1006 l 905 1006 l 159 -41 m 882 243 q 924 139 924 195 q 875 16 924 68 q 746 -37 825 -37 q 635 5 673 -37 q 597 109 597 48 q 682 256 597 200 q 646 340 646 292 q 689 440 646 397 q 803 484 732 484 q 909 447 870 484 q 947 354 947 411 q 882 243 947 292 m 803 391 q 763 374 780 391 q 746 334 746 357 q 789 290 746 290 q 829 308 812 290 q 846 347 846 326 q 803 391 846 391 m 772 199 q 723 172 742 199 q 705 106 705 145 q 751 57 705 57 q 802 87 785 57 q 820 150 820 117 q 805 187 820 175 q 772 199 790 199 z "},"΄":{"ha":463,"x_min":209,"x_max":496,"o":"m 325 1015 l 496 1015 l 315 811 l 209 811 l 325 1015 z "},"΅":{"ha":379,"x_min":-40,"x_max":562,"o":"m 150 811 l 233 1015 l 397 1015 l 254 811 l 150 811 m -40 811 l -11 978 l 122 978 l 93 811 l -40 811 m 399 811 l 428 978 l 562 978 l 533 811 l 399 811 z "},"Ά":{"ha":822,"x_min":-13,"x_max":766,"o":"m 581 220 l 257 220 l 159 0 l -13 0 l 448 994 l 634 994 l 766 0 l 608 0 l 581 220 m 559 385 l 513 785 l 333 385 l 559 385 m 227 993 l 398 993 l 217 789 l 111 789 l 227 993 z "},"Έ":{"ha":974,"x_min":92,"x_max":1036,"o":"m 261 0 l 431 994 l 1036 994 l 1007 828 l 571 828 l 532 602 l 954 602 l 926 436 l 504 436 l 457 166 l 926 166 l 898 0 l 261 0 m 208 993 l 379 993 l 198 789 l 92 789 l 208 993 z "},"Ή":{"ha":1032,"x_min":92,"x_max":1082,"o":"m 820 444 l 505 444 l 428 0 l 260 0 l 431 994 l 599 994 l 532 610 l 848 610 l 914 994 l 1082 994 l 911 0 l 744 0 l 820 444 m 208 993 l 379 993 l 198 789 l 92 789 l 208 993 z "},"Ί":{"ha":538,"x_min":95,"x_max":597,"o":"m 260 0 l 430 994 l 597 994 l 427 0 l 260 0 m 211 993 l 382 993 l 201 789 l 95 789 l 211 993 z "},"Ό":{"ha":958,"x_min":68,"x_max":966,"o":"m 173 390 q 216 655 173 519 q 379 921 271 830 q 629 1011 487 1011 q 871 899 776 1011 q 966 594 966 787 q 898 271 966 419 q 729 53 830 123 q 507 -18 628 -18 q 275 84 361 -18 q 173 390 173 204 m 339 394 q 393 219 339 284 q 524 153 447 153 q 648 202 587 153 q 754 362 709 251 q 799 589 799 474 q 743 779 799 710 q 615 840 694 840 q 489 791 551 840 q 383 632 427 741 q 339 394 339 522 m 184 993 l 355 993 l 174 789 l 68 789 l 184 993 z "},"Ύ":{"ha":1060,"x_min":92,"x_max":1192,"o":"m 755 0 l 587 0 l 654 387 l 429 994 l 608 994 l 709 713 q 757 568 745 613 q 806 662 779 613 l 882 793 l 998 994 l 1192 994 l 819 368 l 755 0 m 208 993 l 379 993 l 198 789 l 92 789 l 208 993 z "},"Ώ":{"ha":965,"x_min":71,"x_max":963,"o":"m 449 0 l 86 0 l 114 161 l 302 161 q 196 473 196 281 q 319 853 196 695 q 631 1011 442 1011 q 871 897 779 1011 q 963 593 963 783 q 770 161 963 344 l 939 161 l 911 0 l 534 0 l 559 140 q 728 294 661 173 q 796 578 796 415 q 747 768 796 696 q 614 840 699 840 q 429 716 508 840 q 350 395 350 591 q 474 140 350 213 l 449 0 m 186 993 l 357 993 l 176 789 l 71 789 l 186 993 z "},"ΐ":{"ha":317,"x_min":-32,"x_max":570,"o":"m 170 720 l 329 720 l 205 0 l 46 0 l 170 720 m 158 811 l 241 1015 l 406 1015 l 262 811 l 158 811 m -32 811 l -3 978 l 130 978 l 101 811 l -32 811 m 407 811 l 436 978 l 570 978 l 541 811 l 407 811 z "},"Α":{"ha":822,"x_min":-13,"x_max":766,"o":"m 581 220 l 257 220 l 159 0 l -13 0 l 448 994 l 634 994 l 766 0 l 608 0 l 581 220 m 559 385 l 513 785 l 333 385 l 559 385 z "},"Β":{"ha":822,"x_min":45,"x_max":808,"o":"m 45 0 l 216 994 l 495 994 q 654 980 607 994 q 768 899 728 958 q 808 753 808 840 q 770 607 808 666 q 654 517 731 548 q 750 444 714 497 q 787 321 787 391 q 743 146 787 224 q 629 34 699 68 q 430 0 559 0 l 45 0 m 315 593 l 443 593 q 564 606 527 593 q 621 653 600 620 q 642 729 642 686 q 627 788 642 764 q 587 820 611 812 q 485 828 564 828 l 355 828 l 315 593 m 241 160 l 402 160 q 532 174 497 160 q 591 223 568 187 q 615 305 615 260 q 584 389 615 359 q 486 420 553 420 l 285 420 l 241 160 z "},"Δ":{"ha":764,"x_min":-47,"x_max":732,"o":"m 601 994 l 732 0 l -47 0 l 414 994 l 601 994 m 201 167 l 555 167 l 480 786 l 201 167 z "},"Ε":{"ha":760,"x_min":47,"x_max":821,"o":"m 47 0 l 217 994 l 821 994 l 793 828 l 357 828 l 318 602 l 740 602 l 711 436 l 290 436 l 243 166 l 711 166 l 684 0 l 47 0 z "},"Ζ":{"ha":696,"x_min":28,"x_max":761,"o":"m 28 0 l 56 157 l 524 828 l 144 828 l 173 994 l 761 994 l 736 838 l 262 163 l 349 165 l 376 165 l 496 166 l 689 166 l 661 0 l 28 0 z "},"Η":{"ha":822,"x_min":49,"x_max":870,"o":"m 608 444 l 293 444 l 216 0 l 49 0 l 219 994 l 387 994 l 321 610 l 637 610 l 703 994 l 870 994 l 700 0 l 532 0 l 608 444 z "},"Ι":{"ha":317,"x_min":40,"x_max":378,"o":"m 40 0 l 210 994 l 378 994 l 208 0 l 40 0 z "},"Κ":{"ha":822,"x_min":45,"x_max":913,"o":"m 45 0 l 215 994 l 382 994 l 311 572 l 688 994 l 913 994 l 546 604 l 814 0 l 625 0 l 424 473 l 266 304 l 214 0 l 45 0 z "},"Λ":{"ha":760,"x_min":-47,"x_max":728,"o":"m -47 0 l 404 994 l 583 994 l 728 0 l 560 0 l 458 753 l 120 0 l -47 0 z "},"Μ":{"ha":949,"x_min":46,"x_max":1000,"o":"m 515 0 l 356 0 l 327 831 l 197 0 l 46 0 l 216 994 l 456 994 l 481 298 l 759 994 l 1000 994 l 830 0 l 677 0 l 838 825 l 515 0 z "},"Ν":{"ha":822,"x_min":51,"x_max":869,"o":"m 699 0 l 542 0 l 321 668 l 208 0 l 51 0 l 221 994 l 378 994 l 598 329 l 712 994 l 869 994 l 699 0 z "},"Ξ":{"ha":749,"x_min":10,"x_max":809,"o":"m 189 828 l 218 994 l 809 994 l 779 828 l 189 828 m 133 436 l 162 603 l 727 603 l 698 436 l 133 436 m 10 0 l 39 167 l 699 167 l 670 0 l 10 0 z "},"Ο":{"ha":886,"x_min":100,"x_max":893,"o":"m 100 390 q 143 655 100 519 q 306 921 198 830 q 555 1011 414 1011 q 798 899 703 1011 q 893 594 893 787 q 825 271 893 419 q 656 53 757 123 q 433 -18 555 -18 q 202 84 288 -18 q 100 390 100 204 m 266 394 q 320 219 266 284 q 451 153 374 153 q 574 202 513 153 q 681 362 635 251 q 726 589 726 474 q 670 779 726 710 q 542 840 621 840 q 416 791 478 840 q 310 632 353 741 q 266 394 266 522 z "},"Π":{"ha":822,"x_min":48,"x_max":870,"o":"m 531 0 l 674 828 l 359 828 l 216 0 l 48 0 l 219 994 l 870 994 l 699 0 l 531 0 z "},"Ρ":{"ha":760,"x_min":47,"x_max":800,"o":"m 214 0 l 47 0 l 217 994 l 549 994 q 690 968 641 994 q 770 885 740 941 q 800 746 800 828 q 764 564 800 647 q 674 441 728 481 q 546 387 620 401 q 387 379 506 379 l 279 379 l 214 0 m 308 544 l 359 544 q 529 561 484 544 q 603 623 574 578 q 632 728 632 668 q 590 817 632 792 q 477 831 566 831 l 357 831 l 308 544 z "},"Σ":{"ha":672,"x_min":19,"x_max":770,"o":"m 161 811 l 194 994 l 770 994 l 741 828 l 351 828 l 551 498 l 270 167 l 625 167 l 595 0 l 19 0 l 51 184 l 337 524 l 161 811 z "},"Τ":{"ha":696,"x_min":137,"x_max":808,"o":"m 401 0 l 234 0 l 376 828 l 137 828 l 165 994 l 808 994 l 779 828 l 544 828 l 401 0 z "},"Υ":{"ha":760,"x_min":131,"x_max":894,"o":"m 457 0 l 289 0 l 356 387 l 131 994 l 309 994 l 410 713 q 458 568 446 613 q 507 662 480 613 l 584 793 l 699 994 l 894 994 l 520 368 l 457 0 z "},"Χ":{"ha":760,"x_min":-34,"x_max":892,"o":"m 183 0 l -34 0 l 326 503 l 123 994 l 299 994 l 378 808 q 439 652 420 707 q 554 817 507 753 l 682 994 l 892 994 l 520 471 l 721 0 l 532 0 l 471 150 q 407 320 422 270 q 295 155 386 281 l 183 0 z "},"Ψ":{"ha":943,"x_min":138,"x_max":1016,"o":"m 153 725 l 201 994 l 366 994 l 321 739 q 305 604 305 639 q 433 452 305 473 l 527 994 l 691 994 l 597 452 q 739 515 701 463 q 800 704 776 567 l 849 994 l 1016 994 l 963 689 q 815 368 923 452 q 569 286 707 283 l 519 0 l 355 0 l 404 286 q 138 590 138 327 q 153 725 138 638 z "},"Ω":{"ha":889,"x_min":7,"x_max":884,"o":"m 370 0 l 7 0 l 35 161 l 223 161 q 117 473 117 281 q 240 853 117 695 q 552 1011 363 1011 q 792 897 701 1011 q 884 593 884 783 q 691 161 884 344 l 861 161 l 833 0 l 455 0 l 480 140 q 650 294 582 173 q 718 578 718 415 q 669 768 718 696 q 536 840 620 840 q 350 716 429 840 q 271 395 271 591 q 395 140 271 213 l 370 0 z "},"Ϊ":{"ha":317,"x_min":40,"x_max":547,"o":"m 40 0 l 210 994 l 378 994 l 208 0 l 40 0 m 176 1248 l 313 1248 l 284 1082 l 148 1082 l 176 1248 m 410 1248 l 547 1248 l 519 1082 l 382 1082 l 410 1248 z "},"Ϋ":{"ha":760,"x_min":131,"x_max":894,"o":"m 457 0 l 289 0 l 356 387 l 131 994 l 309 994 l 410 713 q 458 568 446 613 q 507 662 480 613 l 584 793 l 699 994 l 894 994 l 520 368 l 457 0 m 332 1248 l 468 1248 l 439 1082 l 303 1082 l 332 1248 m 566 1248 l 703 1248 l 674 1082 l 537 1082 l 566 1248 z "},"ά":{"ha":700,"x_min":67,"x_max":751,"o":"m 539 621 l 581 720 l 751 720 l 623 372 q 617 252 617 292 q 630 0 617 150 l 477 0 q 469 89 469 42 q 281 -18 387 -18 q 124 60 180 -18 q 67 281 67 139 q 152 605 67 472 q 361 737 236 737 q 539 621 473 737 m 382 591 q 269 503 316 591 q 221 298 221 415 q 251 172 221 216 q 334 127 281 127 q 447 212 401 127 q 492 428 492 296 q 462 548 492 505 q 382 591 431 591 m 448 1015 l 619 1015 l 438 811 l 332 811 l 448 1015 z "},"έ":{"ha":547,"x_min":50,"x_max":584,"o":"m 212 382 q 130 529 130 444 q 191 679 130 621 q 357 736 253 736 q 584 631 503 736 l 467 525 q 355 585 414 585 q 307 567 325 585 q 290 522 290 549 q 414 439 290 444 l 388 289 q 353 290 376 290 q 249 262 288 290 q 209 193 209 234 q 228 152 209 168 q 275 136 246 136 q 328 150 300 136 q 362 168 355 163 l 427 215 l 524 86 q 262 -16 413 -16 q 106 39 163 -16 q 50 180 50 94 q 212 382 50 318 m 399 1015 l 570 1015 l 389 811 l 283 811 l 399 1015 z "},"ή":{"ha":696,"x_min":47,"x_max":671,"o":"m 322 720 l 305 627 q 517 737 410 737 q 629 686 587 737 q 671 545 671 634 q 665 472 671 510 l 537 -277 l 379 -277 l 496 414 q 512 522 512 506 q 443 599 512 599 q 336 531 387 599 q 268 361 286 464 l 207 0 l 47 0 l 171 720 l 322 720 m 444 1015 l 615 1015 l 434 811 l 328 811 l 444 1015 z "},"ί":{"ha":317,"x_min":46,"x_max":460,"o":"m 170 720 l 329 720 l 205 0 l 46 0 l 170 720 m 289 1015 l 460 1015 l 279 811 l 173 811 l 289 1015 z "},"ΰ":{"ha":694,"x_min":94,"x_max":768,"o":"m 100 311 l 170 720 l 328 720 l 258 317 q 251 241 251 273 q 340 129 251 129 q 428 175 393 129 q 485 357 462 221 l 546 720 l 705 720 l 647 378 q 535 61 606 140 q 339 -17 463 -17 q 157 51 221 -17 q 94 236 94 119 q 100 311 94 273 m 355 811 l 439 1015 l 603 1015 l 460 811 l 355 811 m 165 811 l 195 978 l 328 978 l 298 811 l 165 811 m 604 811 l 633 978 l 768 978 l 739 811 l 604 811 z "},"β":{"ha":707,"x_min":-3,"x_max":703,"o":"m 552 538 q 675 304 675 465 q 600 75 675 169 q 412 -18 524 -18 q 218 93 291 -18 l 155 -277 l -3 -277 l 148 587 q 264 913 188 816 q 473 1010 341 1010 q 640 944 576 1010 q 703 778 703 879 q 552 538 703 614 m 307 596 l 275 428 q 263 310 263 363 q 388 127 263 127 q 485 180 442 127 q 528 317 528 233 q 486 440 528 400 q 348 479 444 479 l 376 628 q 470 639 441 628 q 524 688 499 650 q 549 772 549 725 q 528 833 549 808 q 471 859 506 859 q 378 812 417 859 q 307 596 340 766 z "},"γ":{"ha":633,"x_min":92,"x_max":711,"o":"m 711 720 l 348 0 l 300 -277 l 163 -277 l 210 0 l 92 720 l 249 720 l 291 407 q 312 236 310 262 q 392 416 343 316 l 539 720 l 711 720 z "},"ζ":{"ha":559,"x_min":63,"x_max":691,"o":"m 254 828 l 281 994 l 691 994 l 669 863 q 323 558 417 699 q 230 301 230 418 q 331 153 230 199 q 481 -54 481 85 q 440 -196 481 -136 q 345 -274 399 -257 q 195 -292 290 -292 l 259 -131 q 341 -77 341 -128 q 277 -13 341 -39 q 168 41 213 13 q 93 121 122 68 q 63 264 63 174 q 154 566 63 412 q 406 828 245 720 l 254 828 z "},"η":{"ha":696,"x_min":47,"x_max":671,"o":"m 322 720 l 305 627 q 517 737 410 737 q 629 686 587 737 q 671 545 671 634 q 665 472 671 510 l 537 -277 l 379 -277 l 496 414 q 512 522 512 506 q 443 599 512 599 q 336 531 387 599 q 268 361 286 464 l 207 0 l 47 0 l 171 720 l 322 720 z "},"θ":{"ha":627,"x_min":74,"x_max":652,"o":"m 309 -17 q 141 77 208 -17 q 74 328 74 170 q 176 808 74 605 q 426 1011 277 1011 q 593 922 534 1011 q 652 664 652 833 q 556 201 652 418 q 309 -17 461 -17 m 267 581 l 486 581 q 496 701 496 648 q 475 814 496 776 q 421 852 454 852 q 267 581 324 852 m 459 414 l 239 414 q 230 303 230 353 q 252 184 230 226 q 307 142 274 142 q 459 414 406 142 z "},"ι":{"ha":317,"x_min":46,"x_max":329,"o":"m 170 720 l 329 720 l 205 0 l 46 0 l 170 720 z "},"κ":{"ha":644,"x_min":47,"x_max":707,"o":"m 47 0 l 172 720 l 332 720 l 290 485 l 496 720 l 707 720 l 406 400 l 608 0 l 431 0 l 299 286 l 245 228 l 205 0 l 47 0 z "},"λ":{"ha":633,"x_min":-24,"x_max":595,"o":"m -24 0 l 334 711 l 290 994 l 431 994 l 595 0 l 446 0 l 395 314 q 376 484 386 373 q 296 304 339 395 l 148 0 l -24 0 z "},"μ":{"ha":693,"x_min":-2,"x_max":705,"o":"m 438 0 l 450 66 q 332 -17 385 -17 q 218 77 260 -17 l 157 -277 l -2 -277 l 170 720 l 330 720 l 264 347 q 257 265 257 302 q 348 129 257 129 q 483 343 446 129 l 548 720 l 705 720 l 581 0 l 438 0 z "},"ν":{"ha":633,"x_min":85,"x_max":704,"o":"m 341 0 l 204 0 l 85 720 l 242 720 l 284 406 q 304 237 300 284 l 340 317 l 385 416 l 532 720 l 704 720 l 341 0 z "},"ξ":{"ha":513,"x_min":59,"x_max":587,"o":"m 288 607 q 178 783 178 658 q 254 952 178 892 q 471 1011 329 1011 l 587 1011 l 562 839 q 471 846 500 846 q 374 825 409 846 q 338 768 338 804 q 372 716 338 732 q 526 700 405 700 l 499 526 q 291 450 362 526 q 219 282 219 374 q 237 208 219 235 q 303 151 256 180 q 429 39 399 90 q 459 -68 459 -12 q 392 -226 459 -160 q 181 -292 324 -292 l 230 -118 q 255 -121 240 -121 q 312 -72 312 -121 q 299 -37 312 -54 q 204 26 286 -20 q 91 139 122 73 q 59 281 59 205 q 120 484 59 396 q 288 607 182 571 z "},"ο":{"ha":696,"x_min":69,"x_max":682,"o":"m 69 299 q 149 600 69 476 q 406 736 238 736 q 607 651 532 736 q 682 413 682 566 q 589 109 682 234 q 345 -16 496 -16 q 146 68 222 -16 q 69 299 69 153 m 524 438 q 491 550 524 509 q 406 591 457 591 q 324 561 362 591 q 258 457 286 531 q 229 304 229 383 q 264 178 229 223 q 351 134 299 134 q 461 203 416 134 q 524 438 524 298 z "},"ρ":{"ha":701,"x_min":-12,"x_max":684,"o":"m 148 -277 l -12 -277 l 92 298 q 156 541 119 452 q 262 685 193 630 q 417 739 330 739 q 610 652 536 739 q 684 418 684 565 q 589 108 684 231 q 366 -16 495 -16 q 206 52 279 -16 l 148 -277 m 414 581 q 298 492 344 581 q 252 282 252 403 q 282 171 252 212 q 356 131 312 131 q 476 221 423 131 q 530 427 530 312 q 497 538 530 496 q 414 581 465 581 z "},"ς":{"ha":607,"x_min":77,"x_max":677,"o":"m 128 -275 l 186 -117 q 286 -127 239 -127 q 363 -75 363 -127 q 353 -46 363 -60 q 298 -5 344 -32 q 77 342 77 123 q 193 615 77 494 q 486 736 310 736 q 677 693 580 736 l 621 541 q 475 578 540 578 q 301 499 372 578 q 231 328 231 420 q 295 187 231 239 q 466 34 422 86 q 510 -92 510 -18 q 443 -238 510 -185 q 252 -292 375 -292 q 128 -275 191 -292 z "},"υ":{"ha":694,"x_min":94,"x_max":705,"o":"m 100 311 l 170 720 l 328 720 l 258 317 q 251 241 251 273 q 340 129 251 129 q 428 175 393 129 q 485 357 462 221 l 546 720 l 705 720 l 647 378 q 535 61 606 140 q 339 -17 463 -17 q 157 51 221 -17 q 94 236 94 119 q 100 311 94 273 z "},"χ":{"ha":659,"x_min":-80,"x_max":745,"o":"m 283 720 l 360 392 l 549 720 l 745 720 l 435 212 l 555 -275 l 395 -275 l 320 79 l 107 -275 l -80 -275 l 243 250 l 123 720 l 283 720 z "},"ψ":{"ha":880,"x_min":81,"x_max":901,"o":"m 87 322 l 159 720 l 321 720 l 265 414 q 247 258 247 310 q 270 173 247 199 q 349 138 293 147 l 454 720 l 611 720 l 509 138 q 630 203 598 147 q 689 412 661 260 l 745 720 l 901 720 l 838 359 q 721 56 795 121 q 481 -17 646 -9 l 435 -277 l 277 -277 l 321 -17 q 142 54 203 -17 q 81 250 81 125 q 87 322 81 288 z "},"ω":{"ha":940,"x_min":70,"x_max":938,"o":"m 470 157 q 278 -17 412 -17 q 127 69 185 -17 q 70 300 70 155 q 206 720 70 513 l 364 720 q 224 268 224 432 q 246 170 224 205 q 300 135 267 135 q 418 354 380 135 l 452 543 l 612 543 l 583 370 q 563 229 563 260 q 584 160 563 184 q 634 135 606 135 q 737 240 695 135 q 779 510 779 345 q 760 720 779 590 l 919 720 q 938 500 938 587 q 856 123 938 263 q 640 -17 774 -17 q 470 157 487 -17 z "},"ϊ":{"ha":317,"x_min":46,"x_max":484,"o":"m 170 720 l 329 720 l 205 0 l 46 0 l 170 720 m 113 996 l 249 996 l 220 829 l 84 829 l 113 996 m 347 996 l 484 996 l 455 829 l 318 829 l 347 996 z "},"ϋ":{"ha":694,"x_min":94,"x_max":705,"o":"m 100 311 l 170 720 l 328 720 l 258 317 q 251 241 251 273 q 340 129 251 129 q 428 175 393 129 q 485 357 462 221 l 546 720 l 705 720 l 647 378 q 535 61 606 140 q 339 -17 463 -17 q 157 51 221 -17 q 94 236 94 119 q 100 311 94 273 m 286 996 l 422 996 l 393 829 l 257 829 l 286 996 m 519 996 l 656 996 l 628 829 l 491 829 l 519 996 z "},"ό":{"ha":696,"x_min":69,"x_max":682,"o":"m 69 299 q 149 600 69 476 q 406 736 238 736 q 607 651 532 736 q 682 413 682 566 q 589 109 682 234 q 345 -16 496 -16 q 146 68 222 -16 q 69 299 69 153 m 524 438 q 491 550 524 509 q 406 591 457 591 q 324 561 362 591 q 258 457 286 531 q 229 304 229 383 q 264 178 229 223 q 351 134 299 134 q 461 203 416 134 q 524 438 524 298 m 441 1015 l 612 1015 l 431 811 l 325 811 l 441 1015 z "},"ύ":{"ha":694,"x_min":94,"x_max":705,"o":"m 100 311 l 170 720 l 328 720 l 258 317 q 251 241 251 273 q 340 129 251 129 q 428 175 393 129 q 485 357 462 221 l 546 720 l 705 720 l 647 378 q 535 61 606 140 q 339 -17 463 -17 q 157 51 221 -17 q 94 236 94 119 q 100 311 94 273 m 454 1015 l 625 1015 l 444 811 l 338 811 l 454 1015 z "},"ώ":{"ha":940,"x_min":70,"x_max":938,"o":"m 470 157 q 278 -17 412 -17 q 127 69 185 -17 q 70 300 70 155 q 206 720 70 513 l 364 720 q 224 268 224 432 q 246 170 224 205 q 300 135 267 135 q 418 354 380 135 l 452 543 l 612 543 l 583 370 q 563 229 563 260 q 584 160 563 184 q 634 135 606 135 q 737 240 695 135 q 779 510 779 345 q 760 720 779 590 l 919 720 q 938 500 938 587 q 856 123 938 263 q 640 -17 774 -17 q 470 157 487 -17 m 589 1015 l 760 1015 l 579 811 l 473 811 l 589 1015 z "},"Ё":{"ha":760,"x_min":47,"x_max":821,"o":"m 47 0 l 217 994 l 821 994 l 793 828 l 357 828 l 318 602 l 740 602 l 711 436 l 290 436 l 243 166 l 711 166 l 684 0 l 47 0 m 385 1248 l 522 1248 l 493 1082 l 357 1082 l 385 1248 m 619 1248 l 756 1248 l 728 1082 l 591 1082 l 619 1248 z "},"Ђ":{"ha":1008,"x_min":111,"x_max":960,"o":"m 553 179 q 639 167 599 167 q 755 218 711 167 q 799 354 799 269 q 763 449 799 412 q 669 486 728 486 q 444 407 558 486 l 374 0 l 205 0 l 351 822 l 111 822 l 140 994 l 787 994 l 758 822 l 517 822 l 479 604 q 689 668 577 668 q 885 578 810 668 q 960 351 960 488 q 869 93 960 194 q 648 -8 779 -8 q 525 14 592 -8 l 553 179 z "},"Ѓ":{"ha":694,"x_min":48,"x_max":801,"o":"m 219 994 l 801 994 l 773 828 l 357 828 l 216 0 l 48 0 l 219 994 m 562 1273 l 733 1273 l 552 1069 l 446 1069 l 562 1273 z "},"Є":{"ha":819,"x_min":77,"x_max":818,"o":"m 818 686 l 657 667 q 503 836 632 836 q 363 770 425 836 q 268 578 302 705 l 530 578 l 501 411 l 243 411 q 288 218 243 288 q 408 149 334 149 q 608 357 549 149 l 774 325 q 632 78 736 171 q 395 -16 528 -16 q 161 97 245 -16 q 77 410 77 209 q 200 843 77 675 q 510 1011 323 1011 q 818 686 770 1011 z "},"Ѕ":{"ha":760,"x_min":70,"x_max":770,"o":"m 72 322 l 231 332 q 250 221 235 252 q 299 172 264 190 q 393 154 334 154 q 510 188 471 154 q 549 277 549 222 q 526 343 549 315 q 410 420 504 370 q 253 518 292 483 q 192 604 214 553 q 171 720 171 654 q 249 932 171 852 q 462 1011 327 1011 q 680 932 598 1011 q 770 711 762 854 l 609 702 q 461 849 597 849 q 362 821 394 849 q 331 744 331 793 q 361 671 331 699 q 479 595 390 643 q 635 499 596 534 q 694 415 673 465 q 715 302 715 366 q 626 72 715 161 q 391 -17 537 -17 q 204 30 281 -17 q 98 155 126 77 q 72 322 70 233 z "},"І":{"ha":317,"x_min":40,"x_max":378,"o":"m 40 0 l 210 994 l 378 994 l 208 0 l 40 0 z "},"Ї":{"ha":317,"x_min":40,"x_max":523,"o":"m 40 0 l 210 994 l 378 994 l 208 0 l 40 0 m 152 1248 l 288 1248 l 260 1082 l 123 1082 l 152 1248 m 386 1248 l 523 1248 l 494 1082 l 357 1082 l 386 1248 z "},"Ј":{"ha":633,"x_min":33,"x_max":684,"o":"m 519 994 l 684 994 l 581 392 q 468 62 538 140 q 268 -17 397 -17 q 94 46 155 -17 q 33 227 33 109 q 36 281 33 251 l 191 301 q 188 253 188 272 q 211 178 188 202 q 279 154 235 154 q 368 199 342 154 q 416 399 389 233 l 519 994 z "},"Љ":{"ha":1246,"x_min":-58,"x_max":1189,"o":"m 461 0 l 606 828 l 379 828 l 286 301 q 204 56 256 130 q 60 -17 152 -17 q -58 9 -3 -17 l -28 182 q 31 163 9 163 q 83 190 61 163 q 123 325 104 216 l 240 994 l 802 994 l 736 618 l 879 618 q 1118 550 1048 618 q 1189 334 1189 483 q 1103 91 1189 182 q 871 0 1017 0 l 461 0 m 707 452 l 656 163 l 835 163 q 1022 319 1022 163 q 984 419 1022 387 q 854 452 947 452 l 707 452 z "},"Њ":{"ha":1186,"x_min":21,"x_max":1136,"o":"m 746 994 l 681 618 l 812 618 q 1063 551 991 618 q 1136 343 1136 485 q 1049 91 1136 182 q 803 0 962 0 l 408 0 l 484 452 l 265 452 l 189 0 l 21 0 l 192 994 l 358 994 l 293 618 l 513 618 l 578 994 l 746 994 m 653 452 l 602 163 l 770 163 q 888 178 852 163 q 947 232 924 193 q 970 319 970 271 q 936 417 970 382 q 786 452 901 452 l 653 452 z "},"Ћ":{"ha":972,"x_min":111,"x_max":922,"o":"m 111 822 l 139 994 l 786 994 l 757 822 l 519 822 l 482 615 q 689 659 587 659 q 861 602 800 659 q 922 441 922 545 q 905 304 922 398 l 851 0 l 686 0 l 736 282 q 746 380 746 340 q 621 494 746 494 q 454 444 540 494 l 376 0 l 210 0 l 354 822 l 111 822 z "},"Ќ":{"ha":700,"x_min":22,"x_max":771,"o":"m 22 0 l 196 994 l 363 994 l 289 572 q 373 608 345 574 q 461 768 400 642 q 553 931 522 894 q 627 981 585 968 q 728 994 669 994 l 771 994 l 734 843 l 708 843 q 650 820 671 843 q 586 694 629 798 q 432 507 522 535 q 491 460 465 494 q 545 313 517 426 l 618 0 l 446 0 l 378 309 q 338 407 361 383 q 264 432 314 431 l 189 0 l 22 0 m 484 1286 l 655 1286 l 474 1082 l 368 1082 l 484 1286 z "},"Ў":{"ha":771,"x_min":57,"x_max":875,"o":"m 298 288 l 118 994 l 306 994 l 410 488 l 693 994 l 875 994 l 376 158 q 268 17 312 50 q 161 -16 223 -16 q 57 0 102 -16 l 78 158 q 143 149 119 149 q 222 174 191 149 q 286 262 254 199 l 298 288 m 359 1280 l 437 1280 q 471 1203 450 1225 q 525 1182 493 1182 q 635 1280 591 1182 l 708 1280 q 626 1127 684 1185 q 520 1084 583 1084 q 413 1132 456 1084 q 359 1280 371 1180 z "},"Џ":{"ha":819,"x_min":22,"x_max":843,"o":"m 668 0 l 414 0 l 366 -275 l 229 -275 l 278 0 l 22 0 l 196 994 l 363 994 l 218 167 l 530 167 l 676 994 l 843 994 l 668 0 z "},"А":{"ha":822,"x_min":-13,"x_max":766,"o":"m 581 220 l 257 220 l 159 0 l -13 0 l 448 994 l 634 994 l 766 0 l 608 0 l 581 220 m 559 385 l 513 785 l 333 385 l 559 385 z "},"Б":{"ha":807,"x_min":24,"x_max":781,"o":"m 749 828 l 336 828 l 300 618 l 444 618 q 695 536 636 618 q 754 334 754 454 q 667 91 754 182 q 436 0 581 0 l 24 0 l 199 994 l 781 994 l 749 828 m 272 452 l 221 163 l 399 163 q 587 319 587 163 q 550 419 587 387 q 419 452 513 452 l 272 452 z "},"В":{"ha":822,"x_min":45,"x_max":808,"o":"m 45 0 l 216 994 l 495 994 q 654 980 607 994 q 768 899 728 958 q 808 753 808 840 q 770 607 808 666 q 654 517 731 548 q 750 444 714 497 q 787 321 787 391 q 743 146 787 224 q 629 34 699 68 q 430 0 559 0 l 45 0 m 315 593 l 443 593 q 564 606 527 593 q 621 653 600 620 q 642 729 642 686 q 627 788 642 764 q 587 820 611 812 q 485 828 564 828 l 355 828 l 315 593 m 241 160 l 402 160 q 532 174 497 160 q 591 223 568 187 q 615 305 615 260 q 584 389 615 359 q 486 420 553 420 l 285 420 l 241 160 z "},"Г":{"ha":694,"x_min":48,"x_max":801,"o":"m 219 994 l 801 994 l 773 828 l 357 828 l 216 0 l 48 0 l 219 994 z "},"Д":{"ha":822,"x_min":-115,"x_max":832,"o":"m -36 167 l 36 167 q 261 994 174 450 l 832 994 l 688 167 l 760 167 l 682 -275 l 546 -275 l 595 0 l 69 0 l 21 -275 l -115 -275 l -36 167 m 522 167 l 637 828 l 396 828 q 211 167 332 461 l 522 167 z "},"Е":{"ha":760,"x_min":47,"x_max":821,"o":"m 47 0 l 217 994 l 821 994 l 793 828 l 357 828 l 318 602 l 740 602 l 711 436 l 290 436 l 243 166 l 711 166 l 684 0 l 47 0 z "},"Ж":{"ha":1055,"x_min":-47,"x_max":1126,"o":"m 481 574 l 554 994 l 721 994 l 647 574 q 720 618 690 575 q 793 759 749 662 q 865 899 837 855 q 940 972 892 943 q 1064 1000 988 1000 q 1126 994 1090 1000 l 1099 844 q 1055 848 1072 848 q 995 829 1017 848 q 939 726 973 810 q 868 585 904 643 q 774 507 832 528 q 880 329 846 475 l 957 0 l 785 0 l 724 282 q 682 400 705 370 q 623 431 659 431 l 547 0 l 382 0 l 456 431 q 399 407 426 430 q 319 290 373 384 l 154 0 l -47 0 l 163 361 q 328 507 235 485 q 242 721 266 541 q 219 825 231 802 q 161 848 206 848 q 119 844 151 848 l 144 997 q 195 999 157 999 q 300 965 256 999 q 372 787 345 932 q 416 605 399 643 q 481 574 434 568 z "},"З":{"ha":732,"x_min":12,"x_max":710,"o":"m 310 428 l 339 600 q 397 595 361 595 q 496 634 456 595 q 536 732 536 673 q 505 810 536 781 q 427 840 473 840 q 286 722 317 840 l 126 768 q 243 955 163 899 q 427 1011 324 1011 q 628 936 547 1011 q 710 749 710 861 q 536 500 710 564 q 659 286 659 429 q 567 73 659 162 q 322 -16 476 -16 q 12 229 54 -16 l 174 290 q 321 149 199 149 q 441 191 394 149 q 488 302 488 233 q 449 395 488 360 q 347 431 410 431 q 310 428 330 431 z "},"И":{"ha":819,"x_min":20,"x_max":842,"o":"m 20 0 l 195 994 l 350 994 l 243 378 l 684 994 l 842 994 l 668 0 l 510 0 l 621 624 l 176 0 l 20 0 z "},"Й":{"ha":819,"x_min":20,"x_max":842,"o":"m 20 0 l 195 994 l 350 994 l 243 378 l 684 994 l 842 994 l 668 0 l 510 0 l 621 624 l 176 0 l 20 0 m 362 1264 l 439 1264 q 474 1187 452 1208 q 528 1166 496 1166 q 637 1264 594 1166 l 711 1264 q 629 1111 687 1169 q 523 1067 585 1067 q 416 1116 458 1067 q 362 1264 374 1164 z "},"К":{"ha":700,"x_min":22,"x_max":771,"o":"m 22 0 l 196 994 l 363 994 l 289 572 q 373 608 345 574 q 461 768 400 642 q 553 931 522 894 q 627 981 585 968 q 728 994 669 994 l 771 994 l 734 843 l 708 843 q 650 820 671 843 q 586 694 629 798 q 432 507 522 535 q 491 460 465 494 q 545 313 517 426 l 618 0 l 446 0 l 378 309 q 338 407 361 383 q 264 432 314 431 l 189 0 l 22 0 z "},"Л":{"ha":782,"x_min":-58,"x_max":796,"o":"m 374 828 l 282 301 q 201 60 252 134 q 53 -14 151 -14 q -58 0 -1 -14 l -28 171 q 24 161 10 161 q 77 189 55 161 q 118 325 99 217 l 235 994 l 796 994 l 624 0 l 456 0 l 600 828 l 374 828 z "},"М":{"ha":949,"x_min":46,"x_max":1000,"o":"m 515 0 l 356 0 l 327 831 l 197 0 l 46 0 l 216 994 l 456 994 l 481 298 l 759 994 l 1000 994 l 830 0 l 677 0 l 838 825 l 515 0 z "},"Н":{"ha":822,"x_min":49,"x_max":870,"o":"m 608 444 l 293 444 l 216 0 l 49 0 l 219 994 l 387 994 l 321 610 l 637 610 l 703 994 l 870 994 l 700 0 l 532 0 l 608 444 z "},"О":{"ha":886,"x_min":100,"x_max":893,"o":"m 100 390 q 143 655 100 519 q 306 921 198 830 q 555 1011 414 1011 q 798 899 703 1011 q 893 594 893 787 q 825 271 893 419 q 656 53 757 123 q 433 -18 555 -18 q 202 84 288 -18 q 100 390 100 204 m 266 394 q 320 219 266 284 q 451 153 374 153 q 574 202 513 153 q 681 362 635 251 q 726 589 726 474 q 670 779 726 710 q 542 840 621 840 q 416 791 478 840 q 310 632 353 741 q 266 394 266 522 z "}}}
